<svg version="1.1" xmlns="http://www.w3.org/2000/svg" xmlns:xlink="http://www.w3.org/1999/xlink" width="585" height="379" style="width: 585px; height: 379px;"><defs><clipPath id="EXLQmzSQyGPM"><path fill="none" stroke="none" d=" M 75 60 L 575 60 L 575 310 L 75 310 L 75 60 Z"/></clipPath><clipPath id="qCacTskBgygQ"><path fill="none" stroke="none" d=" M 75 60 L 575 60 L 575 310 L 75 310 L 75 60 Z"/></clipPath><clipPath id="EEGRtRMZVDNb"><path fill="none" stroke="none" d=" M 75 60 L 575 60 L 575 310 L 75 310 L 75 60 Z"/></clipPath><clipPath id="ePhCJeTVbklE"><path fill="none" stroke="none" d=" M 75 60 L 575 60 L 575 310 L 75 310 L 75 60 Z"/></clipPath><clipPath id="TbZlhDRcpqGD"><path fill="none" stroke="none" d=" M 75 60 L 575 60 L 575 310 L 75 310 L 75 60 Z"/></clipPath><clipPath id="zSXrLsbxkncb"><path fill="none" stroke="none" d=" M 75 60 L 575 60 L 575 310 L 75 310 L 75 60 Z"/></clipPath></defs><g><g/><g/><g/><g transform="scale(1,1) translate(0.5,0.5)"><rect fill="#FFFFFF" stroke="none" x="0" y="0" width="585" height="379"/><rect fill="#ffffff" stroke="none" x="0" y="0" width="585" height="379"/><rect fill="#FFFFFF" stroke="none" x="75" y="60" width="500" height="250"/><rect fill="#ffffff" stroke="none" x="75" y="60" width="500" height="250"/><g clip-path="url(#EXLQmzSQyGPM)"><g><g><path fill="none" stroke="#e5e5e5" paint-order="fill stroke markers" d=" M 146 310 L 146 60" stroke-linejoin="bevel" stroke-miterlimit="10" stroke-opacity="0.9" stroke-dasharray="6,4"/><path fill="none" stroke="#e5e5e5" paint-order="fill stroke markers" d=" M 218 310 L 218 60" stroke-linejoin="bevel" stroke-miterlimit="10" stroke-opacity="0.9" stroke-dasharray="6,4"/><path fill="none" stroke="#e5e5e5" paint-order="fill stroke markers" d=" M 289 310 L 289 60" stroke-linejoin="bevel" stroke-miterlimit="10" stroke-opacity="0.9" stroke-dasharray="6,4"/><path fill="none" stroke="#e5e5e5" paint-order="fill stroke markers" d=" M 361 310 L 361 60" stroke-linejoin="bevel" stroke-miterlimit="10" stroke-opacity="0.9" stroke-dasharray="6,4"/><path fill="none" stroke="#e5e5e5" paint-order="fill stroke markers" d=" M 432 310 L 432 60" stroke-linejoin="bevel" stroke-miterlimit="10" stroke-opacity="0.9" stroke-dasharray="6,4"/><path fill="none" stroke="#e5e5e5" paint-order="fill stroke markers" d=" M 504 310 L 504 60" stroke-linejoin="bevel" stroke-miterlimit="10" stroke-opacity="0.9" stroke-dasharray="6,4"/></g></g></g><g clip-path="url(#qCacTskBgygQ)"><g><g><path fill="none" stroke="#e5e5e5" paint-order="fill stroke markers" d=" M 75 263 L 575 263" stroke-linejoin="bevel" stroke-miterlimit="10" stroke-opacity="0.9" stroke-dasharray="6,4"/><path fill="none" stroke="#e5e5e5" paint-order="fill stroke markers" d=" M 75 216 L 575 216" stroke-linejoin="bevel" stroke-miterlimit="10" stroke-opacity="0.9" stroke-dasharray="6,4"/><path fill="none" stroke="#e5e5e5" paint-order="fill stroke markers" d=" M 75 168 L 575 168" stroke-linejoin="bevel" stroke-miterlimit="10" stroke-opacity="0.9" stroke-dasharray="6,4"/><path fill="none" stroke="#e5e5e5" paint-order="fill stroke markers" d=" M 75 121 L 575 121" stroke-linejoin="bevel" stroke-miterlimit="10" stroke-opacity="0.9" stroke-dasharray="6,4"/><path fill="none" stroke="#e5e5e5" paint-order="fill stroke markers" d=" M 75 74 L 575 74" stroke-linejoin="bevel" stroke-miterlimit="10" stroke-opacity="0.9" stroke-dasharray="6,4"/></g></g></g><g clip-path="url(#EEGRtRMZVDNb)"><g><g><path fill="none" stroke="none"/><path fill="#AA5F77" stroke="none" paint-order="stroke fill markers" d=" M 75 310 L 80.05050505050502 310 L 85.1010101010101 310 L 90.15151515151513 310 L 95.20202020202021 310 L 100.25252525252523 310 L 105.30303030303031 310 L 110.35353535353534 310 L 115.40404040404042 310 L 120.45454545454544 310 L 125.50505050505052 310 L 130.55555555555554 310 L 135.60606060606062 310 L 140.65656565656565 310 L 145.7070707070707 310 L 150.75757575757575 310 L 155.80808080808083 310 L 160.85858585858585 310 L 165.9090909090909 310 L 170.95959595959596 310 L 176.01010101010104 310 L 181.06060606060606 310 L 186.11111111111111 310 L 191.16161616161617 310 L 196.2121212121212 310 L 201.26262626262624 310 L 206.3131313131313 310 L 211.36363636363637 310 L 216.4141414141414 310 L 221.46464646464648 310 L 226.5151515151515 310 L 231.56565656565658 310 L 236.6161616161616 310 L 241.66666666666666 310 L 246.7171717171717 310 L 251.76767676767673 310 L 256.8181818181818 310 L 261.86868686868684 310 L 266.9191919191919 310 L 271.96969696969694 310 L 277.020202020202 310 L 282.07070707070704 310 L 287.1212121212121 310 L 292.17171717171715 310 L 297.22222222222223 310 L 302.27272727272725 310 L 307.32323232323233 310 L 312.37373737373736 310 L 317.4242424242424 310 L 322.47474747474746 310 L 327.52525252525254 310 L 332.57575757575756 310 L 337.6262626262626 310 L 342.67676767676767 310 L 347.7272727272727 310 L 352.77777777777777 310 L 357.8282828282828 310 L 362.8787878787879 310 L 367.92929292929296 310 L 372.979797979798 310 L 378.030303030303 310 L 383.0808080808081 310 L 388.13131313131316 310 L 393.18181818181813 310 L 398.2323232323232 310 L 403.2828282828283 310 L 408.3333333333333 310 L 413.38383838383834 310 L 418.4343434343434 310 L 423.4848484848485 310 L 428.5353535353535 310 L 433.58585858585855 310 L 438.6363636363636 310 L 443.6868686868687 310 L 448.73737373737373 310 L 453.78787878787875 310 L 458.83838383838383 310 L 463.8888888888889 310 L 468.93939393939394 310 L 473.98989898989896 310 L 479.04040404040404 310 L 484.09090909090907 310 L 489.1414141414141 310 L 494.19191919191917 310 L 499.24242424242425 310 L 504.2929292929293 310 L 509.3434343434343 310 L 514.3939393939394 310 L 519.4444444444445 310 L 524.4949494949494 310 L 529.5454545454545 310 L 534.5959595959596 310 L 539.6464646464647 310 L 544.6969696969696 310 L 549.7474747474747 310 L 554.7979797979798 310 L 559.8484848484848 310 L 564.8989898989898 310 L 569.9494949494949 310 L 575 310 L 575 309.9998869382721 L 569.9494949494949 309.99976153172844 L 564.8989898989898 309.9995082312273 L 559.8484848484848 309.99900840160564 L 554.7979797979798 309.998044816989 L 549.7474747474747 309.9962299140802 L 544.6969696969696 309.99289005315956 L 539.6464646464647 309.98688478071034 L 534.5959595959596 309.976333954287 L 529.5454545454545 309.9582200556447 L 524.4949494949494 309.92782986341723 L 519.4444444444445 309.87800142058643 L 514.3939393939394 309.7981520569607 L 509.3434343434343 309.673084414582 L 504.2929292929293 309.48160265161135 L 499.24242424242425 309.19502123249055 L 494.19191919191917 308.77571196593675 L 489.1414141414141 308.17590520160405 L 484.09090909090907 307.33702770022927 L 479.04040404040404 306.1899077404157 L 473.98989898989896 304.6561898856831 L 468.93939393939394 302.6512599594844 L 463.8888888888889 300.0888715087903 L 458.83838383838383 296.88748286817287 L 453.78787878787875 292.97806539851746 L 448.73737373737373 288.3128498059498 L 443.6868686868687 282.87417519274294 L 438.6363636363636 276.6823443890462 L 433.58585858585855 269.80122685416967 L 428.5353535353535 262.34034426134644 L 423.4848484848485 254.4523694693645 L 418.4343434343434 246.32538844351478 L 413.38383838383834 238.16990221695477 L 408.3333333333333 230.20132333975872 L 403.2828282828283 222.6195446005724 L 398.2323232323232 215.58788791231976 L 393.18181818181813 209.2142246784573 L 388.13131313131316 203.53715855040303 L 383.0808080808081 198.51979063587822 L 378.030303030303 194.05273925540337 L 372.979797979798 189.96684999383444 L 367.92929292929296 186.05458583188147 L 362.8787878787879 182.09767252145792 L 357.8282828282828 177.8974484379513 L 352.77777777777777 173.30375124126138 L 347.7272727272727 168.238201234279 L 342.67676767676767 162.7084335326302 L 337.6262626262626 156.81108771445963 L 332.57575757575756 150.72298386119743 L 327.52525252525254 144.68163669602876 L 322.47474747474746 138.9578122808648 L 317.4242424242424 133.82397732870052 L 312.37373737373736 129.52306381800267 L 307.32323232323233 126.2418967235476 L 302.27272727272725 124.09293090938021 L 297.22222222222223 123.10672110893427 L 292.17171717171715 123.23598093053937 L 287.1212121212121 124.37039230564096 L 282.07070707070704 126.3597439314538 L 277.020202020202 129.04173513381718 L 271.96969696969694 132.2700709493842 L 266.9191919191919 135.93841886623107 L 261.86868686868684 139.99642993444252 L 256.8181818181818 144.4552730793787 L 251.76767676767673 149.38181217714165 L 246.7171717171717 154.88240628039551 L 241.66666666666666 161.07902446440252 L 236.6161616161616 168.08163752503066 L 231.56565656565658 175.96144711948492 L 226.5151515151515 184.7293257958279 L 221.46464646464648 194.32290320427472 L 216.4141414141414 204.60422437173543 L 211.36363636363637 215.36811519182703 L 206.3131313131313 226.3596574406654 L 201.26262626262624 237.29781656401494 L 196.2121212121212 247.90150638762572 L 191.16161616161617 257.91430852341125 L 186.11111111111111 267.12463895972513 L 181.06060606060606 275.37919718196855 L 176.01010101010104 282.58879882451276 L 170.95959595959596 288.726924040422 L 165.9090909090909 293.82229717943335 L 160.85858585858585 297.94741777044004 L 155.80808080808083 301.205152730966 L 150.75757575757575 303.71532520093825 L 145.7070707070707 305.6028045936306 L 140.65656565656565 306.98804708845387 L 135.60606060606062 307.98047903892655 L 130.55555555555554 308.67464970904393 L 125.50505050505052 309.14875523422916 L 120.45454545454544 309.4649637953069 L 115.40404040404042 309.6709334462283 L 110.35353535353534 309.8019722919036 L 105.30303030303031 309.88340443651043 L 100.25252525252523 309.9328376057116 L 95.20202020202021 309.96215274787903 L 90.15151515151513 309.9791366516251 L 85.1010101010101 309.98874996569145 L 80.05050505050502 309.99406632604877 L 75 309.99693892271836 Z" fill-opacity="0.5"/><path fill="none" stroke="black" paint-order="fill stroke markers" d=" M 75 310 L 80.05050505050502 310 L 85.1010101010101 310 L 90.15151515151513 310 L 95.20202020202021 310 L 100.25252525252523 310 L 105.30303030303031 310 L 110.35353535353534 310 L 115.40404040404042 310 L 120.45454545454544 310 L 125.50505050505052 310 L 130.55555555555554 310 L 135.60606060606062 310 L 140.65656565656565 310 L 145.7070707070707 310 L 150.75757575757575 310 L 155.80808080808083 310 L 160.85858585858585 310 L 165.9090909090909 310 L 170.95959595959596 310 L 176.01010101010104 310 L 181.06060606060606 310 L 186.11111111111111 310 L 191.16161616161617 310 L 196.2121212121212 310 L 201.26262626262624 310 L 206.3131313131313 310 L 211.36363636363637 310 L 216.4141414141414 310 L 221.46464646464648 310 L 226.5151515151515 310 L 231.56565656565658 310 L 236.6161616161616 310 L 241.66666666666666 310 L 246.7171717171717 310 L 251.76767676767673 310 L 256.8181818181818 310 L 261.86868686868684 310 L 266.9191919191919 310 L 271.96969696969694 310 L 277.020202020202 310 L 282.07070707070704 310 L 287.1212121212121 310 L 292.17171717171715 310 L 297.22222222222223 310 L 302.27272727272725 310 L 307.32323232323233 310 L 312.37373737373736 310 L 317.4242424242424 310 L 322.47474747474746 310 L 327.52525252525254 310 L 332.57575757575756 310 L 337.6262626262626 310 L 342.67676767676767 310 L 347.7272727272727 310 L 352.77777777777777 310 L 357.8282828282828 310 L 362.8787878787879 310 L 367.92929292929296 310 L 372.979797979798 310 L 378.030303030303 310 L 383.0808080808081 310 L 388.13131313131316 310 L 393.18181818181813 310 L 398.2323232323232 310 L 403.2828282828283 310 L 408.3333333333333 310 L 413.38383838383834 310 L 418.4343434343434 310 L 423.4848484848485 310 L 428.5353535353535 310 L 433.58585858585855 310 L 438.6363636363636 310 L 443.6868686868687 310 L 448.73737373737373 310 L 453.78787878787875 310 L 458.83838383838383 310 L 463.8888888888889 310 L 468.93939393939394 310 L 473.98989898989896 310 L 479.04040404040404 310 L 484.09090909090907 310 L 489.1414141414141 310 L 494.19191919191917 310 L 499.24242424242425 310 L 504.2929292929293 310 L 509.3434343434343 310 L 514.3939393939394 310 L 519.4444444444445 310 L 524.4949494949494 310 L 529.5454545454545 310 L 534.5959595959596 310 L 539.6464646464647 310 L 544.6969696969696 310 L 549.7474747474747 310 L 554.7979797979798 310 L 559.8484848484848 310 L 564.8989898989898 310 L 569.9494949494949 310 L 575 310 L 575 309.9998869382721 L 569.9494949494949 309.99976153172844 L 564.8989898989898 309.9995082312273 L 559.8484848484848 309.99900840160564 L 554.7979797979798 309.998044816989 L 549.7474747474747 309.9962299140802 L 544.6969696969696 309.99289005315956 L 539.6464646464647 309.98688478071034 L 534.5959595959596 309.976333954287 L 529.5454545454545 309.9582200556447 L 524.4949494949494 309.92782986341723 L 519.4444444444445 309.87800142058643 L 514.3939393939394 309.7981520569607 L 509.3434343434343 309.673084414582 L 504.2929292929293 309.48160265161135 L 499.24242424242425 309.19502123249055 L 494.19191919191917 308.77571196593675 L 489.1414141414141 308.17590520160405 L 484.09090909090907 307.33702770022927 L 479.04040404040404 306.1899077404157 L 473.98989898989896 304.6561898856831 L 468.93939393939394 302.6512599594844 L 463.8888888888889 300.0888715087903 L 458.83838383838383 296.88748286817287 L 453.78787878787875 292.97806539851746 L 448.73737373737373 288.3128498059498 L 443.6868686868687 282.87417519274294 L 438.6363636363636 276.6823443890462 L 433.58585858585855 269.80122685416967 L 428.5353535353535 262.34034426134644 L 423.4848484848485 254.4523694693645 L 418.4343434343434 246.32538844351478 L 413.38383838383834 238.16990221695477 L 408.3333333333333 230.20132333975872 L 403.2828282828283 222.6195446005724 L 398.2323232323232 215.58788791231976 L 393.18181818181813 209.2142246784573 L 388.13131313131316 203.53715855040303 L 383.0808080808081 198.51979063587822 L 378.030303030303 194.05273925540337 L 372.979797979798 189.96684999383444 L 367.92929292929296 186.05458583188147 L 362.8787878787879 182.09767252145792 L 357.8282828282828 177.8974484379513 L 352.77777777777777 173.30375124126138 L 347.7272727272727 168.238201234279 L 342.67676767676767 162.7084335326302 L 337.6262626262626 156.81108771445963 L 332.57575757575756 150.72298386119743 L 327.52525252525254 144.68163669602876 L 322.47474747474746 138.9578122808648 L 317.4242424242424 133.82397732870052 L 312.37373737373736 129.52306381800267 L 307.32323232323233 126.2418967235476 L 302.27272727272725 124.09293090938021 L 297.22222222222223 123.10672110893427 L 292.17171717171715 123.23598093053937 L 287.1212121212121 124.37039230564096 L 282.07070707070704 126.3597439314538 L 277.020202020202 129.04173513381718 L 271.96969696969694 132.2700709493842 L 266.9191919191919 135.93841886623107 L 261.86868686868684 139.99642993444252 L 256.8181818181818 144.4552730793787 L 251.76767676767673 149.38181217714165 L 246.7171717171717 154.88240628039551 L 241.66666666666666 161.07902446440252 L 236.6161616161616 168.08163752503066 L 231.56565656565658 175.96144711948492 L 226.5151515151515 184.7293257958279 L 221.46464646464648 194.32290320427472 L 216.4141414141414 204.60422437173543 L 211.36363636363637 215.36811519182703 L 206.3131313131313 226.3596574406654 L 201.26262626262624 237.29781656401494 L 196.2121212121212 247.90150638762572 L 191.16161616161617 257.91430852341125 L 186.11111111111111 267.12463895972513 L 181.06060606060606 275.37919718196855 L 176.01010101010104 282.58879882451276 L 170.95959595959596 288.726924040422 L 165.9090909090909 293.82229717943335 L 160.85858585858585 297.94741777044004 L 155.80808080808083 301.205152730966 L 150.75757575757575 303.71532520093825 L 145.7070707070707 305.6028045936306 L 140.65656565656565 306.98804708845387 L 135.60606060606062 307.98047903892655 L 130.55555555555554 308.67464970904393 L 125.50505050505052 309.14875523422916 L 120.45454545454544 309.4649637953069 L 115.40404040404042 309.6709334462283 L 110.35353535353534 309.8019722919036 L 105.30303030303031 309.88340443651043 L 100.25252525252523 309.9328376057116 L 95.20202020202021 309.96215274787903 L 90.15151515151513 309.9791366516251 L 85.1010101010101 309.98874996569145 L 80.05050505050502 309.99406632604877 L 75 309.99693892271836 Z" stroke-linejoin="bevel" stroke-miterlimit="10" stroke-width="2.5"/></g></g></g><g clip-path="url(#ePhCJeTVbklE)"><g><g><path fill="none" stroke="none"/><path fill="#2DA3A2" stroke="none" paint-order="stroke fill markers" d=" M 75 310 L 80.05050505050502 310 L 85.1010101010101 310 L 90.15151515151513 310 L 95.20202020202021 310 L 100.25252525252523 310 L 105.30303030303031 310 L 110.35353535353534 310 L 115.40404040404042 310 L 120.45454545454544 310 L 125.50505050505052 310 L 130.55555555555554 310 L 135.60606060606062 310 L 140.65656565656565 310 L 145.7070707070707 310 L 150.75757575757575 310 L 155.80808080808083 310 L 160.85858585858585 310 L 165.9090909090909 310 L 170.95959595959596 310 L 176.01010101010104 310 L 181.06060606060606 310 L 186.11111111111111 310 L 191.16161616161617 310 L 196.2121212121212 310 L 201.26262626262624 310 L 206.3131313131313 310 L 211.36363636363637 310 L 216.4141414141414 310 L 221.46464646464648 310 L 226.5151515151515 310 L 231.56565656565658 310 L 236.6161616161616 310 L 241.66666666666666 310 L 246.7171717171717 310 L 251.76767676767673 310 L 256.8181818181818 310 L 261.86868686868684 310 L 266.9191919191919 310 L 271.96969696969694 310 L 277.020202020202 310 L 282.07070707070704 310 L 287.1212121212121 310 L 292.17171717171715 310 L 297.22222222222223 310 L 302.27272727272725 310 L 307.32323232323233 310 L 312.37373737373736 310 L 317.4242424242424 310 L 322.47474747474746 310 L 327.52525252525254 310 L 332.57575757575756 310 L 337.6262626262626 310 L 342.67676767676767 310 L 347.7272727272727 310 L 352.77777777777777 310 L 357.8282828282828 310 L 362.8787878787879 310 L 367.92929292929296 310 L 372.979797979798 310 L 378.030303030303 310 L 383.0808080808081 310 L 388.13131313131316 310 L 393.18181818181813 310 L 398.2323232323232 310 L 403.2828282828283 310 L 408.3333333333333 310 L 413.38383838383834 310 L 418.4343434343434 310 L 423.4848484848485 310 L 428.5353535353535 310 L 433.58585858585855 310 L 438.6363636363636 310 L 443.6868686868687 310 L 448.73737373737373 310 L 453.78787878787875 310 L 458.83838383838383 310 L 463.8888888888889 310 L 468.93939393939394 310 L 473.98989898989896 310 L 479.04040404040404 310 L 484.09090909090907 310 L 489.1414141414141 310 L 494.19191919191917 310 L 499.24242424242425 310 L 504.2929292929293 310 L 509.3434343434343 310 L 514.3939393939394 310 L 519.4444444444445 310 L 524.4949494949494 310 L 529.5454545454545 310 L 534.5959595959596 310 L 539.6464646464647 310 L 544.6969696969696 310 L 549.7474747474747 310 L 554.7979797979798 310 L 559.8484848484848 310 L 564.8989898989898 310 L 569.9494949494949 310 L 575 310 L 575 309.99975433470496 L 569.9494949494949 309.99950647519285 L 564.8989898989898 309.9990284533313 L 559.8484848484848 309.99812568552045 L 554.7979797979798 309.99645608186216 L 549.7474747474747 309.99343205270145 L 544.6969696969696 309.9880676205613 L 539.6464646464647 309.9787466606559 L 534.5959595959596 309.96288185361374 L 529.5454545454545 309.9364280036423 L 524.4949494949494 309.8932094466752 L 519.4444444444445 309.8240214046189 L 514.3939393939394 309.71547184001224 L 509.3434343434343 309.54854628862546 L 504.2929292929293 309.2969056179087 L 499.24242424242425 308.9249670154961 L 494.19191919191917 308.3858713956406 L 489.1414141414141 307.61950313041507 L 484.09090909090907 306.5507951507314 L 479.04040404040404 305.08861588210334 L 473.98989898989896 303.1255837959467 L 468.93939393939394 300.539178859199 L 463.8888888888889 297.1945060828192 L 458.83838383838383 292.94900432579897 L 453.78787878787875 287.65927605028804 L 448.73737373737373 281.190037898402 L 443.6868686868687 273.42496104528266 L 438.6363636363636 264.2788956537923 L 433.58585858585855 253.71067679758175 L 428.5353535353535 241.73542269076808 L 423.4848484848485 228.43500394065387 L 418.4343434343434 213.96523706858096 L 413.38383838383834 198.5583904354914 L 408.3333333333333 182.51983029624978 L 403.2828282828283 166.21810030263555 L 398.2323232323232 150.0684041706869 L 393.18181818181813 134.5102875462913 L 388.13131313131316 119.98118439139444 L 383.0808080808081 106.88826381086886 L 378.030303030303 95.58153208966053 L 372.979797979798 86.3312791125874 L 367.92929292929296 79.31262927350406 L 362.8787878787879 74.59916528756153 L 357.8282828282828 72.1664306787882 L 352.77777777777777 71.90475652087011 L 347.7272727272727 73.63952628941644 L 342.67676767676767 77.15592458923109 L 337.6262626262626 82.22460708414675 L 332.57575757575756 88.62469543920736 L 327.52525252525254 96.16105178048963 L 322.47474747474746 104.67382257521396 L 317.4242424242424 114.0395735969623 L 312.37373737373736 124.16472659551218 L 307.32323232323233 134.97321177784065 L 302.27272727272725 146.39106853441933 L 297.22222222222223 158.33103938403548 L 292.17171717171715 170.67998626238202 L 287.1212121212121 183.29128840801425 L 282.07070707070704 195.98340865482714 L 277.020202020202 208.54473464996076 L 271.96969696969694 220.7438110409003 L 266.9191919191919 232.34334017130482 L 261.86868686868684 243.1159401911014 L 256.8181818181818 252.85963085435534 L 251.76767676767673 261.41131488725625 L 246.7171717171717 268.65702851734505 L 241.66666666666666 274.5383159397403 L 236.6161616161616 279.0546148006025 L 231.56565656565658 282.26193474797196 L 226.5151515151515 284.2683322605298 L 221.46464646464648 285.2267490521065 L 216.4141414141414 285.3257453534903 L 211.36363636363637 284.7785977523981 L 206.3131313131313 283.81121018584105 L 201.26262626262624 282.6493426439393 L 196.2121212121212 281.5057910679192 L 191.16161616161617 280.5683113365451 L 186.11111111111111 279.98920367478695 L 181.06060606060606 279.87749281858356 L 176.01010101010104 280.2945062078496 L 170.95959595959596 281.2533574335551 L 165.9090909090909 282.7224187832472 L 160.85858585858585 284.6323854858733 L 155.80808080808083 286.8860851965674 L 150.75757575757575 289.36985638601544 L 145.7070707070707 291.96517108861576 L 140.65656565656565 294.55923442282966 L 135.60606060606062 297.05353604546553 L 130.55555555555554 299.3697019342825 L 125.50505050505052 301.45242247544434 L 120.45454545454544 303.2696363343862 L 115.40404040404042 304.8104651703458 L 110.35353535353534 306.081583908183 L 105.30303030303031 307.10276651124053 L 100.25252525252523 307.90228550461114 L 95.20202020202021 308.51269980583845 L 90.15151515151513 308.9673814962961 L 85.1010101010101 309.2979469102802 L 80.05050505050502 309.53260006847546 L 75 309.69528356554474 Z" fill-opacity="0.5"/><path fill="none" stroke="black" paint-order="fill stroke markers" d=" M 75 310 L 80.05050505050502 310 L 85.1010101010101 310 L 90.15151515151513 310 L 95.20202020202021 310 L 100.25252525252523 310 L 105.30303030303031 310 L 110.35353535353534 310 L 115.40404040404042 310 L 120.45454545454544 310 L 125.50505050505052 310 L 130.55555555555554 310 L 135.60606060606062 310 L 140.65656565656565 310 L 145.7070707070707 310 L 150.75757575757575 310 L 155.80808080808083 310 L 160.85858585858585 310 L 165.9090909090909 310 L 170.95959595959596 310 L 176.01010101010104 310 L 181.06060606060606 310 L 186.11111111111111 310 L 191.16161616161617 310 L 196.2121212121212 310 L 201.26262626262624 310 L 206.3131313131313 310 L 211.36363636363637 310 L 216.4141414141414 310 L 221.46464646464648 310 L 226.5151515151515 310 L 231.56565656565658 310 L 236.6161616161616 310 L 241.66666666666666 310 L 246.7171717171717 310 L 251.76767676767673 310 L 256.8181818181818 310 L 261.86868686868684 310 L 266.9191919191919 310 L 271.96969696969694 310 L 277.020202020202 310 L 282.07070707070704 310 L 287.1212121212121 310 L 292.17171717171715 310 L 297.22222222222223 310 L 302.27272727272725 310 L 307.32323232323233 310 L 312.37373737373736 310 L 317.4242424242424 310 L 322.47474747474746 310 L 327.52525252525254 310 L 332.57575757575756 310 L 337.6262626262626 310 L 342.67676767676767 310 L 347.7272727272727 310 L 352.77777777777777 310 L 357.8282828282828 310 L 362.8787878787879 310 L 367.92929292929296 310 L 372.979797979798 310 L 378.030303030303 310 L 383.0808080808081 310 L 388.13131313131316 310 L 393.18181818181813 310 L 398.2323232323232 310 L 403.2828282828283 310 L 408.3333333333333 310 L 413.38383838383834 310 L 418.4343434343434 310 L 423.4848484848485 310 L 428.5353535353535 310 L 433.58585858585855 310 L 438.6363636363636 310 L 443.6868686868687 310 L 448.73737373737373 310 L 453.78787878787875 310 L 458.83838383838383 310 L 463.8888888888889 310 L 468.93939393939394 310 L 473.98989898989896 310 L 479.04040404040404 310 L 484.09090909090907 310 L 489.1414141414141 310 L 494.19191919191917 310 L 499.24242424242425 310 L 504.2929292929293 310 L 509.3434343434343 310 L 514.3939393939394 310 L 519.4444444444445 310 L 524.4949494949494 310 L 529.5454545454545 310 L 534.5959595959596 310 L 539.6464646464647 310 L 544.6969696969696 310 L 549.7474747474747 310 L 554.7979797979798 310 L 559.8484848484848 310 L 564.8989898989898 310 L 569.9494949494949 310 L 575 310 L 575 309.99975433470496 L 569.9494949494949 309.99950647519285 L 564.8989898989898 309.9990284533313 L 559.8484848484848 309.99812568552045 L 554.7979797979798 309.99645608186216 L 549.7474747474747 309.99343205270145 L 544.6969696969696 309.9880676205613 L 539.6464646464647 309.9787466606559 L 534.5959595959596 309.96288185361374 L 529.5454545454545 309.9364280036423 L 524.4949494949494 309.8932094466752 L 519.4444444444445 309.8240214046189 L 514.3939393939394 309.71547184001224 L 509.3434343434343 309.54854628862546 L 504.2929292929293 309.2969056179087 L 499.24242424242425 308.9249670154961 L 494.19191919191917 308.3858713956406 L 489.1414141414141 307.61950313041507 L 484.09090909090907 306.5507951507314 L 479.04040404040404 305.08861588210334 L 473.98989898989896 303.1255837959467 L 468.93939393939394 300.539178859199 L 463.8888888888889 297.1945060828192 L 458.83838383838383 292.94900432579897 L 453.78787878787875 287.65927605028804 L 448.73737373737373 281.190037898402 L 443.6868686868687 273.42496104528266 L 438.6363636363636 264.2788956537923 L 433.58585858585855 253.71067679758175 L 428.5353535353535 241.73542269076808 L 423.4848484848485 228.43500394065387 L 418.4343434343434 213.96523706858096 L 413.38383838383834 198.5583904354914 L 408.3333333333333 182.51983029624978 L 403.2828282828283 166.21810030263555 L 398.2323232323232 150.0684041706869 L 393.18181818181813 134.5102875462913 L 388.13131313131316 119.98118439139444 L 383.0808080808081 106.88826381086886 L 378.030303030303 95.58153208966053 L 372.979797979798 86.3312791125874 L 367.92929292929296 79.31262927350406 L 362.8787878787879 74.59916528756153 L 357.8282828282828 72.1664306787882 L 352.77777777777777 71.90475652087011 L 347.7272727272727 73.63952628941644 L 342.67676767676767 77.15592458923109 L 337.6262626262626 82.22460708414675 L 332.57575757575756 88.62469543920736 L 327.52525252525254 96.16105178048963 L 322.47474747474746 104.67382257521396 L 317.4242424242424 114.0395735969623 L 312.37373737373736 124.16472659551218 L 307.32323232323233 134.97321177784065 L 302.27272727272725 146.39106853441933 L 297.22222222222223 158.33103938403548 L 292.17171717171715 170.67998626238202 L 287.1212121212121 183.29128840801425 L 282.07070707070704 195.98340865482714 L 277.020202020202 208.54473464996076 L 271.96969696969694 220.7438110409003 L 266.9191919191919 232.34334017130482 L 261.86868686868684 243.1159401911014 L 256.8181818181818 252.85963085435534 L 251.76767676767673 261.41131488725625 L 246.7171717171717 268.65702851734505 L 241.66666666666666 274.5383159397403 L 236.6161616161616 279.0546148006025 L 231.56565656565658 282.26193474797196 L 226.5151515151515 284.2683322605298 L 221.46464646464648 285.2267490521065 L 216.4141414141414 285.3257453534903 L 211.36363636363637 284.7785977523981 L 206.3131313131313 283.81121018584105 L 201.26262626262624 282.6493426439393 L 196.2121212121212 281.5057910679192 L 191.16161616161617 280.5683113365451 L 186.11111111111111 279.98920367478695 L 181.06060606060606 279.87749281858356 L 176.01010101010104 280.2945062078496 L 170.95959595959596 281.2533574335551 L 165.9090909090909 282.7224187832472 L 160.85858585858585 284.6323854858733 L 155.80808080808083 286.8860851965674 L 150.75757575757575 289.36985638601544 L 145.7070707070707 291.96517108861576 L 140.65656565656565 294.55923442282966 L 135.60606060606062 297.05353604546553 L 130.55555555555554 299.3697019342825 L 125.50505050505052 301.45242247544434 L 120.45454545454544 303.2696363343862 L 115.40404040404042 304.8104651703458 L 110.35353535353534 306.081583908183 L 105.30303030303031 307.10276651124053 L 100.25252525252523 307.90228550461114 L 95.20202020202021 308.51269980583845 L 90.15151515151513 308.9673814962961 L 85.1010101010101 309.2979469102802 L 80.05050505050502 309.53260006847546 L 75 309.69528356554474 Z" stroke-linejoin="bevel" stroke-miterlimit="10" stroke-width="2.5"/></g></g></g><g clip-path="url(#TbZlhDRcpqGD)"><g><g><path fill="none" stroke="none"/><path fill="#D6AE4A" stroke="none" paint-order="stroke fill markers" d=" M 75 310 L 80.05050505050502 310 L 85.1010101010101 310 L 90.15151515151513 310 L 95.20202020202021 310 L 100.25252525252523 310 L 105.30303030303031 310 L 110.35353535353534 310 L 115.40404040404042 310 L 120.45454545454544 310 L 125.50505050505052 310 L 130.55555555555554 310 L 135.60606060606062 310 L 140.65656565656565 310 L 145.7070707070707 310 L 150.75757575757575 310 L 155.80808080808083 310 L 160.85858585858585 310 L 165.9090909090909 310 L 170.95959595959596 310 L 176.01010101010104 310 L 181.06060606060606 310 L 186.11111111111111 310 L 191.16161616161617 310 L 196.2121212121212 310 L 201.26262626262624 310 L 206.3131313131313 310 L 211.36363636363637 310 L 216.4141414141414 310 L 221.46464646464648 310 L 226.5151515151515 310 L 231.56565656565658 310 L 236.6161616161616 310 L 241.66666666666666 310 L 246.7171717171717 310 L 251.76767676767673 310 L 256.8181818181818 310 L 261.86868686868684 310 L 266.9191919191919 310 L 271.96969696969694 310 L 277.020202020202 310 L 282.07070707070704 310 L 287.1212121212121 310 L 292.17171717171715 310 L 297.22222222222223 310 L 302.27272727272725 310 L 307.32323232323233 310 L 312.37373737373736 310 L 317.4242424242424 310 L 322.47474747474746 310 L 327.52525252525254 310 L 332.57575757575756 310 L 337.6262626262626 310 L 342.67676767676767 310 L 347.7272727272727 310 L 352.77777777777777 310 L 357.8282828282828 310 L 362.8787878787879 310 L 367.92929292929296 310 L 372.979797979798 310 L 378.030303030303 310 L 383.0808080808081 310 L 388.13131313131316 310 L 393.18181818181813 310 L 398.2323232323232 310 L 403.2828282828283 310 L 408.3333333333333 310 L 413.38383838383834 310 L 418.4343434343434 310 L 423.4848484848485 310 L 428.5353535353535 310 L 433.58585858585855 310 L 438.6363636363636 310 L 443.6868686868687 310 L 448.73737373737373 310 L 453.78787878787875 310 L 458.83838383838383 310 L 463.8888888888889 310 L 468.93939393939394 310 L 473.98989898989896 310 L 479.04040404040404 310 L 484.09090909090907 310 L 489.1414141414141 310 L 494.19191919191917 310 L 499.24242424242425 310 L 504.2929292929293 310 L 509.3434343434343 310 L 514.3939393939394 310 L 519.4444444444445 310 L 524.4949494949494 310 L 529.5454545454545 310 L 534.5959595959596 310 L 539.6464646464647 310 L 544.6969696969696 310 L 549.7474747474747 310 L 554.7979797979798 310 L 559.8484848484848 310 L 564.8989898989898 310 L 569.9494949494949 310 L 575 310 L 575 304.87990193083044 L 569.9494949494949 303.55276774312335 L 564.8989898989898 301.9915033656766 L 559.8484848484848 300.18194677240484 L 554.7979797979798 298.11356814971504 L 549.7474747474747 295.77901406779426 L 544.6969696969696 293.1729261347469 L 539.6464646464647 290.29004574297505 L 534.5959595959596 287.12274866304676 L 529.5454545454545 283.658298953557 L 524.4949494949494 279.8762478586928 L 519.4444444444445 275.74650261772763 L 514.3939393939394 271.22862500550383 L 509.3434343434343 266.272868037019 L 504.2929292929293 260.8233107142635 L 499.24242424242425 254.82320958453766 L 494.19191919191917 248.22237454013478 L 489.1414141414141 240.986033792758 L 484.09090909090907 233.10433064383517 L 479.04040404040404 224.60134850901477 L 473.98989898989896 215.54244153295713 L 468.93939393939394 206.03869183913696 L 463.8888888888889 196.2475333553353 L 458.83838383838383 186.36896043617145 L 453.78787878787875 176.63723343653444 L 448.73737373737373 167.30853691451222 L 443.6868686868687 158.64556115248635 L 438.6363636363636 150.9003872208328 L 433.58585858585855 144.29729765507417 L 428.5353535353535 139.01717275392747 L 423.4848484848485 135.18496283229595 L 418.4343434343434 132.86137865710526 L 413.38383838383834 132.03947186066625 L 408.3333333333333 132.64625638947408 L 403.2828282828283 134.54902525022223 L 398.2323232323232 137.5656070092672 L 393.18181818181813 141.47752527727 L 388.13131313131316 146.04488686439942 L 383.0808080808081 151.0218200232825 L 378.030303030303 156.1713836727361 L 372.979797979798 161.27903284514133 L 367.92929292929296 166.16391716837782 L 362.8787878787879 170.68748011641597 L 357.8282828282828 174.75900352339133 L 352.77777777777777 178.33790495075883 L 347.7272727272727 181.432754748983 L 342.67676767676767 184.09714689611485 L 337.6262626262626 186.4227392249646 L 332.57575757575756 188.5299698584436 L 327.52525252525254 190.55714051631287 L 322.47474747474746 192.64870720888092 L 317.4242424242424 194.943704919379 L 312.37373737373736 197.56523046000308 L 307.32323232323233 200.61180464791096 L 302.27272727272725 204.1512365703936 L 297.22222222222223 208.21734226350046 L 292.17171717171715 212.80956501554107 L 287.1212121212121 217.89524892044645 L 282.07070707070704 223.41407329214354 L 277.020202020202 229.28399469347343 L 271.96969696969694 235.40798105065818 L 266.9191919191919 241.68085600011003 L 261.86868686868684 247.9956827373404 L 256.8181818181818 254.24927612847327 L 251.76767676767673 260.34660703045057 L 246.7171717171717 266.20402422103615 L 241.66666666666666 271.7513460485948 L 236.6161616161616 276.9329558094723 L 231.56565656565658 281.7080725758492 L 226.5151515151515 286.0503715205863 L 221.46464646464648 289.9471078618002 L 216.4141414141414 293.3978699150802 L 211.36363636363637 296.41306017520776 L 206.3131313131313 299.012185115159 L 201.26262626262624 301.22202598302135 L 196.2121212121212 303.0747620029649 L 191.16161616161617 304.6061196465553 L 186.11111111111111 305.85362234187403 L 181.06060606060606 306.8550105897824 L 176.01010101010104 307.6468913815568 L 170.95959595959596 308.2636585613972 L 165.9090909090909 308.7367044875229 L 160.85858585858585 309.0939210248054 L 155.80808080808083 309.35946760736886 L 150.75757575757575 309.5537682774695 L 145.7070707070707 309.69368965606606 L 140.65656565656565 309.7928480357188 L 135.60606060606062 309.86199555128576 L 130.55555555555554 309.9094413676964 L 125.50505050505052 309.94147242082914 L 120.45454545454544 309.9627478795954 L 115.40404040404042 309.9766508502796 L 110.35353535353534 309.9855889923855 L 105.30303030303031 309.9912421468741 L 100.25252525252523 309.9947596450003 L 95.20202020202021 309.996912792973 L 90.15151515151513 309.99820940532663 L 85.1010101010101 309.99897755071754 L 80.05050505050502 309.99942523885136 L 75 309.99968192914116 Z" fill-opacity="0.5"/><path fill="none" stroke="black" paint-order="fill stroke markers" d=" M 75 310 L 80.05050505050502 310 L 85.1010101010101 310 L 90.15151515151513 310 L 95.20202020202021 310 L 100.25252525252523 310 L 105.30303030303031 310 L 110.35353535353534 310 L 115.40404040404042 310 L 120.45454545454544 310 L 125.50505050505052 310 L 130.55555555555554 310 L 135.60606060606062 310 L 140.65656565656565 310 L 145.7070707070707 310 L 150.75757575757575 310 L 155.80808080808083 310 L 160.85858585858585 310 L 165.9090909090909 310 L 170.95959595959596 310 L 176.01010101010104 310 L 181.06060606060606 310 L 186.11111111111111 310 L 191.16161616161617 310 L 196.2121212121212 310 L 201.26262626262624 310 L 206.3131313131313 310 L 211.36363636363637 310 L 216.4141414141414 310 L 221.46464646464648 310 L 226.5151515151515 310 L 231.56565656565658 310 L 236.6161616161616 310 L 241.66666666666666 310 L 246.7171717171717 310 L 251.76767676767673 310 L 256.8181818181818 310 L 261.86868686868684 310 L 266.9191919191919 310 L 271.96969696969694 310 L 277.020202020202 310 L 282.07070707070704 310 L 287.1212121212121 310 L 292.17171717171715 310 L 297.22222222222223 310 L 302.27272727272725 310 L 307.32323232323233 310 L 312.37373737373736 310 L 317.4242424242424 310 L 322.47474747474746 310 L 327.52525252525254 310 L 332.57575757575756 310 L 337.6262626262626 310 L 342.67676767676767 310 L 347.7272727272727 310 L 352.77777777777777 310 L 357.8282828282828 310 L 362.8787878787879 310 L 367.92929292929296 310 L 372.979797979798 310 L 378.030303030303 310 L 383.0808080808081 310 L 388.13131313131316 310 L 393.18181818181813 310 L 398.2323232323232 310 L 403.2828282828283 310 L 408.3333333333333 310 L 413.38383838383834 310 L 418.4343434343434 310 L 423.4848484848485 310 L 428.5353535353535 310 L 433.58585858585855 310 L 438.6363636363636 310 L 443.6868686868687 310 L 448.73737373737373 310 L 453.78787878787875 310 L 458.83838383838383 310 L 463.8888888888889 310 L 468.93939393939394 310 L 473.98989898989896 310 L 479.04040404040404 310 L 484.09090909090907 310 L 489.1414141414141 310 L 494.19191919191917 310 L 499.24242424242425 310 L 504.2929292929293 310 L 509.3434343434343 310 L 514.3939393939394 310 L 519.4444444444445 310 L 524.4949494949494 310 L 529.5454545454545 310 L 534.5959595959596 310 L 539.6464646464647 310 L 544.6969696969696 310 L 549.7474747474747 310 L 554.7979797979798 310 L 559.8484848484848 310 L 564.8989898989898 310 L 569.9494949494949 310 L 575 310 L 575 304.87990193083044 L 569.9494949494949 303.55276774312335 L 564.8989898989898 301.9915033656766 L 559.8484848484848 300.18194677240484 L 554.7979797979798 298.11356814971504 L 549.7474747474747 295.77901406779426 L 544.6969696969696 293.1729261347469 L 539.6464646464647 290.29004574297505 L 534.5959595959596 287.12274866304676 L 529.5454545454545 283.658298953557 L 524.4949494949494 279.8762478586928 L 519.4444444444445 275.74650261772763 L 514.3939393939394 271.22862500550383 L 509.3434343434343 266.272868037019 L 504.2929292929293 260.8233107142635 L 499.24242424242425 254.82320958453766 L 494.19191919191917 248.22237454013478 L 489.1414141414141 240.986033792758 L 484.09090909090907 233.10433064383517 L 479.04040404040404 224.60134850901477 L 473.98989898989896 215.54244153295713 L 468.93939393939394 206.03869183913696 L 463.8888888888889 196.2475333553353 L 458.83838383838383 186.36896043617145 L 453.78787878787875 176.63723343653444 L 448.73737373737373 167.30853691451222 L 443.6868686868687 158.64556115248635 L 438.6363636363636 150.9003872208328 L 433.58585858585855 144.29729765507417 L 428.5353535353535 139.01717275392747 L 423.4848484848485 135.18496283229595 L 418.4343434343434 132.86137865710526 L 413.38383838383834 132.03947186066625 L 408.3333333333333 132.64625638947408 L 403.2828282828283 134.54902525022223 L 398.2323232323232 137.5656070092672 L 393.18181818181813 141.47752527727 L 388.13131313131316 146.04488686439942 L 383.0808080808081 151.0218200232825 L 378.030303030303 156.1713836727361 L 372.979797979798 161.27903284514133 L 367.92929292929296 166.16391716837782 L 362.8787878787879 170.68748011641597 L 357.8282828282828 174.75900352339133 L 352.77777777777777 178.33790495075883 L 347.7272727272727 181.432754748983 L 342.67676767676767 184.09714689611485 L 337.6262626262626 186.4227392249646 L 332.57575757575756 188.5299698584436 L 327.52525252525254 190.55714051631287 L 322.47474747474746 192.64870720888092 L 317.4242424242424 194.943704919379 L 312.37373737373736 197.56523046000308 L 307.32323232323233 200.61180464791096 L 302.27272727272725 204.1512365703936 L 297.22222222222223 208.21734226350046 L 292.17171717171715 212.80956501554107 L 287.1212121212121 217.89524892044645 L 282.07070707070704 223.41407329214354 L 277.020202020202 229.28399469347343 L 271.96969696969694 235.40798105065818 L 266.9191919191919 241.68085600011003 L 261.86868686868684 247.9956827373404 L 256.8181818181818 254.24927612847327 L 251.76767676767673 260.34660703045057 L 246.7171717171717 266.20402422103615 L 241.66666666666666 271.7513460485948 L 236.6161616161616 276.9329558094723 L 231.56565656565658 281.7080725758492 L 226.5151515151515 286.0503715205863 L 221.46464646464648 289.9471078618002 L 216.4141414141414 293.3978699150802 L 211.36363636363637 296.41306017520776 L 206.3131313131313 299.012185115159 L 201.26262626262624 301.22202598302135 L 196.2121212121212 303.0747620029649 L 191.16161616161617 304.6061196465553 L 186.11111111111111 305.85362234187403 L 181.06060606060606 306.8550105897824 L 176.01010101010104 307.6468913815568 L 170.95959595959596 308.2636585613972 L 165.9090909090909 308.7367044875229 L 160.85858585858585 309.0939210248054 L 155.80808080808083 309.35946760736886 L 150.75757575757575 309.5537682774695 L 145.7070707070707 309.69368965606606 L 140.65656565656565 309.7928480357188 L 135.60606060606062 309.86199555128576 L 130.55555555555554 309.9094413676964 L 125.50505050505052 309.94147242082914 L 120.45454545454544 309.9627478795954 L 115.40404040404042 309.9766508502796 L 110.35353535353534 309.9855889923855 L 105.30303030303031 309.9912421468741 L 100.25252525252523 309.9947596450003 L 95.20202020202021 309.996912792973 L 90.15151515151513 309.99820940532663 L 85.1010101010101 309.99897755071754 L 80.05050505050502 309.99942523885136 L 75 309.99968192914116 Z" stroke-linejoin="bevel" stroke-miterlimit="10" stroke-width="2.5"/></g></g></g><g><g/><g><path fill="#ffffff" stroke="#e5e5e5" paint-order="fill stroke markers" d=" M 75 20 L 585.828125 20 L 585.828125 60 L 75 60 L 75 20 Z" fill-opacity="0.95" stroke-linejoin="bevel" stroke-miterlimit="10" stroke-opacity="0.5"/><text fill="#444444" stroke="none" font-family="helvetica" font-size="13pt" font-style="normal" font-weight="normal" text-decoration="normal" x="110" y="40" text-anchor="start" dominant-baseline="central">Arctic</text><rect fill="#AA5F77" stroke="none" x="87" y="32" width="16" height="16" fill-opacity="0.5"/><path fill="none" stroke="black" paint-order="fill stroke markers" d=" M 87 32 L 103 32 L 103 48 L 87 48 L 87 32 Z" stroke-linejoin="bevel" stroke-miterlimit="10" stroke-width="2.5"/><text fill="#444444" stroke="none" font-family="helvetica" font-size="13pt" font-style="normal" font-weight="normal" text-decoration="normal" x="180.46875" y="40" text-anchor="start" dominant-baseline="central">Non-Arctic: Open ocean</text><rect fill="#2DA3A2" stroke="none" x="157.46875" y="32" width="16" height="16" fill-opacity="0.5"/><path fill="none" stroke="black" paint-order="fill stroke markers" d=" M 157.46875 32 L 173.46875 32 L 173.46875 48 L 157.46875 48 L 157.46875 32 Z" stroke-linejoin="bevel" stroke-miterlimit="10" stroke-width="2.5"/><text fill="#444444" stroke="none" font-family="helvetica" font-size="13pt" font-style="normal" font-weight="normal" text-decoration="normal" x="389.8125" y="40" text-anchor="start" dominant-baseline="central">Non-Arctic: Shelf/coastal</text><rect fill="#D6AE4A" stroke="none" x="366.8125" y="32" width="16" height="16" fill-opacity="0.5"/><path fill="none" stroke="black" paint-order="fill stroke markers" d=" M 366.8125 32 L 382.8125 32 L 382.8125 48 L 366.8125 48 L 366.8125 32 Z" stroke-linejoin="bevel" stroke-miterlimit="10" stroke-width="2.5"/></g></g><g><g/><g><path fill="#ffffff" stroke="#e5e5e5" paint-order="fill stroke markers" d=" M 75 20 L 585.828125 20 L 585.828125 60 L 75 60 L 75 20 Z" fill-opacity="0.95" stroke-linejoin="bevel" stroke-miterlimit="10" stroke-opacity="0.5"/><text fill="#444444" stroke="none" font-family="helvetica" font-size="13pt" font-style="normal" font-weight="normal" text-decoration="normal" x="110" y="40" text-anchor="start" dominant-baseline="central">Arctic</text><rect fill="#AA5F77" stroke="none" x="87" y="32" width="16" height="16" fill-opacity="0.5"/><path fill="none" stroke="black" paint-order="fill stroke markers" d=" M 87 32 L 103 32 L 103 48 L 87 48 L 87 32 Z" stroke-linejoin="bevel" stroke-miterlimit="10" stroke-width="2.5"/><text fill="#444444" stroke="none" font-family="helvetica" font-size="13pt" font-style="normal" font-weight="normal" text-decoration="normal" x="180.46875" y="40" text-anchor="start" dominant-baseline="central">Non-Arctic: Open ocean</text><rect fill="#2DA3A2" stroke="none" x="157.46875" y="32" width="16" height="16" fill-opacity="0.5"/><path fill="none" stroke="black" paint-order="fill stroke markers" d=" M 157.46875 32 L 173.46875 32 L 173.46875 48 L 157.46875 48 L 157.46875 32 Z" stroke-linejoin="bevel" stroke-miterlimit="10" stroke-width="2.5"/><text fill="#444444" stroke="none" font-family="helvetica" font-size="13pt" font-style="normal" font-weight="normal" text-decoration="normal" x="389.8125" y="40" text-anchor="start" dominant-baseline="central">Non-Arctic: Shelf/coastal</text><rect fill="#D6AE4A" stroke="none" x="366.8125" y="32" width="16" height="16" fill-opacity="0.5"/><path fill="none" stroke="black" paint-order="fill stroke markers" d=" M 366.8125 32 L 382.8125 32 L 382.8125 48 L 366.8125 48 L 366.8125 32 Z" stroke-linejoin="bevel" stroke-miterlimit="10" stroke-width="2.5"/></g></g><g/><g><g fill="black"><path fill="none" stroke="black" paint-order="fill stroke markers" d=" M 75 310 L 575 310" stroke-linejoin="bevel" stroke-miterlimit="10" stroke-width="2"/><path fill="none" stroke="black" paint-order="fill stroke markers" d=" M 146 318 L 146 310" stroke-linejoin="bevel" stroke-miterlimit="10" stroke-width="2"/><path fill="none" stroke="black" paint-order="fill stroke markers" d=" M 218 318 L 218 310" stroke-linejoin="bevel" stroke-miterlimit="10" stroke-width="2"/><path fill="none" stroke="black" paint-order="fill stroke markers" d=" M 289 318 L 289 310" stroke-linejoin="bevel" stroke-miterlimit="10" stroke-width="2"/><path fill="none" stroke="black" paint-order="fill stroke markers" d=" M 361 318 L 361 310" stroke-linejoin="bevel" stroke-miterlimit="10" stroke-width="2"/><path fill="none" stroke="black" paint-order="fill stroke markers" d=" M 432 318 L 432 310" stroke-linejoin="bevel" stroke-miterlimit="10" stroke-width="2"/><path fill="" stroke="black" paint-order="fill stroke markers" d=" M 504 318 L 504 310" stroke-linejoin="bevel" stroke-miterlimit="10" stroke-width="2"/><g transform="translate(146,323) rotate(0,0,0)"><text fill="" stroke="none" font-family="helvetica" font-size="13pt" font-style="normal" font-weight="normal" text-decoration="normal" x="0" y="0" text-anchor="middle" dominant-baseline="hanging">0.001</text><g transform="rotate(0,0,0) translate(-146,-323) translate(218,323) rotate(0,0,0)"><text fill="" stroke="none" font-family="helvetica" font-size="13pt" font-style="normal" font-weight="normal" text-decoration="normal" x="0" y="0" text-anchor="middle" dominant-baseline="hanging">0.01</text><g transform="rotate(0,0,0) translate(-218,-323) translate(289,323) rotate(0,0,0)"><text fill="" stroke="none" font-family="helvetica" font-size="13pt" font-style="normal" font-weight="normal" text-decoration="normal" x="0" y="0" text-anchor="middle" dominant-baseline="hanging">0.1</text><g transform="rotate(0,0,0) translate(-289,-323) translate(361,323) rotate(0,0,0)"><text fill="" stroke="none" font-family="helvetica" font-size="13pt" font-style="normal" font-weight="normal" text-decoration="normal" x="0" y="0" text-anchor="middle" dominant-baseline="hanging">1</text><g transform="rotate(0,0,0) translate(-361,-323) translate(432,323) rotate(0,0,0)"><text fill="" stroke="none" font-family="helvetica" font-size="13pt" font-style="normal" font-weight="normal" text-decoration="normal" x="0" y="0" text-anchor="middle" dominant-baseline="hanging">10</text><g transform="rotate(0,0,0) translate(-432,-323) translate(504,323) rotate(0,0,0)"><text fill="" stroke="none" font-family="helvetica" font-size="13pt" font-style="normal" font-weight="normal" text-decoration="normal" x="0" y="0" text-anchor="middle" dominant-baseline="hanging">100</text><g transform="rotate(0,0,0) translate(-504,-323) translate(325,355) rotate(0,0,0)"><text fill="" stroke="none" font-family="helvetica" font-size="15pt" font-style="normal" font-weight="normal" text-decoration="normal" x="0" y="0" text-anchor="middle" dominant-baseline="hanging">Nitrate flux (mmol m⁻² d⁻¹)</text><g transform="rotate(0,0,0) translate(-325,-355)"/></g></g></g></g></g></g></g></g></g><g><g fill="black"><path fill="none" stroke="black" paint-order="fill stroke markers" d=" M 75 310 L 75 60" stroke-linejoin="bevel" stroke-miterlimit="10" stroke-width="2"/><path fill="none" stroke="black" paint-order="fill stroke markers" d=" M 67 310 L 75 310" stroke-linejoin="bevel" stroke-miterlimit="10" stroke-width="2"/><path fill="none" stroke="black" paint-order="fill stroke markers" d=" M 67 263 L 75 263" stroke-linejoin="bevel" stroke-miterlimit="10" stroke-width="2"/><path fill="none" stroke="black" paint-order="fill stroke markers" d=" M 67 216 L 75 216" stroke-linejoin="bevel" stroke-miterlimit="10" stroke-width="2"/><path fill="none" stroke="black" paint-order="fill stroke markers" d=" M 67 168 L 75 168" stroke-linejoin="bevel" stroke-miterlimit="10" stroke-width="2"/><path fill="none" stroke="black" paint-order="fill stroke markers" d=" M 67 121 L 75 121" stroke-linejoin="bevel" stroke-miterlimit="10" stroke-width="2"/><path fill="none" stroke="black" paint-order="fill stroke markers" d=" M 67 74 L 75 74" stroke-linejoin="bevel" stroke-miterlimit="10" stroke-width="2"/><path fill="none" stroke="black" paint-order="fill stroke markers" d=" M 75 310 L 75 310" stroke-linejoin="bevel" stroke-miterlimit="10"/><path fill="none" stroke="black" paint-order="fill stroke markers" d=" M 75 301 L 75 301" stroke-linejoin="bevel" stroke-miterlimit="10"/><path fill="none" stroke="black" paint-order="fill stroke markers" d=" M 75 291 L 75 291" stroke-linejoin="bevel" stroke-miterlimit="10"/><path fill="none" stroke="black" paint-order="fill stroke markers" d=" M 75 282 L 75 282" stroke-linejoin="bevel" stroke-miterlimit="10"/><path fill="none" stroke="black" paint-order="fill stroke markers" d=" M 75 272 L 75 272" stroke-linejoin="bevel" stroke-miterlimit="10"/><path fill="none" stroke="black" paint-order="fill stroke markers" d=" M 75 263 L 75 263" stroke-linejoin="bevel" stroke-miterlimit="10"/><path fill="none" stroke="black" paint-order="fill stroke markers" d=" M 75 253 L 75 253" stroke-linejoin="bevel" stroke-miterlimit="10"/><path fill="none" stroke="black" paint-order="fill stroke markers" d=" M 75 244 L 75 244" stroke-linejoin="bevel" stroke-miterlimit="10"/><path fill="none" stroke="black" paint-order="fill stroke markers" d=" M 75 235 L 75 235" stroke-linejoin="bevel" stroke-miterlimit="10"/><path fill="none" stroke="black" paint-order="fill stroke markers" d=" M 75 225 L 75 225" stroke-linejoin="bevel" stroke-miterlimit="10"/><path fill="none" stroke="black" paint-order="fill stroke markers" d=" M 75 216 L 75 216" stroke-linejoin="bevel" stroke-miterlimit="10"/><path fill="none" stroke="black" paint-order="fill stroke markers" d=" M 75 206 L 75 206" stroke-linejoin="bevel" stroke-miterlimit="10"/><path fill="none" stroke="black" paint-order="fill stroke markers" d=" M 75 197 L 75 197" stroke-linejoin="bevel" stroke-miterlimit="10"/><path fill="none" stroke="black" paint-order="fill stroke markers" d=" M 75 187 L 75 187" stroke-linejoin="bevel" stroke-miterlimit="10"/><path fill="none" stroke="black" paint-order="fill stroke markers" d=" M 75 178 L 75 178" stroke-linejoin="bevel" stroke-miterlimit="10"/><path fill="none" stroke="black" paint-order="fill stroke markers" d=" M 75 168 L 75 168" stroke-linejoin="bevel" stroke-miterlimit="10"/><path fill="none" stroke="black" paint-order="fill stroke markers" d=" M 75 159 L 75 159" stroke-linejoin="bevel" stroke-miterlimit="10"/><path fill="none" stroke="black" paint-order="fill stroke markers" d=" M 75 150 L 75 150" stroke-linejoin="bevel" stroke-miterlimit="10"/><path fill="none" stroke="black" paint-order="fill stroke markers" d=" M 75 140 L 75 140" stroke-linejoin="bevel" stroke-miterlimit="10"/><path fill="none" stroke="black" paint-order="fill stroke markers" d=" M 75 131 L 75 131" stroke-linejoin="bevel" stroke-miterlimit="10"/><path fill="none" stroke="black" paint-order="fill stroke markers" d=" M 75 121 L 75 121" stroke-linejoin="bevel" stroke-miterlimit="10"/><path fill="none" stroke="black" paint-order="fill stroke markers" d=" M 75 112 L 75 112" stroke-linejoin="bevel" stroke-miterlimit="10"/><path fill="none" stroke="black" paint-order="fill stroke markers" d=" M 75 102 L 75 102" stroke-linejoin="bevel" stroke-miterlimit="10"/><path fill="none" stroke="black" paint-order="fill stroke markers" d=" M 75 93 L 75 93" stroke-linejoin="bevel" stroke-miterlimit="10"/><path fill="none" stroke="black" paint-order="fill stroke markers" d=" M 75 84 L 75 84" stroke-linejoin="bevel" stroke-miterlimit="10"/><path fill="none" stroke="black" paint-order="fill stroke markers" d=" M 75 74 L 75 74" stroke-linejoin="bevel" stroke-miterlimit="10"/><path fill="" stroke="black" paint-order="fill stroke markers" d=" M 75 65 L 75 65" stroke-linejoin="bevel" stroke-miterlimit="10"/><g transform="translate(62,310) rotate(0,0,0)"><text fill="" stroke="none" font-family="helvetica" font-size="13pt" font-style="normal" font-weight="normal" text-decoration="normal" x="0" y="0" text-anchor="end" dominant-baseline="central">0</text><g transform="rotate(0,0,0) translate(-62,-310) translate(62,263) rotate(0,0,0)"><text fill="" stroke="none" font-family="helvetica" font-size="13pt" font-style="normal" font-weight="normal" text-decoration="normal" x="0" y="0" text-anchor="end" dominant-baseline="central">0.1</text><g transform="rotate(0,0,0) translate(-62,-263) translate(62,216) rotate(0,0,0)"><text fill="" stroke="none" font-family="helvetica" font-size="13pt" font-style="normal" font-weight="normal" text-decoration="normal" x="0" y="0" text-anchor="end" dominant-baseline="central">0.2</text><g transform="rotate(0,0,0) translate(-62,-216) translate(62,168) rotate(0,0,0)"><text fill="" stroke="none" font-family="helvetica" font-size="13pt" font-style="normal" font-weight="normal" text-decoration="normal" x="0" y="0" text-anchor="end" dominant-baseline="central">0.3</text><g transform="rotate(0,0,0) translate(-62,-168) translate(62,121) rotate(0,0,0)"><text fill="" stroke="none" font-family="helvetica" font-size="13pt" font-style="normal" font-weight="normal" text-decoration="normal" x="0" y="0" text-anchor="end" dominant-baseline="central">0.4</text><g transform="rotate(0,0,0) translate(-62,-121) translate(62,74) rotate(0,0,0)"><text fill="" stroke="none" font-family="helvetica" font-size="13pt" font-style="normal" font-weight="normal" text-decoration="normal" x="0" y="0" text-anchor="end" dominant-baseline="central">0.5</text><g transform="rotate(0,0,0) translate(-62,-74) translate(24,185) rotate(-90,0,0)"><text fill="" stroke="none" font-family="helvetica" font-size="15pt" font-style="normal" font-weight="normal" text-decoration="normal" x="0" y="0" text-anchor="middle" dominant-baseline="alphabetic">Probability density</text><g transform="rotate(90,0,0) translate(-24,-185)"/></g></g></g></g></g></g></g></g></g><g clip-path="url(#zSXrLsbxkncb)"><g/></g></g></g></svg>