<svg version="1.1" xmlns="http://www.w3.org/2000/svg" xmlns:xlink="http://www.w3.org/1999/xlink" width="495" height="379" style="width: 495px; height: 379px;"><defs><clipPath id="VxJFUrGNVZRM"><path fill="none" stroke="none" d=" M 85 60 L 485 60 L 485 310 L 85 310 L 85 60 Z"/></clipPath><clipPath id="UiTyltpFCGyT"><path fill="none" stroke="none" d=" M 85 60 L 485 60 L 485 310 L 85 310 L 85 60 Z"/></clipPath><clipPath id="qyXphROaJzkv"><path fill="none" stroke="none" d=" M 85 60 L 485 60 L 485 310 L 85 310 L 85 60 Z"/></clipPath><clipPath id="oyVKRsXoRAwm"><path fill="none" stroke="none" d=" M 85 60 L 485 60 L 485 310 L 85 310 L 85 60 Z"/></clipPath><clipPath id="TtbPPGaSytUV"><path fill="none" stroke="none" d=" M 85 60 L 485 60 L 485 310 L 85 310 L 85 60 Z"/></clipPath></defs><g><g/><g/><g/><g transform="scale(1,1) translate(0.5,0.5)"><rect fill="#FFFFFF" stroke="none" x="0" y="0" width="495" height="379"/><rect fill="#ffffff" stroke="none" x="0" y="0" width="495" height="379"/><rect fill="#FFFFFF" stroke="none" x="85" y="60" width="400" height="250"/><rect fill="#ffffff" stroke="none" x="85" y="60" width="400" height="250"/><g clip-path="url(#VxJFUrGNVZRM)"><g><g><path fill="none" stroke="#e5e5e5" paint-order="fill stroke markers" d=" M 199 310 L 199 60" stroke-linejoin="bevel" stroke-miterlimit="10" stroke-opacity="0.9" stroke-dasharray="6,4"/><path fill="none" stroke="#e5e5e5" paint-order="fill stroke markers" d=" M 314 310 L 314 60" stroke-linejoin="bevel" stroke-miterlimit="10" stroke-opacity="0.9" stroke-dasharray="6,4"/><path fill="none" stroke="#e5e5e5" paint-order="fill stroke markers" d=" M 428 310 L 428 60" stroke-linejoin="bevel" stroke-miterlimit="10" stroke-opacity="0.9" stroke-dasharray="6,4"/></g></g></g><g clip-path="url(#UiTyltpFCGyT)"><g><g><path fill="none" stroke="#e5e5e5" paint-order="fill stroke markers" d=" M 85 278 L 485 278" stroke-linejoin="bevel" stroke-miterlimit="10" stroke-opacity="0.9" stroke-dasharray="6,4"/><path fill="none" stroke="#e5e5e5" paint-order="fill stroke markers" d=" M 85 247 L 485 247" stroke-linejoin="bevel" stroke-miterlimit="10" stroke-opacity="0.9" stroke-dasharray="6,4"/><path fill="none" stroke="#e5e5e5" paint-order="fill stroke markers" d=" M 85 215 L 485 215" stroke-linejoin="bevel" stroke-miterlimit="10" stroke-opacity="0.9" stroke-dasharray="6,4"/><path fill="none" stroke="#e5e5e5" paint-order="fill stroke markers" d=" M 85 183 L 485 183" stroke-linejoin="bevel" stroke-miterlimit="10" stroke-opacity="0.9" stroke-dasharray="6,4"/><path fill="none" stroke="#e5e5e5" paint-order="fill stroke markers" d=" M 85 151 L 485 151" stroke-linejoin="bevel" stroke-miterlimit="10" stroke-opacity="0.9" stroke-dasharray="6,4"/><path fill="none" stroke="#e5e5e5" paint-order="fill stroke markers" d=" M 85 120 L 485 120" stroke-linejoin="bevel" stroke-miterlimit="10" stroke-opacity="0.9" stroke-dasharray="6,4"/><path fill="none" stroke="#e5e5e5" paint-order="fill stroke markers" d=" M 85 88 L 485 88" stroke-linejoin="bevel" stroke-miterlimit="10" stroke-opacity="0.9" stroke-dasharray="6,4"/></g></g></g><g clip-path="url(#qyXphROaJzkv)"><g><g><path fill="none" stroke="none"/><path fill="blue" stroke="none" paint-order="stroke fill markers" d=" M 84.99999999999997 310 L 89.04040404040401 310 L 93.08080808080805 310 L 97.1212121212121 310 L 101.16161616161614 310 L 105.20202020202018 310 L 109.24242424242422 310 L 113.28282828282823 310 L 117.3232323232323 310 L 121.36363636363632 310 L 125.40404040404039 310 L 129.4444444444444 310 L 133.48484848484847 310 L 137.52525252525248 310 L 141.56565656565652 310 L 145.60606060606057 310 L 149.64646464646464 310 L 153.68686868686865 310 L 157.7272727272727 310 L 161.76767676767673 310 L 165.8080808080808 310 L 169.84848484848482 310 L 173.88888888888886 310 L 177.9292929292929 310 L 181.96969696969694 310 L 186.01010101010098 310 L 190.05050505050502 310 L 194.09090909090907 310 L 198.1313131313131 310 L 202.17171717171715 310 L 206.2121212121212 310 L 210.25252525252523 310 L 214.29292929292927 310 L 218.33333333333331 310 L 222.37373737373736 310 L 226.4141414141414 310 L 230.45454545454544 310 L 234.49494949494948 310 L 238.53535353535352 310 L 242.57575757575756 310 L 246.6161616161616 310 L 250.65656565656562 310 L 254.6969696969697 310 L 258.73737373737373 310 L 262.77777777777777 310 L 266.8181818181818 310 L 270.85858585858585 310 L 274.8989898989899 310 L 278.9393939393939 310 L 282.979797979798 310 L 287.02020202020196 310 L 291.06060606060606 310 L 295.10101010101005 310 L 299.14141414141415 310 L 303.18181818181813 310 L 307.22222222222223 310 L 311.2626262626262 310 L 315.3030303030303 310 L 319.34343434343435 310 L 323.38383838383834 310 L 327.4242424242424 310 L 331.4646464646464 310 L 335.5050505050505 310 L 339.5454545454545 310 L 343.58585858585855 310 L 347.6262626262626 310 L 351.66666666666663 310 L 355.70707070707067 310 L 359.7474747474747 310 L 363.78787878787875 310 L 367.8282828282828 310 L 371.86868686868684 310 L 375.9090909090909 310 L 379.9494949494949 310 L 383.98989898989896 310 L 388.030303030303 310 L 392.07070707070704 310 L 396.1111111111111 310 L 400.1515151515151 310 L 404.19191919191917 310 L 408.2323232323232 310 L 412.27272727272725 310 L 416.3131313131313 310 L 420.35353535353534 310 L 424.3939393939394 310 L 428.4343434343434 310 L 432.47474747474746 310 L 436.5151515151515 310 L 440.55555555555554 310 L 444.5959595959596 310 L 448.6363636363636 310 L 452.67676767676767 310 L 456.7171717171717 310 L 460.75757575757575 310 L 464.7979797979798 310 L 468.83838383838383 310 L 472.8787878787878 310 L 476.9191919191919 310 L 480.95959595959596 310 L 485 310 L 485 309.99942359393003 L 480.95959595959596 309.9988663748111 L 476.9191919191919 309.9978150803144 L 472.8787878787878 309.9958727947078 L 468.83838383838383 309.99235876783365 L 464.7979797979798 309.986132688051 L 460.75757575757575 309.97532935966393 L 456.7171717171717 309.9569702875663 L 452.67676767676767 309.9264131788807 L 448.6363636363636 309.8765980477349 L 444.5959595959596 309.7970521855852 L 440.55555555555554 309.6726289947061 L 436.5151515151515 309.481980909826 L 432.47474747474746 309.19580700281125 L 428.4343434343434 308.7749723190853 L 424.3939393939394 308.16866659945833 L 420.35353535353534 307.31284892520586 L 416.3131313131313 306.12930153428005 L 412.27272727272725 304.52567569261316 L 408.2323232323232 302.3969369261431 L 404.19191919191917 299.62858715883243 L 400.1515151515151 296.10194107666797 L 396.1111111111111 291.7015539617925 L 392.07070707070704 286.3246400677584 L 388.030303030303 279.89200063331907 L 383.98989898989896 272.359631336549 L 379.9494949494949 263.72984806863906 L 375.9090909090909 254.06051613225313 L 371.86868686868684 243.47085375018798 L 367.8282828282828 232.1423618406207 L 363.78787878787875 220.31374543220198 L 359.7474747474747 208.26924442782072 L 355.70707070707067 196.32054965994962 L 351.66666666666663 184.78336802715546 L 347.6262626262626 173.95060251661786 L 343.58585858585855 164.0648875690171 L 339.5454545454545 155.29372123809978 L 335.5050505050505 147.7105385232223 L 331.4646464646464 141.28469956679913 L 327.4242424242424 135.88251679004065 L 323.38383838383834 131.28019152678291 L 319.34343434343435 127.1880240691871 L 315.3030303030303 123.28370799842475 L 311.2626262626262 119.2511512359957 L 307.22222222222223 114.82029994711348 L 303.18181818181813 109.80304481705468 L 299.14141414141415 104.12055134170413 L 295.10101010101005 97.8182712485816 L 291.06060606060606 91.06635994692402 L 287.02020202020196 84.14506099324535 L 282.979797979798 77.4165801459558 L 278.9393939393939 71.28678912791139 L 274.8989898989899 66.16151262460036 L 270.85858585858585 62.4029470957407 L 266.8181818181818 60.2918009616063 L 262.77777777777777 60.00000000000003 L 258.73737373737373 61.577351855690864 L 254.6969696969697 64.9536029287288 L 250.65656565656562 69.95513176804556 L 246.6161616161616 76.33343681427465 L 242.57575757575756 83.80092136098759 L 238.53535353535352 92.06852402960206 L 234.49494949494948 100.87964831564014 L 230.45454545454544 110.03562620533674 L 226.4141414141414 119.40947352284672 L 222.37373737373736 128.94669297478185 L 218.33333333333331 138.6540057524837 L 214.29292929292927 148.57877650689625 L 210.25252525252523 158.7832233207771 L 206.2121212121212 169.31806886009255 L 202.17171717171715 180.20003396857902 L 198.1313131313131 191.3965970975844 L 194.09090909090907 202.81996646633283 L 190.05050505050502 214.3305376328911 L 186.01010101010098 225.7485504101901 L 181.96969696969694 236.87147871376783 L 177.9292929292929 247.49405055588866 L 173.88888888888886 257.4277487754516 L 169.84848484848482 266.5171170720592 L 165.8080808080808 274.65103472353 L 161.76767676767673 281.76812725554294 L 157.7272727272727 287.8564512614125 L 153.68686868686865 292.9483714385856 L 149.64646464646464 297.1120420791358 L 145.60606060606057 300.4410887449291 L 141.56565656565652 303.0439940711961 L 137.52525252525248 305.03440068100474 L 133.48484848484847 306.5231472769393 L 129.4444444444444 307.61243988118247 L 125.40404040404039 308.3921978724664 L 121.36363636363632 308.9383455693575 L 117.3232323232323 309.31265891858624 L 113.28282828282823 309.5637155942289 L 109.24242424242422 309.72851370310116 L 105.20202020202018 309.83439176812556 L 101.16161616161614 309.90097413360195 L 97.1212121212121 309.94196008949746 L 93.08080808080805 309.9666576469216 L 89.04040404040401 309.98122679089636 L 84.99999999999997 309.98964056713817 Z" fill-opacity="0.5"/><path fill="none" stroke="black" paint-order="fill stroke markers" d=" M 84.99999999999997 310 L 89.04040404040401 310 L 93.08080808080805 310 L 97.1212121212121 310 L 101.16161616161614 310 L 105.20202020202018 310 L 109.24242424242422 310 L 113.28282828282823 310 L 117.3232323232323 310 L 121.36363636363632 310 L 125.40404040404039 310 L 129.4444444444444 310 L 133.48484848484847 310 L 137.52525252525248 310 L 141.56565656565652 310 L 145.60606060606057 310 L 149.64646464646464 310 L 153.68686868686865 310 L 157.7272727272727 310 L 161.76767676767673 310 L 165.8080808080808 310 L 169.84848484848482 310 L 173.88888888888886 310 L 177.9292929292929 310 L 181.96969696969694 310 L 186.01010101010098 310 L 190.05050505050502 310 L 194.09090909090907 310 L 198.1313131313131 310 L 202.17171717171715 310 L 206.2121212121212 310 L 210.25252525252523 310 L 214.29292929292927 310 L 218.33333333333331 310 L 222.37373737373736 310 L 226.4141414141414 310 L 230.45454545454544 310 L 234.49494949494948 310 L 238.53535353535352 310 L 242.57575757575756 310 L 246.6161616161616 310 L 250.65656565656562 310 L 254.6969696969697 310 L 258.73737373737373 310 L 262.77777777777777 310 L 266.8181818181818 310 L 270.85858585858585 310 L 274.8989898989899 310 L 278.9393939393939 310 L 282.979797979798 310 L 287.02020202020196 310 L 291.06060606060606 310 L 295.10101010101005 310 L 299.14141414141415 310 L 303.18181818181813 310 L 307.22222222222223 310 L 311.2626262626262 310 L 315.3030303030303 310 L 319.34343434343435 310 L 323.38383838383834 310 L 327.4242424242424 310 L 331.4646464646464 310 L 335.5050505050505 310 L 339.5454545454545 310 L 343.58585858585855 310 L 347.6262626262626 310 L 351.66666666666663 310 L 355.70707070707067 310 L 359.7474747474747 310 L 363.78787878787875 310 L 367.8282828282828 310 L 371.86868686868684 310 L 375.9090909090909 310 L 379.9494949494949 310 L 383.98989898989896 310 L 388.030303030303 310 L 392.07070707070704 310 L 396.1111111111111 310 L 400.1515151515151 310 L 404.19191919191917 310 L 408.2323232323232 310 L 412.27272727272725 310 L 416.3131313131313 310 L 420.35353535353534 310 L 424.3939393939394 310 L 428.4343434343434 310 L 432.47474747474746 310 L 436.5151515151515 310 L 440.55555555555554 310 L 444.5959595959596 310 L 448.6363636363636 310 L 452.67676767676767 310 L 456.7171717171717 310 L 460.75757575757575 310 L 464.7979797979798 310 L 468.83838383838383 310 L 472.8787878787878 310 L 476.9191919191919 310 L 480.95959595959596 310 L 485 310 L 485 309.99942359393003 L 480.95959595959596 309.9988663748111 L 476.9191919191919 309.9978150803144 L 472.8787878787878 309.9958727947078 L 468.83838383838383 309.99235876783365 L 464.7979797979798 309.986132688051 L 460.75757575757575 309.97532935966393 L 456.7171717171717 309.9569702875663 L 452.67676767676767 309.9264131788807 L 448.6363636363636 309.8765980477349 L 444.5959595959596 309.7970521855852 L 440.55555555555554 309.6726289947061 L 436.5151515151515 309.481980909826 L 432.47474747474746 309.19580700281125 L 428.4343434343434 308.7749723190853 L 424.3939393939394 308.16866659945833 L 420.35353535353534 307.31284892520586 L 416.3131313131313 306.12930153428005 L 412.27272727272725 304.52567569261316 L 408.2323232323232 302.3969369261431 L 404.19191919191917 299.62858715883243 L 400.1515151515151 296.10194107666797 L 396.1111111111111 291.7015539617925 L 392.07070707070704 286.3246400677584 L 388.030303030303 279.89200063331907 L 383.98989898989896 272.359631336549 L 379.9494949494949 263.72984806863906 L 375.9090909090909 254.06051613225313 L 371.86868686868684 243.47085375018798 L 367.8282828282828 232.1423618406207 L 363.78787878787875 220.31374543220198 L 359.7474747474747 208.26924442782072 L 355.70707070707067 196.32054965994962 L 351.66666666666663 184.78336802715546 L 347.6262626262626 173.95060251661786 L 343.58585858585855 164.0648875690171 L 339.5454545454545 155.29372123809978 L 335.5050505050505 147.7105385232223 L 331.4646464646464 141.28469956679913 L 327.4242424242424 135.88251679004065 L 323.38383838383834 131.28019152678291 L 319.34343434343435 127.1880240691871 L 315.3030303030303 123.28370799842475 L 311.2626262626262 119.2511512359957 L 307.22222222222223 114.82029994711348 L 303.18181818181813 109.80304481705468 L 299.14141414141415 104.12055134170413 L 295.10101010101005 97.8182712485816 L 291.06060606060606 91.06635994692402 L 287.02020202020196 84.14506099324535 L 282.979797979798 77.4165801459558 L 278.9393939393939 71.28678912791139 L 274.8989898989899 66.16151262460036 L 270.85858585858585 62.4029470957407 L 266.8181818181818 60.2918009616063 L 262.77777777777777 60.00000000000003 L 258.73737373737373 61.577351855690864 L 254.6969696969697 64.9536029287288 L 250.65656565656562 69.95513176804556 L 246.6161616161616 76.33343681427465 L 242.57575757575756 83.80092136098759 L 238.53535353535352 92.06852402960206 L 234.49494949494948 100.87964831564014 L 230.45454545454544 110.03562620533674 L 226.4141414141414 119.40947352284672 L 222.37373737373736 128.94669297478185 L 218.33333333333331 138.6540057524837 L 214.29292929292927 148.57877650689625 L 210.25252525252523 158.7832233207771 L 206.2121212121212 169.31806886009255 L 202.17171717171715 180.20003396857902 L 198.1313131313131 191.3965970975844 L 194.09090909090907 202.81996646633283 L 190.05050505050502 214.3305376328911 L 186.01010101010098 225.7485504101901 L 181.96969696969694 236.87147871376783 L 177.9292929292929 247.49405055588866 L 173.88888888888886 257.4277487754516 L 169.84848484848482 266.5171170720592 L 165.8080808080808 274.65103472353 L 161.76767676767673 281.76812725554294 L 157.7272727272727 287.8564512614125 L 153.68686868686865 292.9483714385856 L 149.64646464646464 297.1120420791358 L 145.60606060606057 300.4410887449291 L 141.56565656565652 303.0439940711961 L 137.52525252525248 305.03440068100474 L 133.48484848484847 306.5231472769393 L 129.4444444444444 307.61243988118247 L 125.40404040404039 308.3921978724664 L 121.36363636363632 308.9383455693575 L 117.3232323232323 309.31265891858624 L 113.28282828282823 309.5637155942289 L 109.24242424242422 309.72851370310116 L 105.20202020202018 309.83439176812556 L 101.16161616161614 309.90097413360195 L 97.1212121212121 309.94196008949746 L 93.08080808080805 309.9666576469216 L 89.04040404040401 309.98122679089636 L 84.99999999999997 309.98964056713817 Z" stroke-linejoin="bevel" stroke-miterlimit="10"/></g></g></g><g clip-path="url(#oyVKRsXoRAwm)"><g><g><path fill="none" stroke="none"/><path fill="orange" stroke="none" paint-order="stroke fill markers" d=" M 84.99999999999997 310 L 89.04040404040401 310 L 93.08080808080805 310 L 97.1212121212121 310 L 101.16161616161614 310 L 105.20202020202018 310 L 109.24242424242422 310 L 113.28282828282823 310 L 117.3232323232323 310 L 121.36363636363632 310 L 125.40404040404039 310 L 129.4444444444444 310 L 133.48484848484847 310 L 137.52525252525248 310 L 141.56565656565652 310 L 145.60606060606057 310 L 149.64646464646464 310 L 153.68686868686865 310 L 157.7272727272727 310 L 161.76767676767673 310 L 165.8080808080808 310 L 169.84848484848482 310 L 173.88888888888886 310 L 177.9292929292929 310 L 181.96969696969694 310 L 186.01010101010098 310 L 190.05050505050502 310 L 194.09090909090907 310 L 198.1313131313131 310 L 202.17171717171715 310 L 206.2121212121212 310 L 210.25252525252523 310 L 214.29292929292927 310 L 218.33333333333331 310 L 222.37373737373736 310 L 226.4141414141414 310 L 230.45454545454544 310 L 234.49494949494948 310 L 238.53535353535352 310 L 242.57575757575756 310 L 246.6161616161616 310 L 250.65656565656562 310 L 254.6969696969697 310 L 258.73737373737373 310 L 262.77777777777777 310 L 266.8181818181818 310 L 270.85858585858585 310 L 274.8989898989899 310 L 278.9393939393939 310 L 282.979797979798 310 L 287.02020202020196 310 L 291.06060606060606 310 L 295.10101010101005 310 L 299.14141414141415 310 L 303.18181818181813 310 L 307.22222222222223 310 L 311.2626262626262 310 L 315.3030303030303 310 L 319.34343434343435 310 L 323.38383838383834 310 L 327.4242424242424 310 L 331.4646464646464 310 L 335.5050505050505 310 L 339.5454545454545 310 L 343.58585858585855 310 L 347.6262626262626 310 L 351.66666666666663 310 L 355.70707070707067 310 L 359.7474747474747 310 L 363.78787878787875 310 L 367.8282828282828 310 L 371.86868686868684 310 L 375.9090909090909 310 L 379.9494949494949 310 L 383.98989898989896 310 L 388.030303030303 310 L 392.07070707070704 310 L 396.1111111111111 310 L 400.1515151515151 310 L 404.19191919191917 310 L 408.2323232323232 310 L 412.27272727272725 310 L 416.3131313131313 310 L 420.35353535353534 310 L 424.3939393939394 310 L 428.4343434343434 310 L 432.47474747474746 310 L 436.5151515151515 310 L 440.55555555555554 310 L 444.5959595959596 310 L 448.6363636363636 310 L 452.67676767676767 310 L 456.7171717171717 310 L 460.75757575757575 310 L 464.7979797979798 310 L 468.83838383838383 310 L 472.8787878787878 310 L 476.9191919191919 310 L 480.95959595959596 310 L 485 310 L 485 307.8021615478738 L 480.95959595959596 307.0357865382508 L 476.9191919191919 306.0825167013479 L 472.8787878787878 304.92513579549063 L 468.83838383838383 303.5532439809695 L 464.7979797979798 301.9648267242057 L 460.75757575757575 300.1667206641724 L 456.7171717171717 298.17349621785934 L 452.67676767676767 296.0044268791321 L 448.6363636363636 293.67848551156175 L 444.5959595959596 291.20767627509025 L 440.55555555555554 288.5894252529885 L 436.5151515151515 285.7991361690862 L 432.47474747474746 282.7842794628222 L 428.4343434343434 279.46143837135617 L 424.3939393939394 275.7175261483002 L 420.35353535353534 271.41590173792116 L 416.3131313131313 266.40739284024903 L 412.27272727272725 260.54538961330826 L 408.2323232323232 253.70334870878548 L 404.19191919191917 245.79241431254908 L 400.1515151515151 236.77657285751917 L 396.1111111111111 226.6829113172014 L 392.07070707070704 215.60516397320345 L 388.030303030303 203.69973158581453 L 383.98989898989896 191.17457217784556 L 379.9494949494949 178.27256418980082 L 375.9090909090909 165.25188428961388 L 371.86868686868684 152.3664158360255 L 367.8282828282828 139.84909193879867 L 363.78787878787875 127.90038576054121 L 359.7474747474747 116.68302870183598 L 355.70707070707067 106.32271064784061 L 351.66666666666663 96.91329651084243 L 347.6262626262626 88.52426500980366 L 343.58585858585855 81.20783688127938 L 339.5454545454545 75.00366757304826 L 335.5050505050505 69.93992970210141 L 331.4646464646464 66.03085798845933 L 327.4242424242424 63.272046120857425 L 323.38383838383834 61.63564314013561 L 319.34343434343435 61.067854570146636 L 315.3030303030303 61.490721298015984 L 311.2626262626262 62.809118144457415 L 307.22222222222223 64.92253615920538 L 303.18181818181813 67.73983792365121 L 299.14141414141415 71.19416132761384 L 295.10101010101005 75.25476663276763 L 291.06060606060606 79.9329896760766 L 287.02020202020196 85.28051003615491 L 282.979797979798 91.37962938109172 L 278.9393939393939 98.32684044114959 L 274.8989898989899 106.21229322083522 L 270.85858585858585 115.09854667418597 L 266.8181818181818 125.00208393808333 L 262.77777777777777 135.88048562032404 L 258.73737373737373 147.62706601582804 L 254.6969696969697 160.07344601640074 L 250.65656565656562 172.99925429328192 L 246.6161616161616 186.1471612209019 L 242.57575757575756 199.24090872744438 L 238.53535353535352 212.00393770812704 L 234.49494949494948 224.17655961597393 L 230.45454545454544 235.53022400438442 L 226.4141414141414 245.87812557801286 L 222.37373737373736 255.08201645778752 L 218.33333333333331 263.0555353237152 L 214.29292929292927 269.7645926380047 L 210.25252525252523 275.2253791423503 L 206.2121212121212 279.5004564089516 L 202.17171717171715 282.69322696557265 L 198.1313131313131 284.940947233375 L 194.09090909090907 286.4063961263651 L 190.05050505050502 287.2683686021587 L 186.01010101010098 287.7113136712351 L 181.96969696969694 287.9146375269514 L 177.9292929292929 288.0423842888496 L 173.88888888888886 288.2341273017941 L 169.84848484848482 288.59790474524493 L 165.8080808080808 289.20589227217164 L 161.76767676767673 290.09323254747585 L 157.7272727272727 291.26007777315283 L 153.68686868686865 292.67650952369985 L 149.64646464646464 294.28965135181033 L 145.60606060606057 296.0320464432566 L 141.56565656565652 297.830275896016 L 137.52525252525248 299.612853491294 L 133.48484848484847 301.3166295582055 L 129.4444444444444 302.8912245796864 L 125.40404040404039 304.3013344986397 L 121.36363636363632 305.52704676616577 L 117.3232323232323 306.5625338571169 L 113.28282828282823 307.4136238343832 L 109.24242424242422 308.0947817922164 L 105.20202020202018 308.62598634653557 L 101.16161616161614 309.0298783543723 L 97.1212121212121 309.32942543348486 L 93.08080808080805 309.5462135075412 L 89.04040404040401 309.6993659409508 L 84.99999999999997 309.80501288889985 Z" fill-opacity="0.5"/><path fill="none" stroke="black" paint-order="fill stroke markers" d=" M 84.99999999999997 310 L 89.04040404040401 310 L 93.08080808080805 310 L 97.1212121212121 310 L 101.16161616161614 310 L 105.20202020202018 310 L 109.24242424242422 310 L 113.28282828282823 310 L 117.3232323232323 310 L 121.36363636363632 310 L 125.40404040404039 310 L 129.4444444444444 310 L 133.48484848484847 310 L 137.52525252525248 310 L 141.56565656565652 310 L 145.60606060606057 310 L 149.64646464646464 310 L 153.68686868686865 310 L 157.7272727272727 310 L 161.76767676767673 310 L 165.8080808080808 310 L 169.84848484848482 310 L 173.88888888888886 310 L 177.9292929292929 310 L 181.96969696969694 310 L 186.01010101010098 310 L 190.05050505050502 310 L 194.09090909090907 310 L 198.1313131313131 310 L 202.17171717171715 310 L 206.2121212121212 310 L 210.25252525252523 310 L 214.29292929292927 310 L 218.33333333333331 310 L 222.37373737373736 310 L 226.4141414141414 310 L 230.45454545454544 310 L 234.49494949494948 310 L 238.53535353535352 310 L 242.57575757575756 310 L 246.6161616161616 310 L 250.65656565656562 310 L 254.6969696969697 310 L 258.73737373737373 310 L 262.77777777777777 310 L 266.8181818181818 310 L 270.85858585858585 310 L 274.8989898989899 310 L 278.9393939393939 310 L 282.979797979798 310 L 287.02020202020196 310 L 291.06060606060606 310 L 295.10101010101005 310 L 299.14141414141415 310 L 303.18181818181813 310 L 307.22222222222223 310 L 311.2626262626262 310 L 315.3030303030303 310 L 319.34343434343435 310 L 323.38383838383834 310 L 327.4242424242424 310 L 331.4646464646464 310 L 335.5050505050505 310 L 339.5454545454545 310 L 343.58585858585855 310 L 347.6262626262626 310 L 351.66666666666663 310 L 355.70707070707067 310 L 359.7474747474747 310 L 363.78787878787875 310 L 367.8282828282828 310 L 371.86868686868684 310 L 375.9090909090909 310 L 379.9494949494949 310 L 383.98989898989896 310 L 388.030303030303 310 L 392.07070707070704 310 L 396.1111111111111 310 L 400.1515151515151 310 L 404.19191919191917 310 L 408.2323232323232 310 L 412.27272727272725 310 L 416.3131313131313 310 L 420.35353535353534 310 L 424.3939393939394 310 L 428.4343434343434 310 L 432.47474747474746 310 L 436.5151515151515 310 L 440.55555555555554 310 L 444.5959595959596 310 L 448.6363636363636 310 L 452.67676767676767 310 L 456.7171717171717 310 L 460.75757575757575 310 L 464.7979797979798 310 L 468.83838383838383 310 L 472.8787878787878 310 L 476.9191919191919 310 L 480.95959595959596 310 L 485 310 L 485 307.8021615478738 L 480.95959595959596 307.0357865382508 L 476.9191919191919 306.0825167013479 L 472.8787878787878 304.92513579549063 L 468.83838383838383 303.5532439809695 L 464.7979797979798 301.9648267242057 L 460.75757575757575 300.1667206641724 L 456.7171717171717 298.17349621785934 L 452.67676767676767 296.0044268791321 L 448.6363636363636 293.67848551156175 L 444.5959595959596 291.20767627509025 L 440.55555555555554 288.5894252529885 L 436.5151515151515 285.7991361690862 L 432.47474747474746 282.7842794628222 L 428.4343434343434 279.46143837135617 L 424.3939393939394 275.7175261483002 L 420.35353535353534 271.41590173792116 L 416.3131313131313 266.40739284024903 L 412.27272727272725 260.54538961330826 L 408.2323232323232 253.70334870878548 L 404.19191919191917 245.79241431254908 L 400.1515151515151 236.77657285751917 L 396.1111111111111 226.6829113172014 L 392.07070707070704 215.60516397320345 L 388.030303030303 203.69973158581453 L 383.98989898989896 191.17457217784556 L 379.9494949494949 178.27256418980082 L 375.9090909090909 165.25188428961388 L 371.86868686868684 152.3664158360255 L 367.8282828282828 139.84909193879867 L 363.78787878787875 127.90038576054121 L 359.7474747474747 116.68302870183598 L 355.70707070707067 106.32271064784061 L 351.66666666666663 96.91329651084243 L 347.6262626262626 88.52426500980366 L 343.58585858585855 81.20783688127938 L 339.5454545454545 75.00366757304826 L 335.5050505050505 69.93992970210141 L 331.4646464646464 66.03085798845933 L 327.4242424242424 63.272046120857425 L 323.38383838383834 61.63564314013561 L 319.34343434343435 61.067854570146636 L 315.3030303030303 61.490721298015984 L 311.2626262626262 62.809118144457415 L 307.22222222222223 64.92253615920538 L 303.18181818181813 67.73983792365121 L 299.14141414141415 71.19416132761384 L 295.10101010101005 75.25476663276763 L 291.06060606060606 79.9329896760766 L 287.02020202020196 85.28051003615491 L 282.979797979798 91.37962938109172 L 278.9393939393939 98.32684044114959 L 274.8989898989899 106.21229322083522 L 270.85858585858585 115.09854667418597 L 266.8181818181818 125.00208393808333 L 262.77777777777777 135.88048562032404 L 258.73737373737373 147.62706601582804 L 254.6969696969697 160.07344601640074 L 250.65656565656562 172.99925429328192 L 246.6161616161616 186.1471612209019 L 242.57575757575756 199.24090872744438 L 238.53535353535352 212.00393770812704 L 234.49494949494948 224.17655961597393 L 230.45454545454544 235.53022400438442 L 226.4141414141414 245.87812557801286 L 222.37373737373736 255.08201645778752 L 218.33333333333331 263.0555353237152 L 214.29292929292927 269.7645926380047 L 210.25252525252523 275.2253791423503 L 206.2121212121212 279.5004564089516 L 202.17171717171715 282.69322696557265 L 198.1313131313131 284.940947233375 L 194.09090909090907 286.4063961263651 L 190.05050505050502 287.2683686021587 L 186.01010101010098 287.7113136712351 L 181.96969696969694 287.9146375269514 L 177.9292929292929 288.0423842888496 L 173.88888888888886 288.2341273017941 L 169.84848484848482 288.59790474524493 L 165.8080808080808 289.20589227217164 L 161.76767676767673 290.09323254747585 L 157.7272727272727 291.26007777315283 L 153.68686868686865 292.67650952369985 L 149.64646464646464 294.28965135181033 L 145.60606060606057 296.0320464432566 L 141.56565656565652 297.830275896016 L 137.52525252525248 299.612853491294 L 133.48484848484847 301.3166295582055 L 129.4444444444444 302.8912245796864 L 125.40404040404039 304.3013344986397 L 121.36363636363632 305.52704676616577 L 117.3232323232323 306.5625338571169 L 113.28282828282823 307.4136238343832 L 109.24242424242422 308.0947817922164 L 105.20202020202018 308.62598634653557 L 101.16161616161614 309.0298783543723 L 97.1212121212121 309.32942543348486 L 93.08080808080805 309.5462135075412 L 89.04040404040401 309.6993659409508 L 84.99999999999997 309.80501288889985 Z" stroke-linejoin="bevel" stroke-miterlimit="10"/></g></g></g><g><g/><g><path fill="#ffffff" stroke="#e5e5e5" paint-order="fill stroke markers" d=" M 85 20 L 305.28125 20 L 305.28125 60 L 85 60 L 85 20 Z" fill-opacity="0.95" stroke-linejoin="bevel" stroke-miterlimit="10" stroke-opacity="0.5"/><text fill="#444444" stroke="none" font-family="helvetica" font-size="13pt" font-style="normal" font-weight="normal" text-decoration="normal" x="120" y="40" text-anchor="start" dominant-baseline="central">Arctic</text><rect fill="blue" stroke="none" x="97" y="32" width="16" height="16" fill-opacity="0.5"/><path fill="none" stroke="black" paint-order="fill stroke markers" d=" M 97 32 L 113 32 L 113 48 L 97 48 L 97 32 Z" stroke-linejoin="bevel" stroke-miterlimit="10"/><text fill="#444444" stroke="none" font-family="helvetica" font-size="13pt" font-style="normal" font-weight="normal" text-decoration="normal" x="190.46875" y="40" text-anchor="start" dominant-baseline="central">Outside Arctic</text><rect fill="orange" stroke="none" x="167.46875" y="32" width="16" height="16" fill-opacity="0.5"/><path fill="none" stroke="black" paint-order="fill stroke markers" d=" M 167.46875 32 L 183.46875 32 L 183.46875 48 L 167.46875 48 L 167.46875 32 Z" stroke-linejoin="bevel" stroke-miterlimit="10"/></g></g><g><g/><g><path fill="#ffffff" stroke="#e5e5e5" paint-order="fill stroke markers" d=" M 85 20 L 305.28125 20 L 305.28125 60 L 85 60 L 85 20 Z" fill-opacity="0.95" stroke-linejoin="bevel" stroke-miterlimit="10" stroke-opacity="0.5"/><text fill="#444444" stroke="none" font-family="helvetica" font-size="13pt" font-style="normal" font-weight="normal" text-decoration="normal" x="120" y="40" text-anchor="start" dominant-baseline="central">Arctic</text><rect fill="blue" stroke="none" x="97" y="32" width="16" height="16" fill-opacity="0.5"/><path fill="none" stroke="black" paint-order="fill stroke markers" d=" M 97 32 L 113 32 L 113 48 L 97 48 L 97 32 Z" stroke-linejoin="bevel" stroke-miterlimit="10"/><text fill="#444444" stroke="none" font-family="helvetica" font-size="13pt" font-style="normal" font-weight="normal" text-decoration="normal" x="190.46875" y="40" text-anchor="start" dominant-baseline="central">Outside Arctic</text><rect fill="orange" stroke="none" x="167.46875" y="32" width="16" height="16" fill-opacity="0.5"/><path fill="none" stroke="black" paint-order="fill stroke markers" d=" M 167.46875 32 L 183.46875 32 L 183.46875 48 L 167.46875 48 L 167.46875 32 Z" stroke-linejoin="bevel" stroke-miterlimit="10"/></g></g><g/><g><g fill="black"><path fill="none" stroke="black" paint-order="fill stroke markers" d=" M 85 310 L 485 310" stroke-linejoin="bevel" stroke-miterlimit="10" stroke-width="2"/><path fill="none" stroke="black" paint-order="fill stroke markers" d=" M 199 318 L 199 310" stroke-linejoin="bevel" stroke-miterlimit="10" stroke-width="2"/><path fill="none" stroke="black" paint-order="fill stroke markers" d=" M 314 318 L 314 310" stroke-linejoin="bevel" stroke-miterlimit="10" stroke-width="2"/><path fill="" stroke="black" paint-order="fill stroke markers" d=" M 428 318 L 428 310" stroke-linejoin="bevel" stroke-miterlimit="10" stroke-width="2"/><g transform="translate(199,323) rotate(0,0,0)"><text fill="" stroke="none" font-family="helvetica" font-size="13pt" font-style="normal" font-weight="normal" text-decoration="normal" x="0" y="0" text-anchor="middle" dominant-baseline="hanging">0.01</text><g transform="rotate(0,0,0) translate(-199,-323) translate(314,323) rotate(0,0,0)"><text fill="" stroke="none" font-family="helvetica" font-size="13pt" font-style="normal" font-weight="normal" text-decoration="normal" x="0" y="0" text-anchor="middle" dominant-baseline="hanging">1</text><g transform="rotate(0,0,0) translate(-314,-323) translate(428,323) rotate(0,0,0)"><text fill="" stroke="none" font-family="helvetica" font-size="13pt" font-style="normal" font-weight="normal" text-decoration="normal" x="0" y="0" text-anchor="middle" dominant-baseline="hanging">100</text><g transform="rotate(0,0,0) translate(-428,-323) translate(285,355) rotate(0,0,0)"><text fill="" stroke="none" font-family="helvetica" font-size="15pt" font-style="normal" font-weight="normal" text-decoration="normal" x="0" y="0" text-anchor="middle" dominant-baseline="hanging">Nitrate flux (mmol m⁻² d⁻¹)</text><g transform="rotate(0,0,0) translate(-285,-355)"/></g></g></g></g></g></g><g><g fill="black"><path fill="none" stroke="black" paint-order="fill stroke markers" d=" M 85 310 L 85 60" stroke-linejoin="bevel" stroke-miterlimit="10" stroke-width="2"/><path fill="none" stroke="black" paint-order="fill stroke markers" d=" M 77 310 L 85 310" stroke-linejoin="bevel" stroke-miterlimit="10" stroke-width="2"/><path fill="none" stroke="black" paint-order="fill stroke markers" d=" M 77 278 L 85 278" stroke-linejoin="bevel" stroke-miterlimit="10" stroke-width="2"/><path fill="none" stroke="black" paint-order="fill stroke markers" d=" M 77 247 L 85 247" stroke-linejoin="bevel" stroke-miterlimit="10" stroke-width="2"/><path fill="none" stroke="black" paint-order="fill stroke markers" d=" M 77 215 L 85 215" stroke-linejoin="bevel" stroke-miterlimit="10" stroke-width="2"/><path fill="none" stroke="black" paint-order="fill stroke markers" d=" M 77 183 L 85 183" stroke-linejoin="bevel" stroke-miterlimit="10" stroke-width="2"/><path fill="none" stroke="black" paint-order="fill stroke markers" d=" M 77 151 L 85 151" stroke-linejoin="bevel" stroke-miterlimit="10" stroke-width="2"/><path fill="none" stroke="black" paint-order="fill stroke markers" d=" M 77 120 L 85 120" stroke-linejoin="bevel" stroke-miterlimit="10" stroke-width="2"/><path fill="none" stroke="black" paint-order="fill stroke markers" d=" M 77 88 L 85 88" stroke-linejoin="bevel" stroke-miterlimit="10" stroke-width="2"/><path fill="none" stroke="black" paint-order="fill stroke markers" d=" M 85 310 L 85 310" stroke-linejoin="bevel" stroke-miterlimit="10"/><path fill="none" stroke="black" paint-order="fill stroke markers" d=" M 85 304 L 85 304" stroke-linejoin="bevel" stroke-miterlimit="10"/><path fill="none" stroke="black" paint-order="fill stroke markers" d=" M 85 297 L 85 297" stroke-linejoin="bevel" stroke-miterlimit="10"/><path fill="none" stroke="black" paint-order="fill stroke markers" d=" M 85 291 L 85 291" stroke-linejoin="bevel" stroke-miterlimit="10"/><path fill="none" stroke="black" paint-order="fill stroke markers" d=" M 85 285 L 85 285" stroke-linejoin="bevel" stroke-miterlimit="10"/><path fill="none" stroke="black" paint-order="fill stroke markers" d=" M 85 278 L 85 278" stroke-linejoin="bevel" stroke-miterlimit="10"/><path fill="none" stroke="black" paint-order="fill stroke markers" d=" M 85 272 L 85 272" stroke-linejoin="bevel" stroke-miterlimit="10"/><path fill="none" stroke="black" paint-order="fill stroke markers" d=" M 85 266 L 85 266" stroke-linejoin="bevel" stroke-miterlimit="10"/><path fill="none" stroke="black" paint-order="fill stroke markers" d=" M 85 259 L 85 259" stroke-linejoin="bevel" stroke-miterlimit="10"/><path fill="none" stroke="black" paint-order="fill stroke markers" d=" M 85 253 L 85 253" stroke-linejoin="bevel" stroke-miterlimit="10"/><path fill="none" stroke="black" paint-order="fill stroke markers" d=" M 85 247 L 85 247" stroke-linejoin="bevel" stroke-miterlimit="10"/><path fill="none" stroke="black" paint-order="fill stroke markers" d=" M 85 240 L 85 240" stroke-linejoin="bevel" stroke-miterlimit="10"/><path fill="none" stroke="black" paint-order="fill stroke markers" d=" M 85 234 L 85 234" stroke-linejoin="bevel" stroke-miterlimit="10"/><path fill="none" stroke="black" paint-order="fill stroke markers" d=" M 85 228 L 85 228" stroke-linejoin="bevel" stroke-miterlimit="10"/><path fill="none" stroke="black" paint-order="fill stroke markers" d=" M 85 221 L 85 221" stroke-linejoin="bevel" stroke-miterlimit="10"/><path fill="none" stroke="black" paint-order="fill stroke markers" d=" M 85 215 L 85 215" stroke-linejoin="bevel" stroke-miterlimit="10"/><path fill="none" stroke="black" paint-order="fill stroke markers" d=" M 85 209 L 85 209" stroke-linejoin="bevel" stroke-miterlimit="10"/><path fill="none" stroke="black" paint-order="fill stroke markers" d=" M 85 202 L 85 202" stroke-linejoin="bevel" stroke-miterlimit="10"/><path fill="none" stroke="black" paint-order="fill stroke markers" d=" M 85 196 L 85 196" stroke-linejoin="bevel" stroke-miterlimit="10"/><path fill="none" stroke="black" paint-order="fill stroke markers" d=" M 85 190 L 85 190" stroke-linejoin="bevel" stroke-miterlimit="10"/><path fill="none" stroke="black" paint-order="fill stroke markers" d=" M 85 183 L 85 183" stroke-linejoin="bevel" stroke-miterlimit="10"/><path fill="none" stroke="black" paint-order="fill stroke markers" d=" M 85 177 L 85 177" stroke-linejoin="bevel" stroke-miterlimit="10"/><path fill="none" stroke="black" paint-order="fill stroke markers" d=" M 85 170 L 85 170" stroke-linejoin="bevel" stroke-miterlimit="10"/><path fill="none" stroke="black" paint-order="fill stroke markers" d=" M 85 164 L 85 164" stroke-linejoin="bevel" stroke-miterlimit="10"/><path fill="none" stroke="black" paint-order="fill stroke markers" d=" M 85 158 L 85 158" stroke-linejoin="bevel" stroke-miterlimit="10"/><path fill="none" stroke="black" paint-order="fill stroke markers" d=" M 85 151 L 85 151" stroke-linejoin="bevel" stroke-miterlimit="10"/><path fill="none" stroke="black" paint-order="fill stroke markers" d=" M 85 145 L 85 145" stroke-linejoin="bevel" stroke-miterlimit="10"/><path fill="none" stroke="black" paint-order="fill stroke markers" d=" M 85 139 L 85 139" stroke-linejoin="bevel" stroke-miterlimit="10"/><path fill="none" stroke="black" paint-order="fill stroke markers" d=" M 85 132 L 85 132" stroke-linejoin="bevel" stroke-miterlimit="10"/><path fill="none" stroke="black" paint-order="fill stroke markers" d=" M 85 126 L 85 126" stroke-linejoin="bevel" stroke-miterlimit="10"/><path fill="none" stroke="black" paint-order="fill stroke markers" d=" M 85 120 L 85 120" stroke-linejoin="bevel" stroke-miterlimit="10"/><path fill="none" stroke="black" paint-order="fill stroke markers" d=" M 85 113 L 85 113" stroke-linejoin="bevel" stroke-miterlimit="10"/><path fill="none" stroke="black" paint-order="fill stroke markers" d=" M 85 107 L 85 107" stroke-linejoin="bevel" stroke-miterlimit="10"/><path fill="none" stroke="black" paint-order="fill stroke markers" d=" M 85 101 L 85 101" stroke-linejoin="bevel" stroke-miterlimit="10"/><path fill="none" stroke="black" paint-order="fill stroke markers" d=" M 85 94 L 85 94" stroke-linejoin="bevel" stroke-miterlimit="10"/><path fill="none" stroke="black" paint-order="fill stroke markers" d=" M 85 88 L 85 88" stroke-linejoin="bevel" stroke-miterlimit="10"/><path fill="none" stroke="black" paint-order="fill stroke markers" d=" M 85 82 L 85 82" stroke-linejoin="bevel" stroke-miterlimit="10"/><path fill="none" stroke="black" paint-order="fill stroke markers" d=" M 85 75 L 85 75" stroke-linejoin="bevel" stroke-miterlimit="10"/><path fill="none" stroke="black" paint-order="fill stroke markers" d=" M 85 69 L 85 69" stroke-linejoin="bevel" stroke-miterlimit="10"/><path fill="" stroke="black" paint-order="fill stroke markers" d=" M 85 63 L 85 63" stroke-linejoin="bevel" stroke-miterlimit="10"/><g transform="translate(72,310) rotate(0,0,0)"><text fill="" stroke="none" font-family="helvetica" font-size="13pt" font-style="normal" font-weight="normal" text-decoration="normal" x="0" y="0" text-anchor="end" dominant-baseline="central">0</text><g transform="rotate(0,0,0) translate(-72,-310) translate(72,278) rotate(0,0,0)"><text fill="" stroke="none" font-family="helvetica" font-size="13pt" font-style="normal" font-weight="normal" text-decoration="normal" x="0" y="0" text-anchor="end" dominant-baseline="central">0.05</text><g transform="rotate(0,0,0) translate(-72,-278) translate(72,247) rotate(0,0,0)"><text fill="" stroke="none" font-family="helvetica" font-size="13pt" font-style="normal" font-weight="normal" text-decoration="normal" x="0" y="0" text-anchor="end" dominant-baseline="central">0.1</text><g transform="rotate(0,0,0) translate(-72,-247) translate(72,215) rotate(0,0,0)"><text fill="" stroke="none" font-family="helvetica" font-size="13pt" font-style="normal" font-weight="normal" text-decoration="normal" x="0" y="0" text-anchor="end" dominant-baseline="central">0.15</text><g transform="rotate(0,0,0) translate(-72,-215) translate(72,183) rotate(0,0,0)"><text fill="" stroke="none" font-family="helvetica" font-size="13pt" font-style="normal" font-weight="normal" text-decoration="normal" x="0" y="0" text-anchor="end" dominant-baseline="central">0.2</text><g transform="rotate(0,0,0) translate(-72,-183) translate(72,151) rotate(0,0,0)"><text fill="" stroke="none" font-family="helvetica" font-size="13pt" font-style="normal" font-weight="normal" text-decoration="normal" x="0" y="0" text-anchor="end" dominant-baseline="central">0.25</text><g transform="rotate(0,0,0) translate(-72,-151) translate(72,120) rotate(0,0,0)"><text fill="" stroke="none" font-family="helvetica" font-size="13pt" font-style="normal" font-weight="normal" text-decoration="normal" x="0" y="0" text-anchor="end" dominant-baseline="central">0.3</text><g transform="rotate(0,0,0) translate(-72,-120) translate(72,88) rotate(0,0,0)"><text fill="" stroke="none" font-family="helvetica" font-size="13pt" font-style="normal" font-weight="normal" text-decoration="normal" x="0" y="0" text-anchor="end" dominant-baseline="central">0.35</text><g transform="rotate(0,0,0) translate(-72,-88) translate(24,185) rotate(-90,0,0)"><text fill="" stroke="none" font-family="helvetica" font-size="15pt" font-style="normal" font-weight="normal" text-decoration="normal" x="0" y="0" text-anchor="middle" dominant-baseline="alphabetic">Density</text><g transform="rotate(90,0,0) translate(-24,-185)"/></g></g></g></g></g></g></g></g></g></g></g><g clip-path="url(#TtbPPGaSytUV)"><g/></g></g></g></svg>