<svg version="1.1" xmlns="http://www.w3.org/2000/svg" xmlns:xlink="http://www.w3.org/1999/xlink" width="350" height="350" style="width: 350px; height: 350px;"><defs><clipPath id="gWOtWzImstgx"><path fill="none" stroke="none" d=" M 70 38 L 320 38 L 320 281 L 70 281 L 70 38 Z"/></clipPath><clipPath id="ziWmOkvmDwAt"><path fill="none" stroke="none" d=" M 70 38 L 320 38 L 320 281 L 70 281 L 70 38 Z"/></clipPath><clipPath id="fobVIFdFhMQS"><path fill="none" stroke="none" d=" M 70 38 L 320 38 L 320 281 L 70 281 L 70 38 Z"/></clipPath><clipPath id="iLVCGnwPBDZE"><path fill="none" stroke="none" d=" M 70 38 L 320 38 L 320 281 L 70 281 L 70 38 Z"/></clipPath><clipPath id="noHuPBbTJZMZ"><path fill="none" stroke="none" d=" M 70 38 L 320 38 L 320 281 L 70 281 L 70 38 Z"/></clipPath><clipPath id="VIitbTsCSAlH"><path fill="none" stroke="none" d=" M 70 38 L 320 38 L 320 281 L 70 281 L 70 38 Z"/></clipPath></defs><g><g transform="scale(1,1) translate(0.5,0.5)"><rect fill="#FFFFFF" stroke="none" x="0" y="0" width="350" height="350"/><rect fill="#ffffff" stroke="none" x="0" y="0" width="350" height="350"/><rect fill="#FFFFFF" stroke="none" x="70" y="38" width="250" height="243"/><rect fill="#ffffff" stroke="none" x="70" y="38" width="250" height="243"/><g clip-path="url(#gWOtWzImstgx)"><g><g/></g></g><g clip-path="url(#ziWmOkvmDwAt)"><g><g/></g></g><g clip-path="url(#fobVIFdFhMQS)"><g><g fill="black" stroke="black" stroke-linejoin="bevel" stroke-miterlimit="10"><path fill="none" stroke="none"/><path fill="" stroke="" d=""/><g transform="translate(275.5318211855514,155)"><path fill="" stroke="" paint-order="fill stroke markers" d=" M -5 2.8867513459481287 L 5 2.8867513459481287 L 0 -5.773502691896256 Z"/><g transform="translate(-275.5318211855514,-155)"><path fill="" stroke="" d=""/><g transform="translate(289.1304918962112,92)"><path fill="" stroke="" paint-order="fill stroke markers" d=" M -5 2.8867513459481287 L 5 2.8867513459481287 L 0 -5.773502691896256 Z"/><g transform="translate(-289.1304918962112,-92)"/></g></g></g></g></g></g><g clip-path="url(#iLVCGnwPBDZE)"><g><g fill="black" stroke="black" stroke-linejoin="bevel" stroke-miterlimit="10"><path fill="none" stroke="none"/><path fill="" stroke="" d=""/><g transform="translate(94.44074995994286,263)"><path fill="" stroke="" paint-order="fill stroke markers" d=" M -5 -5 L 5 -5 L 5 5 L -5 5 L -5 -5 Z"/><g transform="translate(-94.44074995994286,-263)"><path fill="" stroke="" d=""/><g transform="translate(108.73767217601153,254)"><path fill="" stroke="" paint-order="fill stroke markers" d=" M -5 -5 L 5 -5 L 5 5 L -5 5 L -5 -5 Z"/><g transform="translate(-108.73767217601153,-254)"><path fill="" stroke="" d=""/><g transform="translate(151.19041395205136,200)"><path fill="" stroke="" paint-order="fill stroke markers" d=" M -5 -5 L 5 -5 L 5 5 L -5 5 L -5 -5 Z"/><g transform="translate(-151.19041395205136,-200)"><path fill="" stroke="" d=""/><g transform="translate(182.0599220558401,200)"><path fill="" stroke="" paint-order="fill stroke markers" d=" M -5 -5 L 5 -5 L 5 5 L -5 5 L -5 -5 Z"/><g transform="translate(-182.0599220558401,-200)"><path fill="" stroke="" d=""/><g transform="translate(200.07191387193708,146)"><path fill="" stroke="" paint-order="fill stroke markers" d=" M -5 -5 L 5 -5 L 5 5 L -5 5 L -5 -5 Z"/><g transform="translate(-200.07191387193708,-146)"/></g></g></g></g></g></g></g></g></g></g></g></g><g clip-path="url(#noHuPBbTJZMZ)"><g><g/><g fill="black" stroke="black" stroke-linejoin="bevel" stroke-miterlimit="10"><path fill="#ffffff" stroke="#e5e5e5" paint-order="fill stroke markers" d=" M 80 48 L 213.78125 48 L 213.78125 111 L 80 111 L 80 48 Z" fill-opacity="0.95" stroke-linejoin="bevel" stroke-miterlimit="10" stroke-opacity="0.5"/><text fill="#444444" stroke="none" font-family="helvetica" font-size="13pt" font-style="normal" font-weight="normal" text-decoration="normal" x="115" y="68" text-anchor="start" dominant-baseline="central">Overturning</text><path fill="" stroke="" d=""/><g transform="translate(100,68)"><path fill="" stroke="" paint-order="fill stroke markers" d=" M -4 2.309401076758503 L 4 2.309401076758503 L 0 -4.618802153517006 Z"/><g transform="translate(-100,-68)"><text fill="" stroke="none" font-family="helvetica" font-size="13pt" font-style="normal" font-weight="normal" text-decoration="normal" x="115" y="91" text-anchor="start" dominant-baseline="central">Perennial</text><path fill="" stroke="" d=""/><g transform="translate(100,91)"><path fill="" stroke="" paint-order="fill stroke markers" d=" M -4 -4 L 4 -4 L 4 4 L -4 4 L -4 -4 Z"/><g transform="translate(-100,-91)"/></g></g></g></g></g></g><g><g fill="#444444"><path fill="" stroke="none" d=""/><g transform="translate(70,33)"><path fill="none" stroke="none"/><text fill="" stroke="none" font-family="helvetica" font-size="15pt" font-style="normal" font-weight="bold" text-decoration="normal" x="0" y="0" text-anchor="start" dominant-baseline="text-after-edge">A</text></g></g></g><g/><g><g fill="black"><path fill="none" stroke="black" paint-order="fill stroke markers" d=" M 70 281 L 320 281" stroke-linejoin="bevel" stroke-miterlimit="10" stroke-width="2"/><path fill="none" stroke="black" paint-order="fill stroke markers" d=" M 94 289 L 94 281" stroke-linejoin="bevel" stroke-miterlimit="10" stroke-width="2"/><path fill="none" stroke="black" paint-order="fill stroke markers" d=" M 176 289 L 176 281" stroke-linejoin="bevel" stroke-miterlimit="10" stroke-width="2"/><path fill="none" stroke="black" paint-order="fill stroke markers" d=" M 257 289 L 257 281" stroke-linejoin="bevel" stroke-miterlimit="10" stroke-width="2"/><path fill="none" stroke="black" paint-order="fill stroke markers" d=" M 70 281 L 70 281" stroke-linejoin="bevel" stroke-miterlimit="10"/><path fill="none" stroke="black" paint-order="fill stroke markers" d=" M 76 281 L 76 281" stroke-linejoin="bevel" stroke-miterlimit="10"/><path fill="none" stroke="black" paint-order="fill stroke markers" d=" M 82 281 L 82 281" stroke-linejoin="bevel" stroke-miterlimit="10"/><path fill="none" stroke="black" paint-order="fill stroke markers" d=" M 87 281 L 87 281" stroke-linejoin="bevel" stroke-miterlimit="10"/><path fill="none" stroke="black" paint-order="fill stroke markers" d=" M 91 281 L 91 281" stroke-linejoin="bevel" stroke-miterlimit="10"/><path fill="none" stroke="black" paint-order="fill stroke markers" d=" M 94 281 L 94 281" stroke-linejoin="bevel" stroke-miterlimit="10"/><path fill="none" stroke="black" paint-order="fill stroke markers" d=" M 94 281 L 94 281" stroke-linejoin="bevel" stroke-miterlimit="10"/><path fill="none" stroke="black" paint-order="fill stroke markers" d=" M 119 281 L 119 281" stroke-linejoin="bevel" stroke-miterlimit="10"/><path fill="none" stroke="black" paint-order="fill stroke markers" d=" M 133 281 L 133 281" stroke-linejoin="bevel" stroke-miterlimit="10"/><path fill="none" stroke="black" paint-order="fill stroke markers" d=" M 143 281 L 143 281" stroke-linejoin="bevel" stroke-miterlimit="10"/><path fill="none" stroke="black" paint-order="fill stroke markers" d=" M 151 281 L 151 281" stroke-linejoin="bevel" stroke-miterlimit="10"/><path fill="none" stroke="black" paint-order="fill stroke markers" d=" M 158 281 L 158 281" stroke-linejoin="bevel" stroke-miterlimit="10"/><path fill="none" stroke="black" paint-order="fill stroke markers" d=" M 163 281 L 163 281" stroke-linejoin="bevel" stroke-miterlimit="10"/><path fill="none" stroke="black" paint-order="fill stroke markers" d=" M 168 281 L 168 281" stroke-linejoin="bevel" stroke-miterlimit="10"/><path fill="none" stroke="black" paint-order="fill stroke markers" d=" M 172 281 L 172 281" stroke-linejoin="bevel" stroke-miterlimit="10"/><path fill="none" stroke="black" paint-order="fill stroke markers" d=" M 176 281 L 176 281" stroke-linejoin="bevel" stroke-miterlimit="10"/><path fill="none" stroke="black" paint-order="fill stroke markers" d=" M 176 281 L 176 281" stroke-linejoin="bevel" stroke-miterlimit="10"/><path fill="none" stroke="black" paint-order="fill stroke markers" d=" M 200 281 L 200 281" stroke-linejoin="bevel" stroke-miterlimit="10"/><path fill="none" stroke="black" paint-order="fill stroke markers" d=" M 214 281 L 214 281" stroke-linejoin="bevel" stroke-miterlimit="10"/><path fill="none" stroke="black" paint-order="fill stroke markers" d=" M 225 281 L 225 281" stroke-linejoin="bevel" stroke-miterlimit="10"/><path fill="none" stroke="black" paint-order="fill stroke markers" d=" M 232 281 L 232 281" stroke-linejoin="bevel" stroke-miterlimit="10"/><path fill="none" stroke="black" paint-order="fill stroke markers" d=" M 239 281 L 239 281" stroke-linejoin="bevel" stroke-miterlimit="10"/><path fill="none" stroke="black" paint-order="fill stroke markers" d=" M 244 281 L 244 281" stroke-linejoin="bevel" stroke-miterlimit="10"/><path fill="none" stroke="black" paint-order="fill stroke markers" d=" M 249 281 L 249 281" stroke-linejoin="bevel" stroke-miterlimit="10"/><path fill="none" stroke="black" paint-order="fill stroke markers" d=" M 253 281 L 253 281" stroke-linejoin="bevel" stroke-miterlimit="10"/><path fill="none" stroke="black" paint-order="fill stroke markers" d=" M 257 281 L 257 281" stroke-linejoin="bevel" stroke-miterlimit="10"/><path fill="none" stroke="black" paint-order="fill stroke markers" d=" M 257 281 L 257 281" stroke-linejoin="bevel" stroke-miterlimit="10"/><path fill="none" stroke="black" paint-order="fill stroke markers" d=" M 281 281 L 281 281" stroke-linejoin="bevel" stroke-miterlimit="10"/><path fill="none" stroke="black" paint-order="fill stroke markers" d=" M 296 281 L 296 281" stroke-linejoin="bevel" stroke-miterlimit="10"/><path fill="none" stroke="black" paint-order="fill stroke markers" d=" M 306 281 L 306 281" stroke-linejoin="bevel" stroke-miterlimit="10"/><path fill="none" stroke="black" paint-order="fill stroke markers" d=" M 314 281 L 314 281" stroke-linejoin="bevel" stroke-miterlimit="10"/><path fill="" stroke="black" paint-order="fill stroke markers" d=" M 320 281 L 320 281" stroke-linejoin="bevel" stroke-miterlimit="10"/><g transform="translate(94,294) rotate(0,0,0)"><text fill="" stroke="none" font-family="helvetica" font-size="13pt" font-style="normal" font-weight="normal" text-decoration="normal" x="0" y="0" text-anchor="middle" dominant-baseline="hanging">0.01</text><g transform="rotate(0,0,0) translate(-94,-294) translate(176,294) rotate(0,0,0)"><text fill="" stroke="none" font-family="helvetica" font-size="13pt" font-style="normal" font-weight="normal" text-decoration="normal" x="0" y="0" text-anchor="middle" dominant-baseline="hanging">0.1</text><g transform="rotate(0,0,0) translate(-176,-294) translate(257,294) rotate(0,0,0)"><text fill="" stroke="none" font-family="helvetica" font-size="13pt" font-style="normal" font-weight="normal" text-decoration="normal" x="0" y="0" text-anchor="middle" dominant-baseline="hanging">1</text><g transform="rotate(0,0,0) translate(-257,-294) translate(195,326) rotate(0,0,0)"><text fill="" stroke="none" font-family="helvetica" font-size="15pt" font-style="normal" font-weight="normal" text-decoration="normal" x="0" y="0" text-anchor="middle" dominant-baseline="hanging">Nitrate flux (mmol N m⁻² d⁻¹)</text><g transform="rotate(0,0,0) translate(-195,-326)"/></g></g></g></g></g></g><g><g fill="black"><path fill="none" stroke="black" paint-order="fill stroke markers" d=" M 70 281 L 70 38" stroke-linejoin="bevel" stroke-miterlimit="10" stroke-width="2"/><path fill="none" stroke="black" paint-order="fill stroke markers" d=" M 62 272 L 70 272" stroke-linejoin="bevel" stroke-miterlimit="10" stroke-width="2"/><path fill="none" stroke="black" paint-order="fill stroke markers" d=" M 62 236 L 70 236" stroke-linejoin="bevel" stroke-miterlimit="10" stroke-width="2"/><path fill="none" stroke="black" paint-order="fill stroke markers" d=" M 62 200 L 70 200" stroke-linejoin="bevel" stroke-miterlimit="10" stroke-width="2"/><path fill="none" stroke="black" paint-order="fill stroke markers" d=" M 62 164 L 70 164" stroke-linejoin="bevel" stroke-miterlimit="10" stroke-width="2"/><path fill="none" stroke="black" paint-order="fill stroke markers" d=" M 62 128 L 70 128" stroke-linejoin="bevel" stroke-miterlimit="10" stroke-width="2"/><path fill="none" stroke="black" paint-order="fill stroke markers" d=" M 62 92 L 70 92" stroke-linejoin="bevel" stroke-miterlimit="10" stroke-width="2"/><path fill="none" stroke="black" paint-order="fill stroke markers" d=" M 62 56 L 70 56" stroke-linejoin="bevel" stroke-miterlimit="10" stroke-width="2"/><path fill="none" stroke="black" paint-order="fill stroke markers" d=" M 70 279 L 70 279" stroke-linejoin="bevel" stroke-miterlimit="10"/><path fill="none" stroke="black" paint-order="fill stroke markers" d=" M 70 272 L 70 272" stroke-linejoin="bevel" stroke-miterlimit="10"/><path fill="none" stroke="black" paint-order="fill stroke markers" d=" M 70 265 L 70 265" stroke-linejoin="bevel" stroke-miterlimit="10"/><path fill="none" stroke="black" paint-order="fill stroke markers" d=" M 70 258 L 70 258" stroke-linejoin="bevel" stroke-miterlimit="10"/><path fill="none" stroke="black" paint-order="fill stroke markers" d=" M 70 250 L 70 250" stroke-linejoin="bevel" stroke-miterlimit="10"/><path fill="none" stroke="black" paint-order="fill stroke markers" d=" M 70 243 L 70 243" stroke-linejoin="bevel" stroke-miterlimit="10"/><path fill="none" stroke="black" paint-order="fill stroke markers" d=" M 70 236 L 70 236" stroke-linejoin="bevel" stroke-miterlimit="10"/><path fill="none" stroke="black" paint-order="fill stroke markers" d=" M 70 229 L 70 229" stroke-linejoin="bevel" stroke-miterlimit="10"/><path fill="none" stroke="black" paint-order="fill stroke markers" d=" M 70 222 L 70 222" stroke-linejoin="bevel" stroke-miterlimit="10"/><path fill="none" stroke="black" paint-order="fill stroke markers" d=" M 70 214 L 70 214" stroke-linejoin="bevel" stroke-miterlimit="10"/><path fill="none" stroke="black" paint-order="fill stroke markers" d=" M 70 207 L 70 207" stroke-linejoin="bevel" stroke-miterlimit="10"/><path fill="none" stroke="black" paint-order="fill stroke markers" d=" M 70 200 L 70 200" stroke-linejoin="bevel" stroke-miterlimit="10"/><path fill="none" stroke="black" paint-order="fill stroke markers" d=" M 70 193 L 70 193" stroke-linejoin="bevel" stroke-miterlimit="10"/><path fill="none" stroke="black" paint-order="fill stroke markers" d=" M 70 186 L 70 186" stroke-linejoin="bevel" stroke-miterlimit="10"/><path fill="none" stroke="black" paint-order="fill stroke markers" d=" M 70 178 L 70 178" stroke-linejoin="bevel" stroke-miterlimit="10"/><path fill="none" stroke="black" paint-order="fill stroke markers" d=" M 70 171 L 70 171" stroke-linejoin="bevel" stroke-miterlimit="10"/><path fill="none" stroke="black" paint-order="fill stroke markers" d=" M 70 164 L 70 164" stroke-linejoin="bevel" stroke-miterlimit="10"/><path fill="none" stroke="black" paint-order="fill stroke markers" d=" M 70 157 L 70 157" stroke-linejoin="bevel" stroke-miterlimit="10"/><path fill="none" stroke="black" paint-order="fill stroke markers" d=" M 70 150 L 70 150" stroke-linejoin="bevel" stroke-miterlimit="10"/><path fill="none" stroke="black" paint-order="fill stroke markers" d=" M 70 142 L 70 142" stroke-linejoin="bevel" stroke-miterlimit="10"/><path fill="none" stroke="black" paint-order="fill stroke markers" d=" M 70 135 L 70 135" stroke-linejoin="bevel" stroke-miterlimit="10"/><path fill="none" stroke="black" paint-order="fill stroke markers" d=" M 70 128 L 70 128" stroke-linejoin="bevel" stroke-miterlimit="10"/><path fill="none" stroke="black" paint-order="fill stroke markers" d=" M 70 121 L 70 121" stroke-linejoin="bevel" stroke-miterlimit="10"/><path fill="none" stroke="black" paint-order="fill stroke markers" d=" M 70 114 L 70 114" stroke-linejoin="bevel" stroke-miterlimit="10"/><path fill="none" stroke="black" paint-order="fill stroke markers" d=" M 70 106 L 70 106" stroke-linejoin="bevel" stroke-miterlimit="10"/><path fill="none" stroke="black" paint-order="fill stroke markers" d=" M 70 99 L 70 99" stroke-linejoin="bevel" stroke-miterlimit="10"/><path fill="none" stroke="black" paint-order="fill stroke markers" d=" M 70 92 L 70 92" stroke-linejoin="bevel" stroke-miterlimit="10"/><path fill="none" stroke="black" paint-order="fill stroke markers" d=" M 70 85 L 70 85" stroke-linejoin="bevel" stroke-miterlimit="10"/><path fill="none" stroke="black" paint-order="fill stroke markers" d=" M 70 78 L 70 78" stroke-linejoin="bevel" stroke-miterlimit="10"/><path fill="none" stroke="black" paint-order="fill stroke markers" d=" M 70 70 L 70 70" stroke-linejoin="bevel" stroke-miterlimit="10"/><path fill="none" stroke="black" paint-order="fill stroke markers" d=" M 70 63 L 70 63" stroke-linejoin="bevel" stroke-miterlimit="10"/><path fill="none" stroke="black" paint-order="fill stroke markers" d=" M 70 56 L 70 56" stroke-linejoin="bevel" stroke-miterlimit="10"/><path fill="none" stroke="black" paint-order="fill stroke markers" d=" M 70 49 L 70 49" stroke-linejoin="bevel" stroke-miterlimit="10"/><path fill="" stroke="black" paint-order="fill stroke markers" d=" M 70 42 L 70 42" stroke-linejoin="bevel" stroke-miterlimit="10"/><g transform="translate(57,272) rotate(0,0,0)"><text fill="" stroke="none" font-family="helvetica" font-size="13pt" font-style="normal" font-weight="normal" text-decoration="normal" x="0" y="0" text-anchor="end" dominant-baseline="central">0</text><g transform="rotate(0,0,0) translate(-57,-272) translate(57,236) rotate(0,0,0)"><text fill="" stroke="none" font-family="helvetica" font-size="13pt" font-style="normal" font-weight="normal" text-decoration="normal" x="0" y="0" text-anchor="end" dominant-baseline="central">2</text><g transform="rotate(0,0,0) translate(-57,-236) translate(57,200) rotate(0,0,0)"><text fill="" stroke="none" font-family="helvetica" font-size="13pt" font-style="normal" font-weight="normal" text-decoration="normal" x="0" y="0" text-anchor="end" dominant-baseline="central">4</text><g transform="rotate(0,0,0) translate(-57,-200) translate(57,164) rotate(0,0,0)"><text fill="" stroke="none" font-family="helvetica" font-size="13pt" font-style="normal" font-weight="normal" text-decoration="normal" x="0" y="0" text-anchor="end" dominant-baseline="central">6</text><g transform="rotate(0,0,0) translate(-57,-164) translate(57,128) rotate(0,0,0)"><text fill="" stroke="none" font-family="helvetica" font-size="13pt" font-style="normal" font-weight="normal" text-decoration="normal" x="0" y="0" text-anchor="end" dominant-baseline="central">8</text><g transform="rotate(0,0,0) translate(-57,-128) translate(57,92) rotate(0,0,0)"><text fill="" stroke="none" font-family="helvetica" font-size="13pt" font-style="normal" font-weight="normal" text-decoration="normal" x="0" y="0" text-anchor="end" dominant-baseline="central">10</text><g transform="rotate(0,0,0) translate(-57,-92) translate(57,56) rotate(0,0,0)"><text fill="" stroke="none" font-family="helvetica" font-size="13pt" font-style="normal" font-weight="normal" text-decoration="normal" x="0" y="0" text-anchor="end" dominant-baseline="central">12</text><g transform="rotate(0,0,0) translate(-57,-56) translate(24,160) rotate(-90,0,0)"><text fill="" stroke="none" font-family="helvetica" font-size="15pt" font-style="normal" font-weight="normal" text-decoration="normal" x="0" y="0" text-anchor="middle" dominant-baseline="alphabetic">Pre-bloom sfc. NO₃  (µM)</text><g transform="rotate(90,0,0) translate(-24,-160)"/></g></g></g></g></g></g></g></g></g></g><g clip-path="url(#VIitbTsCSAlH)"><g/></g></g></g></svg>