<svg version="1.1" xmlns="http://www.w3.org/2000/svg" xmlns:xlink="http://www.w3.org/1999/xlink" width="800" height="400" style="width: 800px; height: 400px;"><defs><clipPath id="xqqJiQicOWVR"><path fill="none" stroke="none" d=" M 88 10 L 790 10 L 790 241 L 88 241 L 88 10 Z"/></clipPath><clipPath id="duZcZMtNXdNf"><path fill="none" stroke="none" d=" M 88 10 L 790 10 L 790 241 L 88 241 L 88 10 Z"/></clipPath><clipPath id="BPIODTyttPqa"><path fill="none" stroke="none" d=" M 88 10 L 790 10 L 790 241 L 88 241 L 88 10 Z"/></clipPath><clipPath id="tedOBmrTePTJ"><path fill="none" stroke="none" d=" M 88 10 L 790 10 L 790 241 L 88 241 L 88 10 Z"/></clipPath><clipPath id="QBMWQZSpUAdM"><path fill="none" stroke="none" d=" M 88 10 L 790 10 L 790 241 L 88 241 L 88 10 Z"/></clipPath><clipPath id="hoLZVTvsGdHX"><path fill="none" stroke="none" d=" M 88 10 L 790 10 L 790 241 L 88 241 L 88 10 Z"/></clipPath><clipPath id="VcJleUccTFmV"><path fill="none" stroke="none" d=" M 88 10 L 790 10 L 790 241 L 88 241 L 88 10 Z"/></clipPath></defs><g><g transform="scale(1,1) translate(0.5,0.5)"><rect fill="#FFFFFF" stroke="none" x="0" y="0" width="800" height="400"/><rect fill="#ffffff" stroke="none" x="0" y="0" width="800" height="400"/><rect fill="#FFFFFF" stroke="none" x="88" y="10" width="702" height="231"/><rect fill="#ffffff" stroke="none" x="88" y="10" width="702" height="231"/><g clip-path="url(#xqqJiQicOWVR)"><g><g/></g></g><g clip-path="url(#duZcZMtNXdNf)"><g><g/></g></g><g clip-path="url(#BPIODTyttPqa)"><g><g><path fill="none" stroke="none"/><path fill="#AA5F77" stroke="none" paint-order="stroke fill markers" d=" M 135.66666666666669 69.2554330538729 L 170.33333333333331 69.2554330538729 L 170.33333333333331 241 L 135.66666666666669 241 L 135.66666666666669 69.2554330538729 Z"/><path fill="none" stroke="black" paint-order="fill stroke markers" d=" M 135.66666666666669 69.2554330538729 L 170.33333333333331 69.2554330538729 L 170.33333333333331 241 L 135.66666666666669 241 L 135.66666666666669 69.2554330538729 Z" stroke-linejoin="bevel" stroke-miterlimit="10" stroke-width="3"/><path fill="#AA5F77" stroke="none" paint-order="stroke fill markers" d=" M 326.33333333333337 56.35861933225311 L 361 56.35861933225311 L 361 241 L 326.33333333333337 241 L 326.33333333333337 56.35861933225311 Z"/><path fill="none" stroke="black" paint-order="fill stroke markers" d=" M 326.33333333333337 56.35861933225311 L 361 56.35861933225311 L 361 241 L 326.33333333333337 241 L 326.33333333333337 56.35861933225311 Z" stroke-linejoin="bevel" stroke-miterlimit="10" stroke-width="3"/><path fill="#AA5F77" stroke="none" paint-order="stroke fill markers" d=" M 517 157.9030440543329 L 551.6666666666667 157.9030440543329 L 551.6666666666667 241 L 517 241 L 517 157.9030440543329 Z"/><path fill="none" stroke="black" paint-order="fill stroke markers" d=" M 517 157.9030440543329 L 551.6666666666667 157.9030440543329 L 551.6666666666667 241 L 517 241 L 517 157.9030440543329 Z" stroke-linejoin="bevel" stroke-miterlimit="10" stroke-width="3"/><path fill="#AA5F77" stroke="none" paint-order="stroke fill markers" d=" M 707.6666666666667 233.53792899837967 L 742.3333333333335 233.53792899837967 L 742.3333333333335 241 L 707.6666666666667 241 L 707.6666666666667 233.53792899837967 Z"/><path fill="none" stroke="black" paint-order="fill stroke markers" d=" M 707.6666666666667 233.53792899837967 L 742.3333333333335 233.53792899837967 L 742.3333333333335 241 L 707.6666666666667 241 L 707.6666666666667 233.53792899837967 Z" stroke-linejoin="bevel" stroke-miterlimit="10" stroke-width="3"/><path fill="#2DA3A2" stroke="none" paint-order="stroke fill markers" d=" M 179 132.93080758482301 L 213.66666666666669 132.93080758482301 L 213.66666666666669 241 L 179 241 L 179 132.93080758482301 Z"/><path fill="none" stroke="black" paint-order="fill stroke markers" d=" M 179 132.93080758482301 L 213.66666666666669 132.93080758482301 L 213.66666666666669 241 L 179 241 L 179 132.93080758482301 Z" stroke-linejoin="bevel" stroke-miterlimit="10" stroke-width="3"/><path fill="#2DA3A2" stroke="none" paint-order="stroke fill markers" d=" M 369.66666666666674 53.400244601869446 L 404.33333333333337 53.400244601869446 L 404.33333333333337 241 L 369.66666666666674 241 L 369.66666666666674 53.400244601869446 Z"/><path fill="none" stroke="black" paint-order="fill stroke markers" d=" M 369.66666666666674 53.400244601869446 L 404.33333333333337 53.400244601869446 L 404.33333333333337 241 L 369.66666666666674 241 L 369.66666666666674 53.400244601869446 Z" stroke-linejoin="bevel" stroke-miterlimit="10" stroke-width="3"/><path fill="#2DA3A2" stroke="none" paint-order="stroke fill markers" d=" M 560.3333333333335 165.44063241551515 L 595 165.44063241551515 L 595 241 L 560.3333333333335 241 L 560.3333333333335 165.44063241551515 Z"/><path fill="none" stroke="black" paint-order="fill stroke markers" d=" M 560.3333333333335 165.44063241551515 L 595 165.44063241551515 L 595 241 L 560.3333333333335 241 L 560.3333333333335 165.44063241551515 Z" stroke-linejoin="bevel" stroke-miterlimit="10" stroke-width="3"/><path fill="#2DA3A2" stroke="none" paint-order="stroke fill markers" d=" M 751 220.6459174186046 L 785.6666666666667 220.6459174186046 L 785.6666666666667 241 L 751 241 L 751 220.6459174186046 Z"/><path fill="none" stroke="black" paint-order="fill stroke markers" d=" M 751 220.6459174186046 L 785.6666666666667 220.6459174186046 L 785.6666666666667 241 L 751 241 L 751 220.6459174186046 Z" stroke-linejoin="bevel" stroke-miterlimit="10" stroke-width="3"/><path fill="#D6AE4A" stroke="none" paint-order="stroke fill markers" d=" M 92.33333333333334 78.42441185466245 L 127 78.42441185466245 L 127 241 L 92.33333333333334 241 L 92.33333333333334 78.42441185466245 Z"/><path fill="none" stroke="black" paint-order="fill stroke markers" d=" M 92.33333333333334 78.42441185466245 L 127 78.42441185466245 L 127 241 L 92.33333333333334 241 L 92.33333333333334 78.42441185466245 Z" stroke-linejoin="bevel" stroke-miterlimit="10" stroke-width="3"/><path fill="#D6AE4A" stroke="none" paint-order="stroke fill markers" d=" M 283 66.23049996332821 L 317.66666666666674 66.23049996332821 L 317.66666666666674 241 L 283 241 L 283 66.23049996332821 Z"/><path fill="none" stroke="black" paint-order="fill stroke markers" d=" M 283 66.23049996332821 L 317.66666666666674 66.23049996332821 L 317.66666666666674 241 L 283 241 L 283 66.23049996332821 Z" stroke-linejoin="bevel" stroke-miterlimit="10" stroke-width="3"/><path fill="#D6AE4A" stroke="none" paint-order="stroke fill markers" d=" M 473.6666666666667 116.52786352402967 L 508.3333333333334 116.52786352402967 L 508.3333333333334 241 L 473.6666666666667 241 L 473.6666666666667 116.52786352402967 Z"/><path fill="none" stroke="black" paint-order="fill stroke markers" d=" M 473.6666666666667 116.52786352402967 L 508.3333333333334 116.52786352402967 L 508.3333333333334 241 L 473.6666666666667 241 L 473.6666666666667 116.52786352402967 Z" stroke-linejoin="bevel" stroke-miterlimit="10" stroke-width="3"/><path fill="#D6AE4A" stroke="none" paint-order="stroke fill markers" d=" M 664.3333333333334 222.80412913582333 L 699.0000000000001 222.80412913582333 L 699.0000000000001 241 L 664.3333333333334 241 L 664.3333333333334 222.80412913582333 Z"/><path fill="none" stroke="black" paint-order="fill stroke markers" d=" M 664.3333333333334 222.80412913582333 L 699.0000000000001 222.80412913582333 L 699.0000000000001 241 L 664.3333333333334 241 L 664.3333333333334 222.80412913582333 Z" stroke-linejoin="bevel" stroke-miterlimit="10" stroke-width="3"/></g></g></g><g clip-path="url(#tedOBmrTePTJ)"><g><g><path fill="none" stroke="none"/><path fill="none" stroke="black" paint-order="fill stroke markers" d=" M 153 57.72373438820637 L 153 87" stroke-linejoin="bevel" stroke-miterlimit="10" stroke-width="2"/><path fill="none" stroke="black" paint-order="fill stroke markers" d=" M 343.6666666666667 45.10676058502878 L 343.6666666666667 73.44097305271256" stroke-linejoin="bevel" stroke-miterlimit="10" stroke-width="2"/><path fill="none" stroke="black" paint-order="fill stroke markers" d=" M 534.3333333333334 142.53597272663217 L 534.3333333333334 174.98539777479232" stroke-linejoin="bevel" stroke-miterlimit="10" stroke-width="2"/><path fill="none" stroke="black" paint-order="fill stroke markers" d=" M 725.0000000000001 225.28276133549383 L 725.0000000000001 248.46207100162036" stroke-linejoin="bevel" stroke-miterlimit="10" stroke-width="2"/></g></g></g><g clip-path="url(#QBMWQZSpUAdM)"><g><g><path fill="none" stroke="none"/><rect fill="#1f77b4" stroke="none" x="149.1" y="57.72366472020576" width="7.799999999999983" height="0.00013933614630445845"/><rect fill="#1f77b4" stroke="none" x="339.7666666666667" y="45.10671281266991" width="7.7999999999999545" height="0.00009554478600648508"/><rect fill="#1f77b4" stroke="none" x="530.4333333333334" y="142.5350927204452" width="7.7999999999999545" height="0.0017600355323281747"/><rect fill="#1f77b4" stroke="none" x="721.1000000000001" y="225.27231275702837" width="7.7999999999999545" height="0.020900422621934922"/><path fill="none" stroke="black" paint-order="fill stroke markers" d=" M 149.1 57.72366472020576 L 156.89999999999998 57.72366472020576 L 156.89999999999998 57.723804056352066 L 149.1 57.723804056352066 L 149.1 57.72366472020576 Z" stroke-linejoin="bevel" stroke-miterlimit="10" stroke-width="2"/><path fill="none" stroke="black" paint-order="fill stroke markers" d=" M 339.7666666666667 45.10671281266991 L 347.56666666666666 45.10671281266991 L 347.56666666666666 45.10680835745592 L 339.7666666666667 45.10680835745592 L 339.7666666666667 45.10671281266991 Z" stroke-linejoin="bevel" stroke-miterlimit="10" stroke-width="2"/><path fill="none" stroke="black" paint-order="fill stroke markers" d=" M 530.4333333333334 142.5350927204452 L 538.2333333333333 142.5350927204452 L 538.2333333333333 142.53685275597752 L 530.4333333333334 142.53685275597752 L 530.4333333333334 142.5350927204452 Z" stroke-linejoin="bevel" stroke-miterlimit="10" stroke-width="2"/><path fill="none" stroke="black" paint-order="fill stroke markers" d=" M 721.1000000000001 225.27231275702837 L 728.9000000000001 225.27231275702837 L 728.9000000000001 225.2932131796503 L 721.1000000000001 225.2932131796503 L 721.1000000000001 225.27231275702837 Z" stroke-linejoin="bevel" stroke-miterlimit="10" stroke-width="2"/><path fill="none" stroke="black" paint-order="fill stroke markers" d="" stroke-linejoin="bevel" stroke-miterlimit="10" stroke-width="2"/></g></g></g><g clip-path="url(#hoLZVTvsGdHX)"><g><g><path fill="none" stroke="none"/><rect fill="#1f77b4" stroke="none" x="149.1" y="86.99983279704247" width="7.799999999999983" height="0.0003344067510795412"/><rect fill="#1f77b4" stroke="none" x="339.7666666666667" y="73.44086158398133" width="7.7999999999999545" height="0.00022293783405302747"/><rect fill="#1f77b4" stroke="none" x="530.4333333333334" y="174.9830755863183" width="7.7999999999999545" height="0.004644538216695082"/><rect fill="#1f77b4" stroke="none" x="721.1000000000001" y="248.44117710834047" width="7.7999999999999545" height="0.041800849326023126"/><path fill="none" stroke="black" paint-order="fill stroke markers" d=" M 149.1 86.99983279704247 L 156.89999999999998 86.99983279704247 L 156.89999999999998 87.00016720379355 L 149.1 87.00016720379355 L 149.1 86.99983279704247 Z" stroke-linejoin="bevel" stroke-miterlimit="10" stroke-width="2"/><path fill="none" stroke="black" paint-order="fill stroke markers" d=" M 339.7666666666667 73.44086158398133 L 347.56666666666666 73.44086158398133 L 347.56666666666666 73.44108452181538 L 339.7666666666667 73.44108452181538 L 339.7666666666667 73.44086158398133 Z" stroke-linejoin="bevel" stroke-miterlimit="10" stroke-width="2"/><path fill="none" stroke="black" paint-order="fill stroke markers" d=" M 530.4333333333334 174.9830755863183 L 538.2333333333333 174.9830755863183 L 538.2333333333333 174.987720124535 L 530.4333333333334 174.987720124535 L 530.4333333333334 174.9830755863183 Z" stroke-linejoin="bevel" stroke-miterlimit="10" stroke-width="2"/><path fill="none" stroke="black" paint-order="fill stroke markers" d=" M 721.1000000000001 248.44117710834047 L 728.9000000000001 248.44117710834047 L 728.9000000000001 248.4829779576665 L 721.1000000000001 248.4829779576665 L 721.1000000000001 248.44117710834047 Z" stroke-linejoin="bevel" stroke-miterlimit="10" stroke-width="2"/><path fill="none" stroke="black" paint-order="fill stroke markers" d="" stroke-linejoin="bevel" stroke-miterlimit="10" stroke-width="2"/></g></g></g><g/><g><g fill="grey"><path fill="none" stroke="black" paint-order="fill stroke markers" d=" M 88 241 L 790 241" stroke-linejoin="bevel" stroke-miterlimit="10" stroke-width="2"/><path fill="none" stroke="black" paint-order="fill stroke markers" d=" M 110 249 L 110 241" stroke-linejoin="bevel" stroke-miterlimit="10" stroke-width="2"/><path fill="none" stroke="black" paint-order="fill stroke markers" d=" M 153 249 L 153 241" stroke-linejoin="bevel" stroke-miterlimit="10" stroke-width="2"/><path fill="none" stroke="black" paint-order="fill stroke markers" d=" M 196 249 L 196 241" stroke-linejoin="bevel" stroke-miterlimit="10" stroke-width="2"/><path fill="none" stroke="black" paint-order="fill stroke markers" d=" M 300 249 L 300 241" stroke-linejoin="bevel" stroke-miterlimit="10" stroke-width="2"/><path fill="none" stroke="black" paint-order="fill stroke markers" d=" M 344 249 L 344 241" stroke-linejoin="bevel" stroke-miterlimit="10" stroke-width="2"/><path fill="none" stroke="black" paint-order="fill stroke markers" d=" M 387 249 L 387 241" stroke-linejoin="bevel" stroke-miterlimit="10" stroke-width="2"/><path fill="none" stroke="black" paint-order="fill stroke markers" d=" M 491 249 L 491 241" stroke-linejoin="bevel" stroke-miterlimit="10" stroke-width="2"/><path fill="none" stroke="black" paint-order="fill stroke markers" d=" M 534 249 L 534 241" stroke-linejoin="bevel" stroke-miterlimit="10" stroke-width="2"/><path fill="none" stroke="black" paint-order="fill stroke markers" d=" M 578 249 L 578 241" stroke-linejoin="bevel" stroke-miterlimit="10" stroke-width="2"/><path fill="none" stroke="black" paint-order="fill stroke markers" d=" M 682 249 L 682 241" stroke-linejoin="bevel" stroke-miterlimit="10" stroke-width="2"/><path fill="none" stroke="black" paint-order="fill stroke markers" d=" M 725 249 L 725 241" stroke-linejoin="bevel" stroke-miterlimit="10" stroke-width="2"/><path fill="" stroke="black" paint-order="fill stroke markers" d=" M 768 249 L 768 241" stroke-linejoin="bevel" stroke-miterlimit="10" stroke-width="2"/><g transform="translate(110,254) rotate(-45,0,0)"><text fill="" stroke="none" font-family="helvetica" font-size="14pt" font-style="normal" font-weight="normal" text-decoration="normal" x="0" y="0" text-anchor="end" dominant-baseline="central">New production</text><g transform="rotate(45,0,0) translate(-110,-254) translate(153,254) rotate(-45,0,0)"><text fill="" stroke="none" font-family="helvetica" font-size="14pt" font-style="normal" font-weight="normal" text-decoration="normal" x="0" y="0" text-anchor="end" dominant-baseline="central">Upward NO₃ flux</text><g transform="rotate(45,0,0) translate(-153,-254) translate(196,254) rotate(-45,0,0)"><text fill="" stroke="none" font-family="helvetica" font-size="14pt" font-style="normal" font-weight="normal" text-decoration="normal" x="0" y="0" text-anchor="end" dominant-baseline="central">Vertical export</text><g transform="rotate(45,0,0) translate(-196,-254) translate(300,254) rotate(-45,0,0)"><text fill="" stroke="none" font-family="helvetica" font-size="14pt" font-style="normal" font-weight="normal" text-decoration="normal" x="0" y="0" text-anchor="end" dominant-baseline="central">New production</text><g transform="rotate(45,0,0) translate(-300,-254) translate(344,254) rotate(-45,0,0)"><text fill="" stroke="none" font-family="helvetica" font-size="14pt" font-style="normal" font-weight="normal" text-decoration="normal" x="0" y="0" text-anchor="end" dominant-baseline="central">Upward NO₃ flux</text><g transform="rotate(45,0,0) translate(-344,-254) translate(387,254) rotate(-45,0,0)"><text fill="" stroke="none" font-family="helvetica" font-size="14pt" font-style="normal" font-weight="normal" text-decoration="normal" x="0" y="0" text-anchor="end" dominant-baseline="central">Vertical export</text><g transform="rotate(45,0,0) translate(-387,-254) translate(491,254) rotate(-45,0,0)"><text fill="" stroke="none" font-family="helvetica" font-size="14pt" font-style="normal" font-weight="normal" text-decoration="normal" x="0" y="0" text-anchor="end" dominant-baseline="central">New production</text><g transform="rotate(45,0,0) translate(-491,-254) translate(534,254) rotate(-45,0,0)"><text fill="" stroke="none" font-family="helvetica" font-size="14pt" font-style="normal" font-weight="normal" text-decoration="normal" x="0" y="0" text-anchor="end" dominant-baseline="central">Upward NO₃ flux</text><g transform="rotate(45,0,0) translate(-534,-254) translate(578,254) rotate(-45,0,0)"><text fill="" stroke="none" font-family="helvetica" font-size="14pt" font-style="normal" font-weight="normal" text-decoration="normal" x="0" y="0" text-anchor="end" dominant-baseline="central">Vertical export</text><g transform="rotate(45,0,0) translate(-578,-254) translate(682,254) rotate(-45,0,0)"><text fill="" stroke="none" font-family="helvetica" font-size="14pt" font-style="normal" font-weight="normal" text-decoration="normal" x="0" y="0" text-anchor="end" dominant-baseline="central">New production</text><g transform="rotate(45,0,0) translate(-682,-254) translate(725,254) rotate(-45,0,0)"><text fill="" stroke="none" font-family="helvetica" font-size="14pt" font-style="normal" font-weight="normal" text-decoration="normal" x="0" y="0" text-anchor="end" dominant-baseline="central">Upward NO₃ flux</text><g transform="rotate(45,0,0) translate(-725,-254) translate(768,254) rotate(-45,0,0)"><text fill="" stroke="none" font-family="helvetica" font-size="14pt" font-style="normal" font-weight="normal" text-decoration="normal" x="0" y="0" text-anchor="end" dominant-baseline="central">Vertical export</text><g transform="rotate(45,0,0) translate(-768,-254) translate(153,375) rotate(0,0,0)"><text fill="" stroke="none" font-family="helvetica" font-size="14pt" font-style="normal" font-weight="bold" text-decoration="normal" x="0" y="0" text-anchor="middle" dominant-baseline="hanging">Baffin Bay</text><g transform="rotate(0,0,0) translate(-153,-375) translate(344,375) rotate(0,0,0)"><text fill="" stroke="none" font-family="helvetica" font-size="14pt" font-style="normal" font-weight="bold" text-decoration="normal" x="0" y="0" text-anchor="middle" dominant-baseline="hanging">Barents Sea</text><g transform="rotate(0,0,0) translate(-344,-375) translate(534,375) rotate(0,0,0)"><text fill="" stroke="none" font-family="helvetica" font-size="14pt" font-style="normal" font-weight="bold" text-decoration="normal" x="0" y="0" text-anchor="middle" dominant-baseline="hanging">Beaufort Sea</text><g transform="rotate(0,0,0) translate(-534,-375) translate(725,375) rotate(0,0,0)"><text fill="" stroke="none" font-family="helvetica" font-size="14pt" font-style="normal" font-weight="bold" text-decoration="normal" x="0" y="0" text-anchor="middle" dominant-baseline="hanging">Central basin</text><g transform="rotate(0,0,0) translate(-725,-375)"/></g></g></g></g></g></g></g></g></g></g></g></g></g></g></g></g></g></g><g><g fill="black"><path fill="none" stroke="black" paint-order="fill stroke markers" d=" M 88 241 L 88 10" stroke-linejoin="bevel" stroke-miterlimit="10" stroke-width="2"/><path fill="none" stroke="black" paint-order="fill stroke markers" d=" M 80 241 L 88 241" stroke-linejoin="bevel" stroke-miterlimit="10" stroke-width="2"/><path fill="none" stroke="black" paint-order="fill stroke markers" d=" M 80 164 L 88 164" stroke-linejoin="bevel" stroke-miterlimit="10" stroke-width="2"/><path fill="none" stroke="black" paint-order="fill stroke markers" d=" M 80 87 L 88 87" stroke-linejoin="bevel" stroke-miterlimit="10" stroke-width="2"/><path fill="" stroke="black" paint-order="fill stroke markers" d=" M 80 10 L 88 10" stroke-linejoin="bevel" stroke-miterlimit="10" stroke-width="2"/><g transform="translate(75,241) rotate(0,0,0)"><text fill="" stroke="none" font-family="helvetica" font-size="14pt" font-style="normal" font-weight="normal" text-decoration="normal" x="0" y="0" text-anchor="end" dominant-baseline="central">0.01</text><g transform="rotate(0,0,0) translate(-75,-241) translate(75,164) rotate(0,0,0)"><text fill="" stroke="none" font-family="helvetica" font-size="14pt" font-style="normal" font-weight="normal" text-decoration="normal" x="0" y="0" text-anchor="end" dominant-baseline="central">0.1</text><g transform="rotate(0,0,0) translate(-75,-164) translate(75,87) rotate(0,0,0)"><text fill="" stroke="none" font-family="helvetica" font-size="14pt" font-style="normal" font-weight="normal" text-decoration="normal" x="0" y="0" text-anchor="end" dominant-baseline="central">1</text><g transform="rotate(0,0,0) translate(-75,-87) translate(75,10) rotate(0,0,0)"><text fill="" stroke="none" font-family="helvetica" font-size="14pt" font-style="normal" font-weight="normal" text-decoration="normal" x="0" y="0" text-anchor="end" dominant-baseline="central">10</text><g transform="rotate(0,0,0) translate(-75,-10) translate(22,126) rotate(-90,0,0)"><text fill="" stroke="none" font-family="helvetica" font-size="14pt" font-style="normal" font-weight="normal" text-decoration="normal" x="0" y="0" text-anchor="middle" dominant-baseline="alphabetic">N flux (mmol N m⁻² d⁻¹)</text><g transform="rotate(90,0,0) translate(-22,-126)"/></g></g></g></g></g></g></g><g clip-path="url(#VcJleUccTFmV)"><g/></g></g></g></svg>