<svg version="1.1" xmlns="http://www.w3.org/2000/svg" xmlns:xlink="http://www.w3.org/1999/xlink" width="800" height="400" style="width: 800px; height: 400px;"><defs><clipPath id="RJPVlHvMiMSk"><path fill="none" stroke="none" d=" M 88 10 L 790 10 L 790 245 L 88 245 L 88 10 Z"/></clipPath><clipPath id="rmTmruDmogoU"><path fill="none" stroke="none" d=" M 88 10 L 790 10 L 790 245 L 88 245 L 88 10 Z"/></clipPath><clipPath id="rIGnFHtbSOqL"><path fill="none" stroke="none" d=" M 88 10 L 790 10 L 790 245 L 88 245 L 88 10 Z"/></clipPath><clipPath id="NAgMNElOGOtl"><path fill="none" stroke="none" d=" M 88 10 L 790 10 L 790 245 L 88 245 L 88 10 Z"/></clipPath></defs><g><g transform="scale(1,1) translate(0.5,0.5)"><rect fill="#FFFFFF" stroke="none" x="0" y="0" width="800" height="400"/><rect fill="#ffffff" stroke="none" x="0" y="0" width="800" height="400"/><rect fill="#FFFFFF" stroke="none" x="88" y="10" width="702" height="235"/><rect fill="#ffffff" stroke="none" x="88" y="10" width="702" height="235"/><g clip-path="url(#RJPVlHvMiMSk)"><g><g/></g></g><g clip-path="url(#rmTmruDmogoU)"><g><g/></g></g><g clip-path="url(#rIGnFHtbSOqL)"><g><g><path fill="none" stroke="none"/><path fill="#AA5F77" stroke="none" paint-order="stroke fill markers" d=" M 92.33333333333334 70.28150115870187 L 127 70.28150115870187 L 127 245 L 92.33333333333334 245 L 92.33333333333334 70.28150115870187 Z"/><path fill="none" stroke="black" paint-order="fill stroke markers" d=" M 92.33333333333334 70.28150115870187 L 127 70.28150115870187 L 127 245 L 92.33333333333334 245 L 92.33333333333334 70.28150115870187 Z" stroke-linejoin="bevel" stroke-miterlimit="10" stroke-width="3"/><path fill="#AA5F77" stroke="none" paint-order="stroke fill markers" d=" M 283 57.16136598735707 L 317.66666666666674 57.16136598735707 L 317.66666666666674 245 L 283 245 L 283 57.16136598735707 Z"/><path fill="none" stroke="black" paint-order="fill stroke markers" d=" M 283 57.16136598735707 L 317.66666666666674 57.16136598735707 L 317.66666666666674 245 L 283 245 L 283 57.16136598735707 Z" stroke-linejoin="bevel" stroke-miterlimit="10" stroke-width="3"/><path fill="#AA5F77" stroke="none" paint-order="stroke fill markers" d=" M 473.6666666666667 160.4641357262694 L 508.3333333333334 160.4641357262694 L 508.3333333333334 245 L 473.6666666666667 245 L 473.6666666666667 160.4641357262694 Z"/><path fill="none" stroke="black" paint-order="fill stroke markers" d=" M 473.6666666666667 160.4641357262694 L 508.3333333333334 160.4641357262694 L 508.3333333333334 245 L 473.6666666666667 245 L 473.6666666666667 160.4641357262694 Z" stroke-linejoin="bevel" stroke-miterlimit="10" stroke-width="3"/><path fill="#AA5F77" stroke="none" paint-order="stroke fill markers" d=" M 664.3333333333334 237.40871564770225 L 699.0000000000001 237.40871564770225 L 699.0000000000001 245 L 664.3333333333334 245 L 664.3333333333334 237.40871564770225 Z"/><path fill="none" stroke="black" paint-order="fill stroke markers" d=" M 664.3333333333334 237.40871564770225 L 699.0000000000001 237.40871564770225 L 699.0000000000001 245 L 664.3333333333334 245 L 664.3333333333334 237.40871564770225 Z" stroke-linejoin="bevel" stroke-miterlimit="10" stroke-width="3"/><path fill="#2DA3A2" stroke="none" paint-order="stroke fill markers" d=" M 179 135.0594795776338 L 213.66666666666669 135.0594795776338 L 213.66666666666669 245 L 179 245 L 179 135.0594795776338 Z"/><path fill="none" stroke="black" paint-order="fill stroke markers" d=" M 179 135.0594795776338 L 213.66666666666669 135.0594795776338 L 213.66666666666669 245 L 179 245 L 179 135.0594795776338 Z" stroke-linejoin="bevel" stroke-miterlimit="10" stroke-width="3"/><path fill="#2DA3A2" stroke="none" paint-order="stroke fill markers" d=" M 369.66666666666674 54.15176398891481 L 404.33333333333337 54.15176398891481 L 404.33333333333337 245 L 369.66666666666674 245 L 369.66666666666674 54.15176398891481 Z"/><path fill="none" stroke="black" paint-order="fill stroke markers" d=" M 369.66666666666674 54.15176398891481 L 404.33333333333337 54.15176398891481 L 404.33333333333337 245 L 369.66666666666674 245 L 369.66666666666674 54.15176398891481 Z" stroke-linejoin="bevel" stroke-miterlimit="10" stroke-width="3"/><path fill="#2DA3A2" stroke="none" paint-order="stroke fill markers" d=" M 560.3333333333335 168.1322450980349 L 595 168.1322450980349 L 595 245 L 560.3333333333335 245 L 560.3333333333335 168.1322450980349 Z"/><path fill="none" stroke="black" paint-order="fill stroke markers" d=" M 560.3333333333335 168.1322450980349 L 595 168.1322450980349 L 595 245 L 560.3333333333335 245 L 560.3333333333335 168.1322450980349 Z" stroke-linejoin="bevel" stroke-miterlimit="10" stroke-width="3"/><path fill="#2DA3A2" stroke="none" paint-order="stroke fill markers" d=" M 751 224.2934657721735 L 785.6666666666667 224.2934657721735 L 785.6666666666667 245 L 751 245 L 751 224.2934657721735 Z"/><path fill="none" stroke="black" paint-order="fill stroke markers" d=" M 751 224.2934657721735 L 785.6666666666667 224.2934657721735 L 785.6666666666667 245 L 751 245 L 751 224.2934657721735 Z" stroke-linejoin="bevel" stroke-miterlimit="10" stroke-width="3"/><path fill="#D6AE4A" stroke="none" paint-order="stroke fill markers" d=" M 135.66666666666669 79.60925015517608 L 170.33333333333331 79.60925015517608 L 170.33333333333331 245 L 135.66666666666669 245 L 135.66666666666669 79.60925015517608 Z"/><path fill="none" stroke="black" paint-order="fill stroke markers" d=" M 135.66666666666669 79.60925015517608 L 170.33333333333331 79.60925015517608 L 170.33333333333331 245 L 135.66666666666669 245 L 135.66666666666669 79.60925015517608 Z" stroke-linejoin="bevel" stroke-miterlimit="10" stroke-width="3"/><path fill="#D6AE4A" stroke="none" paint-order="stroke fill markers" d=" M 326.33333333333337 67.20418827438152 L 361 67.20418827438152 L 361 245 L 326.33333333333337 245 L 326.33333333333337 67.20418827438152 Z"/><path fill="none" stroke="black" paint-order="fill stroke markers" d=" M 326.33333333333337 67.20418827438152 L 361 67.20418827438152 L 361 245 L 326.33333333333337 245 L 326.33333333333337 67.20418827438152 Z" stroke-linejoin="bevel" stroke-miterlimit="10" stroke-width="3"/><path fill="#D6AE4A" stroke="none" paint-order="stroke fill markers" d=" M 517 118.37250185345009 L 551.6666666666667 118.37250185345009 L 551.6666666666667 245 L 517 245 L 517 118.37250185345009 Z"/><path fill="none" stroke="black" paint-order="fill stroke markers" d=" M 517 118.37250185345009 L 551.6666666666667 118.37250185345009 L 551.6666666666667 245 L 517 245 L 517 118.37250185345009 Z" stroke-linejoin="bevel" stroke-miterlimit="10" stroke-width="3"/><path fill="#D6AE4A" stroke="none" paint-order="stroke fill markers" d=" M 707.6666666666667 226.48904912085925 L 742.3333333333335 226.48904912085925 L 742.3333333333335 245 L 707.6666666666667 245 L 707.6666666666667 226.48904912085925 Z"/><path fill="none" stroke="black" paint-order="fill stroke markers" d=" M 707.6666666666667 226.48904912085925 L 742.3333333333335 226.48904912085925 L 742.3333333333335 245 L 707.6666666666667 245 L 707.6666666666667 226.48904912085925 Z" stroke-linejoin="bevel" stroke-miterlimit="10" stroke-width="3"/></g></g></g><g/><g><g fill="grey"><path fill="none" stroke="black" paint-order="fill stroke markers" d=" M 88 245 L 790 245" stroke-linejoin="bevel" stroke-miterlimit="10" stroke-width="2"/><path fill="none" stroke="black" paint-order="fill stroke markers" d=" M 110 253 L 110 245" stroke-linejoin="bevel" stroke-miterlimit="10" stroke-width="2"/><path fill="none" stroke="black" paint-order="fill stroke markers" d=" M 153 253 L 153 245" stroke-linejoin="bevel" stroke-miterlimit="10" stroke-width="2"/><path fill="none" stroke="black" paint-order="fill stroke markers" d=" M 196 253 L 196 245" stroke-linejoin="bevel" stroke-miterlimit="10" stroke-width="2"/><path fill="none" stroke="black" paint-order="fill stroke markers" d=" M 300 253 L 300 245" stroke-linejoin="bevel" stroke-miterlimit="10" stroke-width="2"/><path fill="none" stroke="black" paint-order="fill stroke markers" d=" M 344 253 L 344 245" stroke-linejoin="bevel" stroke-miterlimit="10" stroke-width="2"/><path fill="none" stroke="black" paint-order="fill stroke markers" d=" M 387 253 L 387 245" stroke-linejoin="bevel" stroke-miterlimit="10" stroke-width="2"/><path fill="none" stroke="black" paint-order="fill stroke markers" d=" M 491 253 L 491 245" stroke-linejoin="bevel" stroke-miterlimit="10" stroke-width="2"/><path fill="none" stroke="black" paint-order="fill stroke markers" d=" M 534 253 L 534 245" stroke-linejoin="bevel" stroke-miterlimit="10" stroke-width="2"/><path fill="none" stroke="black" paint-order="fill stroke markers" d=" M 578 253 L 578 245" stroke-linejoin="bevel" stroke-miterlimit="10" stroke-width="2"/><path fill="none" stroke="black" paint-order="fill stroke markers" d=" M 682 253 L 682 245" stroke-linejoin="bevel" stroke-miterlimit="10" stroke-width="2"/><path fill="none" stroke="black" paint-order="fill stroke markers" d=" M 725 253 L 725 245" stroke-linejoin="bevel" stroke-miterlimit="10" stroke-width="2"/><path fill="" stroke="black" paint-order="fill stroke markers" d=" M 768 253 L 768 245" stroke-linejoin="bevel" stroke-miterlimit="10" stroke-width="2"/><g transform="translate(110,258) rotate(-45,0,0)"><text fill="" stroke="none" font-family="helvetica" font-size="14pt" font-style="normal" font-weight="normal" text-decoration="normal" x="0" y="0" text-anchor="end" dominant-baseline="central">NO₃ flux</text><g transform="rotate(45,0,0) translate(-110,-258) translate(153,258) rotate(-45,0,0)"><text fill="" stroke="none" font-family="helvetica" font-size="14pt" font-style="normal" font-weight="normal" text-decoration="normal" x="0" y="0" text-anchor="end" dominant-baseline="central">New Production</text><g transform="rotate(45,0,0) translate(-153,-258) translate(196,258) rotate(-45,0,0)"><text fill="" stroke="none" font-family="helvetica" font-size="14pt" font-style="normal" font-weight="normal" text-decoration="normal" x="0" y="0" text-anchor="end" dominant-baseline="central">Vertical export</text><g transform="rotate(45,0,0) translate(-196,-258) translate(300,258) rotate(-45,0,0)"><text fill="" stroke="none" font-family="helvetica" font-size="14pt" font-style="normal" font-weight="normal" text-decoration="normal" x="0" y="0" text-anchor="end" dominant-baseline="central">NO₃ flux</text><g transform="rotate(45,0,0) translate(-300,-258) translate(344,258) rotate(-45,0,0)"><text fill="" stroke="none" font-family="helvetica" font-size="14pt" font-style="normal" font-weight="normal" text-decoration="normal" x="0" y="0" text-anchor="end" dominant-baseline="central">New Production</text><g transform="rotate(45,0,0) translate(-344,-258) translate(387,258) rotate(-45,0,0)"><text fill="" stroke="none" font-family="helvetica" font-size="14pt" font-style="normal" font-weight="normal" text-decoration="normal" x="0" y="0" text-anchor="end" dominant-baseline="central">Vertical export</text><g transform="rotate(45,0,0) translate(-387,-258) translate(491,258) rotate(-45,0,0)"><text fill="" stroke="none" font-family="helvetica" font-size="14pt" font-style="normal" font-weight="normal" text-decoration="normal" x="0" y="0" text-anchor="end" dominant-baseline="central">NO₃ flux</text><g transform="rotate(45,0,0) translate(-491,-258) translate(534,258) rotate(-45,0,0)"><text fill="" stroke="none" font-family="helvetica" font-size="14pt" font-style="normal" font-weight="normal" text-decoration="normal" x="0" y="0" text-anchor="end" dominant-baseline="central">New Production</text><g transform="rotate(45,0,0) translate(-534,-258) translate(578,258) rotate(-45,0,0)"><text fill="" stroke="none" font-family="helvetica" font-size="14pt" font-style="normal" font-weight="normal" text-decoration="normal" x="0" y="0" text-anchor="end" dominant-baseline="central">Vertical export</text><g transform="rotate(45,0,0) translate(-578,-258) translate(682,258) rotate(-45,0,0)"><text fill="" stroke="none" font-family="helvetica" font-size="14pt" font-style="normal" font-weight="normal" text-decoration="normal" x="0" y="0" text-anchor="end" dominant-baseline="central">NO₃ flux</text><g transform="rotate(45,0,0) translate(-682,-258) translate(725,258) rotate(-45,0,0)"><text fill="" stroke="none" font-family="helvetica" font-size="14pt" font-style="normal" font-weight="normal" text-decoration="normal" x="0" y="0" text-anchor="end" dominant-baseline="central">New Production</text><g transform="rotate(45,0,0) translate(-725,-258) translate(768,258) rotate(-45,0,0)"><text fill="" stroke="none" font-family="helvetica" font-size="14pt" font-style="normal" font-weight="normal" text-decoration="normal" x="0" y="0" text-anchor="end" dominant-baseline="central">Vertical export</text><g transform="rotate(45,0,0) translate(-768,-258) translate(153,375) rotate(0,0,0)"><text fill="" stroke="none" font-family="helvetica" font-size="14pt" font-style="normal" font-weight="bold" text-decoration="normal" x="0" y="0" text-anchor="middle" dominant-baseline="hanging">Baffin Bay</text><g transform="rotate(0,0,0) translate(-153,-375) translate(344,375) rotate(0,0,0)"><text fill="" stroke="none" font-family="helvetica" font-size="14pt" font-style="normal" font-weight="bold" text-decoration="normal" x="0" y="0" text-anchor="middle" dominant-baseline="hanging">Barents Sea</text><g transform="rotate(0,0,0) translate(-344,-375) translate(534,375) rotate(0,0,0)"><text fill="" stroke="none" font-family="helvetica" font-size="14pt" font-style="normal" font-weight="bold" text-decoration="normal" x="0" y="0" text-anchor="middle" dominant-baseline="hanging">Beaufort Sea</text><g transform="rotate(0,0,0) translate(-534,-375) translate(725,375) rotate(0,0,0)"><text fill="" stroke="none" font-family="helvetica" font-size="14pt" font-style="normal" font-weight="bold" text-decoration="normal" x="0" y="0" text-anchor="middle" dominant-baseline="hanging">Central basin</text><g transform="rotate(0,0,0) translate(-725,-375)"/></g></g></g></g></g></g></g></g></g></g></g></g></g></g></g></g></g></g><g><g fill="black"><path fill="none" stroke="black" paint-order="fill stroke markers" d=" M 88 245 L 88 10" stroke-linejoin="bevel" stroke-miterlimit="10" stroke-width="2"/><path fill="none" stroke="black" paint-order="fill stroke markers" d=" M 80 245 L 88 245" stroke-linejoin="bevel" stroke-miterlimit="10" stroke-width="2"/><path fill="none" stroke="black" paint-order="fill stroke markers" d=" M 80 167 L 88 167" stroke-linejoin="bevel" stroke-miterlimit="10" stroke-width="2"/><path fill="none" stroke="black" paint-order="fill stroke markers" d=" M 80 88 L 88 88" stroke-linejoin="bevel" stroke-miterlimit="10" stroke-width="2"/><path fill="" stroke="black" paint-order="fill stroke markers" d=" M 80 10 L 88 10" stroke-linejoin="bevel" stroke-miterlimit="10" stroke-width="2"/><g transform="translate(75,245) rotate(0,0,0)"><text fill="" stroke="none" font-family="helvetica" font-size="14pt" font-style="normal" font-weight="normal" text-decoration="normal" x="0" y="0" text-anchor="end" dominant-baseline="central">0.01</text><g transform="rotate(0,0,0) translate(-75,-245) translate(75,167) rotate(0,0,0)"><text fill="" stroke="none" font-family="helvetica" font-size="14pt" font-style="normal" font-weight="normal" text-decoration="normal" x="0" y="0" text-anchor="end" dominant-baseline="central">0.1</text><g transform="rotate(0,0,0) translate(-75,-167) translate(75,88) rotate(0,0,0)"><text fill="" stroke="none" font-family="helvetica" font-size="14pt" font-style="normal" font-weight="normal" text-decoration="normal" x="0" y="0" text-anchor="end" dominant-baseline="central">1</text><g transform="rotate(0,0,0) translate(-75,-88) translate(75,10) rotate(0,0,0)"><text fill="" stroke="none" font-family="helvetica" font-size="14pt" font-style="normal" font-weight="normal" text-decoration="normal" x="0" y="0" text-anchor="end" dominant-baseline="central">10</text><g transform="rotate(0,0,0) translate(-75,-10) translate(22,128) rotate(-90,0,0)"><text fill="" stroke="none" font-family="helvetica" font-size="14pt" font-style="normal" font-weight="normal" text-decoration="normal" x="0" y="0" text-anchor="middle" dominant-baseline="alphabetic">N flux (mmol N m⁻² d⁻¹)</text><g transform="rotate(90,0,0) translate(-22,-128)"/></g></g></g></g></g></g></g><g clip-path="url(#NAgMNElOGOtl)"><g/></g></g></g></svg>