<svg version="1.1" xmlns="http://www.w3.org/2000/svg" xmlns:xlink="http://www.w3.org/1999/xlink" width="500" height="300" style="width: 500px; height: 300px;"><defs><clipPath id="QRcxpcanHqqQ"><path fill="none" stroke="none" d=" M 80 10 L 490 10 L 490 231 L 80 231 L 80 10 Z"/></clipPath><clipPath id="ShmbAgINRrzB"><path fill="none" stroke="none" d=" M 80 10 L 490 10 L 490 231 L 80 231 L 80 10 Z"/></clipPath><clipPath id="ouIbeQhwmHKr"><path fill="none" stroke="none" d=" M 80 10 L 490 10 L 490 231 L 80 231 L 80 10 Z"/></clipPath><clipPath id="FlErmxAcBVTG"><path fill="none" stroke="none" d=" M 80 10 L 490 10 L 490 231 L 80 231 L 80 10 Z"/></clipPath><clipPath id="NHAIfEHOGTGF"><path fill="none" stroke="none" d=" M 80 10 L 490 10 L 490 231 L 80 231 L 80 10 Z"/></clipPath><clipPath id="LnLSXCPbeLPt"><path fill="none" stroke="none" d=" M 80 10 L 490 10 L 490 231 L 80 231 L 80 10 Z"/></clipPath><clipPath id="nASlaMSTTMFJ"><path fill="none" stroke="none" d=" M 80 10 L 490 10 L 490 231 L 80 231 L 80 10 Z"/></clipPath><clipPath id="UBlGiyPFMATI"><path fill="none" stroke="none" d=" M 80 10 L 490 10 L 490 231 L 80 231 L 80 10 Z"/></clipPath></defs><g><g transform="scale(1,1) translate(0.5,0.5)"><rect fill="#FFFFFF" stroke="none" x="0" y="0" width="500" height="300"/><rect fill="#ffffff" stroke="none" x="0" y="0" width="500" height="300"/><rect fill="#FFFFFF" stroke="none" x="80" y="10" width="410" height="221"/><rect fill="#ffffff" stroke="none" x="80" y="10" width="410" height="221"/><g clip-path="url(#QRcxpcanHqqQ)"><g><g/></g></g><g clip-path="url(#ShmbAgINRrzB)"><g><g/></g></g><g clip-path="url(#ouIbeQhwmHKr)"><g><g><path fill="none" stroke="none"/><path fill="#007f00" stroke="none" paint-order="stroke fill markers" d=" M 101.96428571428572 118.56818181818184 L 175.17857142857144 190.68939393939394 L 248.39285714285717 198.41666666666666 L 358.2142857142858 121.1439393939394 L 468.03571428571433 123.71969696969698 L 468.03571428571433 97.96212121212123 L 358.2142857142858 28.416666666666714 L 248.39285714285717 141.75 L 175.17857142857144 108.26515151515153 L 101.96428571428572 95.38636363636365 Z" fill-opacity="0.6"/><path fill="none" stroke="black" paint-order="fill stroke markers" d=" M 101.96428571428572 118.56818181818184 L 175.17857142857144 190.68939393939394 L 248.39285714285717 198.41666666666666 L 358.2142857142858 121.1439393939394 L 468.03571428571433 123.71969696969698 L 468.03571428571433 97.96212121212123 L 358.2142857142858 28.416666666666714 L 248.39285714285717 141.75 L 175.17857142857144 108.26515151515153 L 101.96428571428572 95.38636363636365 Z" stroke-linejoin="bevel" stroke-miterlimit="10" stroke-opacity="0.6"/></g></g></g><g clip-path="url(#FlErmxAcBVTG)"><g><g><path fill="none" stroke="none"/><path fill="none" stroke="#007f00" paint-order="fill stroke markers" d=" M 101.96428571428572 106.97727272727275 L 175.17857142857144 149.47727272727275 L 248.39285714285717 170.08333333333334 L 358.2142857142858 74.78030303030306 L 468.03571428571433 110.84090909090911" stroke-linejoin="bevel" stroke-miterlimit="10" stroke-width="3"/></g></g></g><g clip-path="url(#NHAIfEHOGTGF)"><g><g><path fill="none" stroke="none"/><path fill="#000000" stroke="none" paint-order="stroke fill markers" d=" M 101.96428571428572 211.29545454545453 L 175.17857142857144 211.29545454545453 L 248.39285714285717 208.71969696969697 L 358.2142857142858 198.41666666666666 L 468.03571428571433 212.58333333333334 L 468.03571428571433 210.00757575757575 L 358.2142857142858 154.62878787878788 L 248.39285714285717 103.11363636363639 L 175.17857142857144 198.41666666666666 L 101.96428571428572 208.71969696969697 Z" fill-opacity="0.6"/><path fill="none" stroke="black" paint-order="fill stroke markers" d=" M 101.96428571428572 211.29545454545453 L 175.17857142857144 211.29545454545453 L 248.39285714285717 208.71969696969697 L 358.2142857142858 198.41666666666666 L 468.03571428571433 212.58333333333334 L 468.03571428571433 210.00757575757575 L 358.2142857142858 154.62878787878788 L 248.39285714285717 103.11363636363639 L 175.17857142857144 198.41666666666666 L 101.96428571428572 208.71969696969697 Z" stroke-linejoin="bevel" stroke-miterlimit="10" stroke-opacity="0.6"/></g></g></g><g clip-path="url(#LnLSXCPbeLPt)"><g><g><path fill="none" stroke="none"/><path fill="none" stroke="#000000" paint-order="fill stroke markers" d=" M 101.96428571428572 210.00757575757575 L 175.17857142857144 204.8560606060606 L 248.39285714285717 155.91666666666669 L 358.2142857142858 176.52272727272728 L 468.03571428571433 211.29545454545453" stroke-linejoin="bevel" stroke-miterlimit="10" stroke-width="3"/></g></g></g><g clip-path="url(#nASlaMSTTMFJ)"><g><g/><g><path fill="#ffffff" stroke="#e5e5e5" paint-order="fill stroke markers" d=" M 90 20 L 172.75 20 L 172.75 83 L 90 83 L 90 20 Z" fill-opacity="0.95" stroke-linejoin="bevel" stroke-miterlimit="10" stroke-opacity="0.5"/><text fill="#444444" stroke="none" font-family="helvetica" font-size="13pt" font-style="normal" font-weight="normal" text-decoration="normal" x="125" y="40" text-anchor="start" dominant-baseline="central">DON</text><rect fill="#007f00" stroke="none" x="102" y="32" width="16" height="16" fill-opacity="0.6"/><path fill="none" stroke="black" paint-order="fill stroke markers" d=" M 102 32 L 118 32 L 118 48 L 102 48 L 102 32 Z" stroke-linejoin="bevel" stroke-miterlimit="10" stroke-opacity="0.6"/><g><path fill="none" stroke="#007f00" paint-order="fill stroke markers" d=" M 100 40 L 120 40" stroke-linejoin="bevel" stroke-miterlimit="10" stroke-width="3"/></g><text fill="#444444" stroke="none" font-family="helvetica" font-size="13pt" font-style="normal" font-weight="normal" text-decoration="normal" x="125" y="63" text-anchor="start" dominant-baseline="central">PON</text><rect fill="#000000" stroke="none" x="102" y="55" width="16" height="16" fill-opacity="0.6"/><path fill="none" stroke="black" paint-order="fill stroke markers" d=" M 102 55 L 118 55 L 118 71 L 102 71 L 102 55 Z" stroke-linejoin="bevel" stroke-miterlimit="10" stroke-opacity="0.6"/><g><path fill="none" stroke="#000000" paint-order="fill stroke markers" d=" M 100 63 L 120 63" stroke-linejoin="bevel" stroke-miterlimit="10" stroke-width="3"/></g></g></g></g><g/><g><g fill="black"><path fill="none" stroke="black" paint-order="fill stroke markers" d=" M 80 231 L 490 231" stroke-linejoin="bevel" stroke-miterlimit="10" stroke-width="2"/><path fill="none" stroke="black" paint-order="fill stroke markers" d=" M 102 239 L 102 231" stroke-linejoin="bevel" stroke-miterlimit="10" stroke-width="2"/><path fill="none" stroke="black" paint-order="fill stroke markers" d=" M 175 239 L 175 231" stroke-linejoin="bevel" stroke-miterlimit="10" stroke-width="2"/><path fill="none" stroke="black" paint-order="fill stroke markers" d=" M 248 239 L 248 231" stroke-linejoin="bevel" stroke-miterlimit="10" stroke-width="2"/><path fill="none" stroke="black" paint-order="fill stroke markers" d=" M 358 239 L 358 231" stroke-linejoin="bevel" stroke-miterlimit="10" stroke-width="2"/><path fill="" stroke="black" paint-order="fill stroke markers" d=" M 468 239 L 468 231" stroke-linejoin="bevel" stroke-miterlimit="10" stroke-width="2"/><g transform="translate(102,244) rotate(0,0,0)"><text fill="" stroke="none" font-family="helvetica" font-size="13pt" font-style="normal" font-weight="normal" text-decoration="normal" x="0" y="0" text-anchor="middle" dominant-baseline="hanging">Jan</text><g transform="rotate(0,0,0) translate(-102,-244) translate(175,244) rotate(0,0,0)"><text fill="" stroke="none" font-family="helvetica" font-size="13pt" font-style="normal" font-weight="normal" text-decoration="normal" x="0" y="0" text-anchor="middle" dominant-baseline="hanging">Mar</text><g transform="rotate(0,0,0) translate(-175,-244) translate(248,244) rotate(0,0,0)"><text fill="" stroke="none" font-family="helvetica" font-size="13pt" font-style="normal" font-weight="normal" text-decoration="normal" x="0" y="0" text-anchor="middle" dominant-baseline="hanging">May</text><g transform="rotate(0,0,0) translate(-248,-244) translate(358,244) rotate(0,0,0)"><text fill="" stroke="none" font-family="helvetica" font-size="13pt" font-style="normal" font-weight="normal" text-decoration="normal" x="0" y="0" text-anchor="middle" dominant-baseline="hanging">Aug</text><g transform="rotate(0,0,0) translate(-358,-244) translate(468,244) rotate(0,0,0)"><text fill="" stroke="none" font-family="helvetica" font-size="13pt" font-style="normal" font-weight="normal" text-decoration="normal" x="0" y="0" text-anchor="middle" dominant-baseline="hanging">Nov</text><g transform="rotate(0,0,0) translate(-468,-244) translate(285,276) rotate(0,0,0)"><text fill="" stroke="none" font-family="helvetica" font-size="15pt" font-style="normal" font-weight="normal" text-decoration="normal" x="0" y="0" text-anchor="middle" dominant-baseline="hanging">Month</text><g transform="rotate(0,0,0) translate(-285,-276)"/></g></g></g></g></g></g></g></g><g><g fill="black"><path fill="none" stroke="black" paint-order="fill stroke markers" d=" M 80 231 L 80 10" stroke-linejoin="bevel" stroke-miterlimit="10" stroke-width="2"/><path fill="none" stroke="black" paint-order="fill stroke markers" d=" M 72 215 L 80 215" stroke-linejoin="bevel" stroke-miterlimit="10" stroke-width="2"/><path fill="none" stroke="black" paint-order="fill stroke markers" d=" M 72 151 L 80 151" stroke-linejoin="bevel" stroke-miterlimit="10" stroke-width="2"/><path fill="none" stroke="black" paint-order="fill stroke markers" d=" M 72 86 L 80 86" stroke-linejoin="bevel" stroke-miterlimit="10" stroke-width="2"/><path fill="none" stroke="black" paint-order="fill stroke markers" d=" M 72 22 L 80 22" stroke-linejoin="bevel" stroke-miterlimit="10" stroke-width="2"/><path fill="none" stroke="black" paint-order="fill stroke markers" d=" M 80 228 L 80 228" stroke-linejoin="bevel" stroke-miterlimit="10"/><path fill="none" stroke="black" paint-order="fill stroke markers" d=" M 80 215 L 80 215" stroke-linejoin="bevel" stroke-miterlimit="10"/><path fill="none" stroke="black" paint-order="fill stroke markers" d=" M 80 202 L 80 202" stroke-linejoin="bevel" stroke-miterlimit="10"/><path fill="none" stroke="black" paint-order="fill stroke markers" d=" M 80 189 L 80 189" stroke-linejoin="bevel" stroke-miterlimit="10"/><path fill="none" stroke="black" paint-order="fill stroke markers" d=" M 80 177 L 80 177" stroke-linejoin="bevel" stroke-miterlimit="10"/><path fill="none" stroke="black" paint-order="fill stroke markers" d=" M 80 164 L 80 164" stroke-linejoin="bevel" stroke-miterlimit="10"/><path fill="none" stroke="black" paint-order="fill stroke markers" d=" M 80 151 L 80 151" stroke-linejoin="bevel" stroke-miterlimit="10"/><path fill="none" stroke="black" paint-order="fill stroke markers" d=" M 80 138 L 80 138" stroke-linejoin="bevel" stroke-miterlimit="10"/><path fill="none" stroke="black" paint-order="fill stroke markers" d=" M 80 125 L 80 125" stroke-linejoin="bevel" stroke-miterlimit="10"/><path fill="none" stroke="black" paint-order="fill stroke markers" d=" M 80 112 L 80 112" stroke-linejoin="bevel" stroke-miterlimit="10"/><path fill="none" stroke="black" paint-order="fill stroke markers" d=" M 80 99 L 80 99" stroke-linejoin="bevel" stroke-miterlimit="10"/><path fill="none" stroke="black" paint-order="fill stroke markers" d=" M 80 86 L 80 86" stroke-linejoin="bevel" stroke-miterlimit="10"/><path fill="none" stroke="black" paint-order="fill stroke markers" d=" M 80 73 L 80 73" stroke-linejoin="bevel" stroke-miterlimit="10"/><path fill="none" stroke="black" paint-order="fill stroke markers" d=" M 80 61 L 80 61" stroke-linejoin="bevel" stroke-miterlimit="10"/><path fill="none" stroke="black" paint-order="fill stroke markers" d=" M 80 48 L 80 48" stroke-linejoin="bevel" stroke-miterlimit="10"/><path fill="none" stroke="black" paint-order="fill stroke markers" d=" M 80 35 L 80 35" stroke-linejoin="bevel" stroke-miterlimit="10"/><path fill="" stroke="black" paint-order="fill stroke markers" d=" M 80 22 L 80 22" stroke-linejoin="bevel" stroke-miterlimit="10"/><g transform="translate(67,215) rotate(0,0,0)"><text fill="" stroke="none" font-family="helvetica" font-size="13pt" font-style="normal" font-weight="normal" text-decoration="normal" x="0" y="0" text-anchor="end" dominant-baseline="central">0</text><g transform="rotate(0,0,0) translate(-67,-215) translate(67,151) rotate(0,0,0)"><text fill="" stroke="none" font-family="helvetica" font-size="13pt" font-style="normal" font-weight="normal" text-decoration="normal" x="0" y="0" text-anchor="end" dominant-baseline="central">50</text><g transform="rotate(0,0,0) translate(-67,-151) translate(67,86) rotate(0,0,0)"><text fill="" stroke="none" font-family="helvetica" font-size="13pt" font-style="normal" font-weight="normal" text-decoration="normal" x="0" y="0" text-anchor="end" dominant-baseline="central">100</text><g transform="rotate(0,0,0) translate(-67,-86) translate(67,22) rotate(0,0,0)"><text fill="" stroke="none" font-family="helvetica" font-size="13pt" font-style="normal" font-weight="normal" text-decoration="normal" x="0" y="0" text-anchor="end" dominant-baseline="central">150</text><g transform="rotate(0,0,0) translate(-67,-22) translate(24,121) rotate(-90,0,0)"><text fill="" stroke="none" font-family="helvetica" font-size="15pt" font-style="normal" font-weight="normal" text-decoration="normal" x="0" y="0" text-anchor="middle" dominant-baseline="alphabetic">DON, PON (µM)</text><g transform="rotate(90,0,0) translate(-24,-121)"/></g></g></g></g></g></g></g><g clip-path="url(#UBlGiyPFMATI)"><g/></g></g></g></svg>