<?xml version="1.0" standalone="no"?>
<!DOCTYPE svg PUBLIC "-//W3C//DTD SVG 1.1//EN"
 "http://www.w3.org/Graphics/SVG/1.1/DTD/svg11.dtd">
<!-- Created with svg_stack (http://github.com/astraw/svg_stack) -->
<svg xmlns="http://www.w3.org/2000/svg" xmlns:sodipodi="http://sodipodi.sourceforge.net/DTD/sodipodi-0.dtd" xmlns:xlink="http://www.w3.org/1999/xlink" version="1.1" width="644.0" height="327.0">
  <defs>
    <clipPath id="id0:TTpZMKwEUlRc">
      <path fill="none" stroke="none" d=" M 70 38 L 290 38 L 290 258 L 70 258 L 70 38 Z"/>
    </clipPath>
    <clipPath id="id0:IygvubPnvOMC">
      <path fill="none" stroke="none" d=" M 70 38 L 290 38 L 290 258 L 70 258 L 70 38 Z"/>
    </clipPath>
    <clipPath id="id0:ompZvOKdBOGK">
      <path fill="none" stroke="none" d=" M 70 38 L 290 38 L 290 258 L 70 258 L 70 38 Z"/>
    </clipPath>
    <clipPath id="id0:srZydJflLkML">
      <path fill="none" stroke="none" d=" M 70 38 L 290 38 L 290 258 L 70 258 L 70 38 Z"/>
    </clipPath>
    <clipPath id="id0:zXifXDTBORsp">
      <path fill="none" stroke="none" d=" M 70 38 L 290 38 L 290 258 L 70 258 L 70 38 Z"/>
    </clipPath>
    <clipPath id="id0:KGHbixtoLrzo">
      <path fill="none" stroke="none" d=" M 70 38 L 290 38 L 290 258 L 70 258 L 70 38 Z"/>
    </clipPath>
    <clipPath id="id1:lSmKfnXbtkdC">
      <path fill="none" stroke="none" d=" M 34 38 L 334 38 L 334 258 L 34 258 L 34 38 Z"/>
    </clipPath>
    <clipPath id="id1:wEBEAqDuoCKA">
      <path fill="none" stroke="none" d=" M 34 38 L 334 38 L 334 258 L 34 258 L 34 38 Z"/>
    </clipPath>
    <clipPath id="id1:CtZOzwlQPnGz">
      <path fill="none" stroke="none" d=" M 34 38 L 334 38 L 334 258 L 34 258 L 34 38 Z"/>
    </clipPath>
    <clipPath id="id1:SywGHPVgqosC">
      <path fill="none" stroke="none" d=" M 34 38 L 334 38 L 334 258 L 34 258 L 34 38 Z"/>
    </clipPath>
    <clipPath id="id1:uaHRoNKtEfhT">
      <path fill="none" stroke="none" d=" M 34 38 L 334 38 L 334 258 L 34 258 L 34 38 Z"/>
    </clipPath>
    <clipPath id="id1:pCXfoSRSafac">
      <path fill="none" stroke="none" d=" M 34 38 L 334 38 L 334 258 L 34 258 L 34 38 Z"/>
    </clipPath>
    <clipPath id="id1:zrnGeRCDCMoQ">
      <path fill="none" stroke="none" d=" M 34 38 L 334 38 L 334 258 L 34 258 L 34 38 Z"/>
    </clipPath>
    <clipPath id="id1:aoloxqbgNrpp">
      <path fill="none" stroke="none" d=" M 34 38 L 334 38 L 334 258 L 34 258 L 34 38 Z"/>
    </clipPath>
    <clipPath id="id1:VdJzkwuTiioH">
      <path fill="none" stroke="none" d=" M 34 38 L 334 38 L 334 258 L 34 258 L 34 38 Z"/>
    </clipPath>
    <clipPath id="id1:dzmxIUwExENw">
      <path fill="none" stroke="none" d=" M 34 38 L 334 38 L 334 258 L 34 258 L 34 38 Z"/>
    </clipPath>
  </defs>
  <g id="id0:id0" transform="translate(0.0,0)">
    <g>
      <g transform="scale(1,1) translate(0.5,0.5)">
        <rect fill="#FFFFFF" stroke="none" x="0" y="0" width="300" height="327"/>
        <rect fill="#ffffff" stroke="none" x="0" y="0" width="300" height="327"/>
        <rect fill="#FFFFFF" stroke="none" x="70" y="38" width="220" height="220"/>
        <rect fill="#ffffff" stroke="none" x="70" y="38" width="220" height="220"/>
        <g clip-path="url(#id0:TTpZMKwEUlRc)">
          <g>
            <g/>
          </g>
        </g>
        <g clip-path="url(#id0:IygvubPnvOMC)">
          <g>
            <g/>
          </g>
        </g>
        <g clip-path="url(#id0:ompZvOKdBOGK)">
          <g>
            <g fill="black" stroke="black" stroke-linejoin="bevel" stroke-miterlimit="10">
              <path fill="none" stroke="none"/>
              <path fill="" stroke="" d=""/>
              <g transform="translate(250.86800264328522,143.92592592592592)">
                <path fill="" stroke="" paint-order="fill stroke markers" d=" M -5 2.8867513459481287 L 5 2.8867513459481287 L 0 -5.773502691896256 Z"/>
                <g transform="translate(-250.86800264328522,-143.92592592592592)">
                  <path fill="" stroke="" d=""/>
                  <g transform="translate(262.8348328686659,86.88888888888886)">
                    <path fill="" stroke="" paint-order="fill stroke markers" d=" M -5 2.8867513459481287 L 5 2.8867513459481287 L 0 -5.773502691896256 Z"/>
                    <g transform="translate(-262.8348328686659,-86.88888888888886)"/>
                  </g>
                </g>
              </g>
            </g>
          </g>
        </g>
        <g clip-path="url(#id0:srZydJflLkML)">
          <g>
            <g fill="black" stroke="black" stroke-linejoin="bevel" stroke-miterlimit="10">
              <path fill="none" stroke="none"/>
              <path fill="" stroke="" d=""/>
              <g transform="translate(91.50785996474973,241.7037037037037)">
                <path fill="" stroke="" paint-order="fill stroke markers" d=" M -5 -5 L 5 -5 L 5 5 L -5 5 L -5 -5 Z"/>
                <g transform="translate(-91.50785996474973,-241.7037037037037)">
                  <path fill="" stroke="" d=""/>
                  <g transform="translate(104.08915151489013,233.55555555555554)">
                    <path fill="" stroke="" paint-order="fill stroke markers" d=" M -5 -5 L 5 -5 L 5 5 L -5 5 L -5 -5 Z"/>
                    <g transform="translate(-104.08915151489013,-233.55555555555554)">
                      <path fill="" stroke="" d=""/>
                      <g transform="translate(141.4475642778052,184.66666666666666)">
                        <path fill="" stroke="" paint-order="fill stroke markers" d=" M -5 -5 L 5 -5 L 5 5 L -5 5 L -5 -5 Z"/>
                        <g transform="translate(-141.4475642778052,-184.66666666666666)">
                          <path fill="" stroke="" d=""/>
                          <g transform="translate(168.61273140913931,184.66666666666666)">
                            <path fill="" stroke="" paint-order="fill stroke markers" d=" M -5 -5 L 5 -5 L 5 5 L -5 5 L -5 -5 Z"/>
                            <g transform="translate(-168.61273140913931,-184.66666666666666)">
                              <path fill="" stroke="" d=""/>
                              <g transform="translate(184.46328420730464,135.77777777777777)">
                                <path fill="" stroke="" paint-order="fill stroke markers" d=" M -5 -5 L 5 -5 L 5 5 L -5 5 L -5 -5 Z"/>
                                <g transform="translate(-184.46328420730464,-135.77777777777777)"/>
                              </g>
                            </g>
                          </g>
                        </g>
                      </g>
                    </g>
                  </g>
                </g>
              </g>
            </g>
          </g>
        </g>
        <g clip-path="url(#id0:zXifXDTBORsp)">
          <g>
            <g/>
            <g fill="black" stroke="black" stroke-linejoin="bevel" stroke-miterlimit="10">
              <path fill="#ffffff" stroke="#e5e5e5" paint-order="fill stroke markers" d=" M 80 48 L 213.78125 48 L 213.78125 111 L 80 111 L 80 48 Z" fill-opacity="0.95" stroke-linejoin="bevel" stroke-miterlimit="10" stroke-opacity="0.5"/>
              <text fill="#444444" stroke="none" font-family="helvetica" font-size="13pt" font-style="normal" font-weight="normal" text-decoration="normal" x="115" y="68" text-anchor="start" dominant-baseline="central">Overturning</text>
              <path fill="" stroke="" d=""/>
              <g transform="translate(100,68)">
                <path fill="" stroke="" paint-order="fill stroke markers" d=" M -4 2.309401076758503 L 4 2.309401076758503 L 0 -4.618802153517006 Z"/>
                <g transform="translate(-100,-68)">
                  <text fill="" stroke="none" font-family="helvetica" font-size="13pt" font-style="normal" font-weight="normal" text-decoration="normal" x="115" y="91" text-anchor="start" dominant-baseline="central">Perennial</text>
                  <path fill="" stroke="" d=""/>
                  <g transform="translate(100,91)">
                    <path fill="" stroke="" paint-order="fill stroke markers" d=" M -4 -4 L 4 -4 L 4 4 L -4 4 L -4 -4 Z"/>
                    <g transform="translate(-100,-91)"/>
                  </g>
                </g>
              </g>
            </g>
          </g>
        </g>
        <g>
          <g fill="#444444">
            <path fill="" stroke="none" d=""/>
            <g transform="translate(70,33)">
              <path fill="none" stroke="none"/>
              <text fill="" stroke="none" font-family="helvetica" font-size="15pt" font-style="normal" font-weight="bold" text-decoration="normal" x="0" y="0" text-anchor="start" dominant-baseline="text-after-edge">A</text>
            </g>
          </g>
        </g>
        <g>
          <g fill="black">
            <path fill="none" stroke="black" paint-order="fill stroke markers" d=" M 70 258 L 290 258" stroke-linejoin="bevel" stroke-miterlimit="10" stroke-width="2"/>
            <path fill="none" stroke="black" paint-order="fill stroke markers" d=" M 92 266 L 92 258" stroke-linejoin="bevel" stroke-miterlimit="10" stroke-width="2"/>
            <path fill="none" stroke="black" paint-order="fill stroke markers" d=" M 163 266 L 163 258" stroke-linejoin="bevel" stroke-miterlimit="10" stroke-width="2"/>
            <path fill="none" stroke="black" paint-order="fill stroke markers" d=" M 234 266 L 234 258" stroke-linejoin="bevel" stroke-miterlimit="10" stroke-width="2"/>
            <path fill="none" stroke="black" paint-order="fill stroke markers" d=" M 70 258 L 70 258" stroke-linejoin="bevel" stroke-miterlimit="10"/>
            <path fill="none" stroke="black" paint-order="fill stroke markers" d=" M 76 258 L 76 258" stroke-linejoin="bevel" stroke-miterlimit="10"/>
            <path fill="none" stroke="black" paint-order="fill stroke markers" d=" M 80 258 L 80 258" stroke-linejoin="bevel" stroke-miterlimit="10"/>
            <path fill="none" stroke="black" paint-order="fill stroke markers" d=" M 85 258 L 85 258" stroke-linejoin="bevel" stroke-miterlimit="10"/>
            <path fill="none" stroke="black" paint-order="fill stroke markers" d=" M 88 258 L 88 258" stroke-linejoin="bevel" stroke-miterlimit="10"/>
            <path fill="none" stroke="black" paint-order="fill stroke markers" d=" M 92 258 L 92 258" stroke-linejoin="bevel" stroke-miterlimit="10"/>
            <path fill="none" stroke="black" paint-order="fill stroke markers" d=" M 92 258 L 92 258" stroke-linejoin="bevel" stroke-miterlimit="10"/>
            <path fill="none" stroke="black" paint-order="fill stroke markers" d=" M 113 258 L 113 258" stroke-linejoin="bevel" stroke-miterlimit="10"/>
            <path fill="none" stroke="black" paint-order="fill stroke markers" d=" M 126 258 L 126 258" stroke-linejoin="bevel" stroke-miterlimit="10"/>
            <path fill="none" stroke="black" paint-order="fill stroke markers" d=" M 135 258 L 135 258" stroke-linejoin="bevel" stroke-miterlimit="10"/>
            <path fill="none" stroke="black" paint-order="fill stroke markers" d=" M 141 258 L 141 258" stroke-linejoin="bevel" stroke-miterlimit="10"/>
            <path fill="none" stroke="black" paint-order="fill stroke markers" d=" M 147 258 L 147 258" stroke-linejoin="bevel" stroke-miterlimit="10"/>
            <path fill="none" stroke="black" paint-order="fill stroke markers" d=" M 152 258 L 152 258" stroke-linejoin="bevel" stroke-miterlimit="10"/>
            <path fill="none" stroke="black" paint-order="fill stroke markers" d=" M 156 258 L 156 258" stroke-linejoin="bevel" stroke-miterlimit="10"/>
            <path fill="none" stroke="black" paint-order="fill stroke markers" d=" M 160 258 L 160 258" stroke-linejoin="bevel" stroke-miterlimit="10"/>
            <path fill="none" stroke="black" paint-order="fill stroke markers" d=" M 163 258 L 163 258" stroke-linejoin="bevel" stroke-miterlimit="10"/>
            <path fill="none" stroke="black" paint-order="fill stroke markers" d=" M 163 258 L 163 258" stroke-linejoin="bevel" stroke-miterlimit="10"/>
            <path fill="none" stroke="black" paint-order="fill stroke markers" d=" M 184 258 L 184 258" stroke-linejoin="bevel" stroke-miterlimit="10"/>
            <path fill="none" stroke="black" paint-order="fill stroke markers" d=" M 197 258 L 197 258" stroke-linejoin="bevel" stroke-miterlimit="10"/>
            <path fill="none" stroke="black" paint-order="fill stroke markers" d=" M 206 258 L 206 258" stroke-linejoin="bevel" stroke-miterlimit="10"/>
            <path fill="none" stroke="black" paint-order="fill stroke markers" d=" M 213 258 L 213 258" stroke-linejoin="bevel" stroke-miterlimit="10"/>
            <path fill="none" stroke="black" paint-order="fill stroke markers" d=" M 219 258 L 219 258" stroke-linejoin="bevel" stroke-miterlimit="10"/>
            <path fill="none" stroke="black" paint-order="fill stroke markers" d=" M 223 258 L 223 258" stroke-linejoin="bevel" stroke-miterlimit="10"/>
            <path fill="none" stroke="black" paint-order="fill stroke markers" d=" M 227 258 L 227 258" stroke-linejoin="bevel" stroke-miterlimit="10"/>
            <path fill="none" stroke="black" paint-order="fill stroke markers" d=" M 231 258 L 231 258" stroke-linejoin="bevel" stroke-miterlimit="10"/>
            <path fill="none" stroke="black" paint-order="fill stroke markers" d=" M 234 258 L 234 258" stroke-linejoin="bevel" stroke-miterlimit="10"/>
            <path fill="none" stroke="black" paint-order="fill stroke markers" d=" M 234 258 L 234 258" stroke-linejoin="bevel" stroke-miterlimit="10"/>
            <path fill="none" stroke="black" paint-order="fill stroke markers" d=" M 256 258 L 256 258" stroke-linejoin="bevel" stroke-miterlimit="10"/>
            <path fill="none" stroke="black" paint-order="fill stroke markers" d=" M 268 258 L 268 258" stroke-linejoin="bevel" stroke-miterlimit="10"/>
            <path fill="none" stroke="black" paint-order="fill stroke markers" d=" M 277 258 L 277 258" stroke-linejoin="bevel" stroke-miterlimit="10"/>
            <path fill="none" stroke="black" paint-order="fill stroke markers" d=" M 284 258 L 284 258" stroke-linejoin="bevel" stroke-miterlimit="10"/>
            <path fill="" stroke="black" paint-order="fill stroke markers" d=" M 290 258 L 290 258" stroke-linejoin="bevel" stroke-miterlimit="10"/>
            <g transform="translate(92,271) rotate(0,0,0)">
              <text fill="" stroke="none" font-family="helvetica" font-size="13pt" font-style="normal" font-weight="normal" text-decoration="normal" x="0" y="0" text-anchor="middle" dominant-baseline="hanging">0.01</text>
              <g transform="rotate(0,0,0) translate(-92,-271) translate(163,271) rotate(0,0,0)">
                <text fill="" stroke="none" font-family="helvetica" font-size="13pt" font-style="normal" font-weight="normal" text-decoration="normal" x="0" y="0" text-anchor="middle" dominant-baseline="hanging">0.1</text>
                <g transform="rotate(0,0,0) translate(-163,-271) translate(234,271) rotate(0,0,0)">
                  <text fill="" stroke="none" font-family="helvetica" font-size="13pt" font-style="normal" font-weight="normal" text-decoration="normal" x="0" y="0" text-anchor="middle" dominant-baseline="hanging">1</text>
                  <g transform="rotate(0,0,0) translate(-234,-271) translate(180,303) rotate(0,0,0)">
                    <text fill="" stroke="none" font-family="helvetica" font-size="15pt" font-style="normal" font-weight="normal" text-decoration="normal" x="0" y="0" text-anchor="middle" dominant-baseline="hanging">Nitrate flux (mmol N m&#8315;&#178; d&#8315;&#185;)</text>
                    <g transform="rotate(0,0,0) translate(-180,-303)"/>
                  </g>
                </g>
              </g>
            </g>
          </g>
        </g>
        <g>
          <g fill="black">
            <path fill="none" stroke="black" paint-order="fill stroke markers" d=" M 70 258 L 70 38" stroke-linejoin="bevel" stroke-miterlimit="10" stroke-width="2"/>
            <path fill="none" stroke="black" paint-order="fill stroke markers" d=" M 62 250 L 70 250" stroke-linejoin="bevel" stroke-miterlimit="10" stroke-width="2"/>
            <path fill="none" stroke="black" paint-order="fill stroke markers" d=" M 62 217 L 70 217" stroke-linejoin="bevel" stroke-miterlimit="10" stroke-width="2"/>
            <path fill="none" stroke="black" paint-order="fill stroke markers" d=" M 62 185 L 70 185" stroke-linejoin="bevel" stroke-miterlimit="10" stroke-width="2"/>
            <path fill="none" stroke="black" paint-order="fill stroke markers" d=" M 62 152 L 70 152" stroke-linejoin="bevel" stroke-miterlimit="10" stroke-width="2"/>
            <path fill="none" stroke="black" paint-order="fill stroke markers" d=" M 62 119 L 70 119" stroke-linejoin="bevel" stroke-miterlimit="10" stroke-width="2"/>
            <path fill="none" stroke="black" paint-order="fill stroke markers" d=" M 62 87 L 70 87" stroke-linejoin="bevel" stroke-miterlimit="10" stroke-width="2"/>
            <path fill="none" stroke="black" paint-order="fill stroke markers" d=" M 62 54 L 70 54" stroke-linejoin="bevel" stroke-miterlimit="10" stroke-width="2"/>
            <path fill="none" stroke="black" paint-order="fill stroke markers" d=" M 70 256 L 70 256" stroke-linejoin="bevel" stroke-miterlimit="10"/>
            <path fill="none" stroke="black" paint-order="fill stroke markers" d=" M 70 250 L 70 250" stroke-linejoin="bevel" stroke-miterlimit="10"/>
            <path fill="none" stroke="black" paint-order="fill stroke markers" d=" M 70 243 L 70 243" stroke-linejoin="bevel" stroke-miterlimit="10"/>
            <path fill="none" stroke="black" paint-order="fill stroke markers" d=" M 70 237 L 70 237" stroke-linejoin="bevel" stroke-miterlimit="10"/>
            <path fill="none" stroke="black" paint-order="fill stroke markers" d=" M 70 230 L 70 230" stroke-linejoin="bevel" stroke-miterlimit="10"/>
            <path fill="none" stroke="black" paint-order="fill stroke markers" d=" M 70 224 L 70 224" stroke-linejoin="bevel" stroke-miterlimit="10"/>
            <path fill="none" stroke="black" paint-order="fill stroke markers" d=" M 70 217 L 70 217" stroke-linejoin="bevel" stroke-miterlimit="10"/>
            <path fill="none" stroke="black" paint-order="fill stroke markers" d=" M 70 211 L 70 211" stroke-linejoin="bevel" stroke-miterlimit="10"/>
            <path fill="none" stroke="black" paint-order="fill stroke markers" d=" M 70 204 L 70 204" stroke-linejoin="bevel" stroke-miterlimit="10"/>
            <path fill="none" stroke="black" paint-order="fill stroke markers" d=" M 70 198 L 70 198" stroke-linejoin="bevel" stroke-miterlimit="10"/>
            <path fill="none" stroke="black" paint-order="fill stroke markers" d=" M 70 191 L 70 191" stroke-linejoin="bevel" stroke-miterlimit="10"/>
            <path fill="none" stroke="black" paint-order="fill stroke markers" d=" M 70 185 L 70 185" stroke-linejoin="bevel" stroke-miterlimit="10"/>
            <path fill="none" stroke="black" paint-order="fill stroke markers" d=" M 70 178 L 70 178" stroke-linejoin="bevel" stroke-miterlimit="10"/>
            <path fill="none" stroke="black" paint-order="fill stroke markers" d=" M 70 172 L 70 172" stroke-linejoin="bevel" stroke-miterlimit="10"/>
            <path fill="none" stroke="black" paint-order="fill stroke markers" d=" M 70 165 L 70 165" stroke-linejoin="bevel" stroke-miterlimit="10"/>
            <path fill="none" stroke="black" paint-order="fill stroke markers" d=" M 70 159 L 70 159" stroke-linejoin="bevel" stroke-miterlimit="10"/>
            <path fill="none" stroke="black" paint-order="fill stroke markers" d=" M 70 152 L 70 152" stroke-linejoin="bevel" stroke-miterlimit="10"/>
            <path fill="none" stroke="black" paint-order="fill stroke markers" d=" M 70 146 L 70 146" stroke-linejoin="bevel" stroke-miterlimit="10"/>
            <path fill="none" stroke="black" paint-order="fill stroke markers" d=" M 70 139 L 70 139" stroke-linejoin="bevel" stroke-miterlimit="10"/>
            <path fill="none" stroke="black" paint-order="fill stroke markers" d=" M 70 133 L 70 133" stroke-linejoin="bevel" stroke-miterlimit="10"/>
            <path fill="none" stroke="black" paint-order="fill stroke markers" d=" M 70 126 L 70 126" stroke-linejoin="bevel" stroke-miterlimit="10"/>
            <path fill="none" stroke="black" paint-order="fill stroke markers" d=" M 70 119 L 70 119" stroke-linejoin="bevel" stroke-miterlimit="10"/>
            <path fill="none" stroke="black" paint-order="fill stroke markers" d=" M 70 113 L 70 113" stroke-linejoin="bevel" stroke-miterlimit="10"/>
            <path fill="none" stroke="black" paint-order="fill stroke markers" d=" M 70 106 L 70 106" stroke-linejoin="bevel" stroke-miterlimit="10"/>
            <path fill="none" stroke="black" paint-order="fill stroke markers" d=" M 70 100 L 70 100" stroke-linejoin="bevel" stroke-miterlimit="10"/>
            <path fill="none" stroke="black" paint-order="fill stroke markers" d=" M 70 93 L 70 93" stroke-linejoin="bevel" stroke-miterlimit="10"/>
            <path fill="none" stroke="black" paint-order="fill stroke markers" d=" M 70 87 L 70 87" stroke-linejoin="bevel" stroke-miterlimit="10"/>
            <path fill="none" stroke="black" paint-order="fill stroke markers" d=" M 70 80 L 70 80" stroke-linejoin="bevel" stroke-miterlimit="10"/>
            <path fill="none" stroke="black" paint-order="fill stroke markers" d=" M 70 74 L 70 74" stroke-linejoin="bevel" stroke-miterlimit="10"/>
            <path fill="none" stroke="black" paint-order="fill stroke markers" d=" M 70 67 L 70 67" stroke-linejoin="bevel" stroke-miterlimit="10"/>
            <path fill="none" stroke="black" paint-order="fill stroke markers" d=" M 70 61 L 70 61" stroke-linejoin="bevel" stroke-miterlimit="10"/>
            <path fill="none" stroke="black" paint-order="fill stroke markers" d=" M 70 54 L 70 54" stroke-linejoin="bevel" stroke-miterlimit="10"/>
            <path fill="none" stroke="black" paint-order="fill stroke markers" d=" M 70 48 L 70 48" stroke-linejoin="bevel" stroke-miterlimit="10"/>
            <path fill="" stroke="black" paint-order="fill stroke markers" d=" M 70 41 L 70 41" stroke-linejoin="bevel" stroke-miterlimit="10"/>
            <g transform="translate(57,250) rotate(0,0,0)">
              <text fill="" stroke="none" font-family="helvetica" font-size="13pt" font-style="normal" font-weight="normal" text-decoration="normal" x="0" y="0" text-anchor="end" dominant-baseline="central">0</text>
              <g transform="rotate(0,0,0) translate(-57,-250) translate(57,217) rotate(0,0,0)">
                <text fill="" stroke="none" font-family="helvetica" font-size="13pt" font-style="normal" font-weight="normal" text-decoration="normal" x="0" y="0" text-anchor="end" dominant-baseline="central">2</text>
                <g transform="rotate(0,0,0) translate(-57,-217) translate(57,185) rotate(0,0,0)">
                  <text fill="" stroke="none" font-family="helvetica" font-size="13pt" font-style="normal" font-weight="normal" text-decoration="normal" x="0" y="0" text-anchor="end" dominant-baseline="central">4</text>
                  <g transform="rotate(0,0,0) translate(-57,-185) translate(57,152) rotate(0,0,0)">
                    <text fill="" stroke="none" font-family="helvetica" font-size="13pt" font-style="normal" font-weight="normal" text-decoration="normal" x="0" y="0" text-anchor="end" dominant-baseline="central">6</text>
                    <g transform="rotate(0,0,0) translate(-57,-152) translate(57,119) rotate(0,0,0)">
                      <text fill="" stroke="none" font-family="helvetica" font-size="13pt" font-style="normal" font-weight="normal" text-decoration="normal" x="0" y="0" text-anchor="end" dominant-baseline="central">8</text>
                      <g transform="rotate(0,0,0) translate(-57,-119) translate(57,87) rotate(0,0,0)">
                        <text fill="" stroke="none" font-family="helvetica" font-size="13pt" font-style="normal" font-weight="normal" text-decoration="normal" x="0" y="0" text-anchor="end" dominant-baseline="central">10</text>
                        <g transform="rotate(0,0,0) translate(-57,-87) translate(57,54) rotate(0,0,0)">
                          <text fill="" stroke="none" font-family="helvetica" font-size="13pt" font-style="normal" font-weight="normal" text-decoration="normal" x="0" y="0" text-anchor="end" dominant-baseline="central">12</text>
                          <g transform="rotate(0,0,0) translate(-57,-54) translate(24,148) rotate(-90,0,0)">
                            <text fill="" stroke="none" font-family="helvetica" font-size="15pt" font-style="normal" font-weight="normal" text-decoration="normal" x="0" y="0" text-anchor="middle" dominant-baseline="alphabetic">Pre-bloom sfc. NO&#8323;  (&#181;M)</text>
                            <g transform="rotate(90,0,0) translate(-24,-148)"/>
                          </g>
                        </g>
                      </g>
                    </g>
                  </g>
                </g>
              </g>
            </g>
          </g>
        </g>
        <g clip-path="url(#id0:KGHbixtoLrzo)">
          <g/>
        </g>
      </g>
    </g>
  </g>
  <g id="id1:id1" transform="translate(300.0,0)">
    <g>
      <g transform="scale(1,1) translate(0.5,0.5)">
        <rect fill="#FFFFFF" stroke="none" x="0" y="0" width="344" height="327"/>
        <rect fill="#ffffff" stroke="none" x="0" y="0" width="344" height="327"/>
        <rect fill="#FFFFFF" stroke="none" x="34" y="38" width="300" height="220"/>
        <rect fill="#ffffff" stroke="none" x="34" y="38" width="300" height="220"/>
        <g clip-path="url(#id1:lSmKfnXbtkdC)">
          <g>
            <g/>
          </g>
        </g>
        <g clip-path="url(#id1:wEBEAqDuoCKA)">
          <g>
            <g/>
          </g>
        </g>
        <g clip-path="url(#id1:CtZOzwlQPnGz)">
          <g>
            <path fill="none" stroke="#1f77b3" paint-order="fill stroke markers" d=" M 83.09090909090912 114.3188148148148 L 83.09090909090912 37.73925925925923" stroke-linejoin="bevel" stroke-miterlimit="10" stroke-width="3"/>
            <path fill="none" stroke="#1f77b3" paint-order="fill stroke markers" d=" M 137.63636363636374 164.40276543209876 L 137.63636363636374 70.59259259259258" stroke-linejoin="bevel" stroke-miterlimit="10" stroke-width="3"/>
            <path fill="none" stroke="#1f77b3" paint-order="fill stroke markers" d=" M 192.18181818181824 204.80237037037037 L 192.18181818181824 67.48977777777776" stroke-linejoin="bevel" stroke-miterlimit="10" stroke-width="3"/>
            <path fill="none" stroke="#1f77b3" paint-order="fill stroke markers" d=" M 246.7272727272728 193.43407407407406 L 246.7272727272728 87.01274074074072" stroke-linejoin="bevel" stroke-miterlimit="10" stroke-width="3"/>
            <path fill="none" stroke="#1f77b3" paint-order="fill stroke markers" d=" M 301.2727272727273 248.22222222222223 L 301.2727272727273 195.74814814814815" stroke-linejoin="bevel" stroke-miterlimit="10" stroke-width="3"/>
          </g>
        </g>
        <g clip-path="url(#id1:SywGHPVgqosC)">
          <g>
            <path fill="none" stroke="#ff7e0e" paint-order="fill stroke markers" d=" M 88.54545454545462 NaN L 88.54545454545462 NaN" stroke-linejoin="bevel" stroke-miterlimit="10" stroke-width="3"/>
            <path fill="none" stroke="#ff7e0e" paint-order="fill stroke markers" d=" M 143.09090909090912 102.83970370370369 L 143.09090909090912 83.43407407407406" stroke-linejoin="bevel" stroke-miterlimit="10" stroke-width="3"/>
            <path fill="none" stroke="#ff7e0e" paint-order="fill stroke markers" d=" M 197.63636363636363 176.525037037037 L 197.63636363636363 51.83229629629628" stroke-linejoin="bevel" stroke-miterlimit="10" stroke-width="3"/>
            <path fill="none" stroke="#ff7e0e" paint-order="fill stroke markers" d=" M 252.18181818181824 165.79555555555555 L 252.18181818181824 113.32148148148147" stroke-linejoin="bevel" stroke-miterlimit="10" stroke-width="3"/>
            <path fill="none" stroke="#ff7e0e" paint-order="fill stroke markers" d=" M 306.72727272727275 234.18785185185183 L 306.72727272727275 149.3037037037037" stroke-linejoin="bevel" stroke-miterlimit="10" stroke-width="3"/>
          </g>
        </g>
        <g clip-path="url(#id1:uaHRoNKtEfhT)">
          <g>
            <path fill="none" stroke="#2ba02b" paint-order="fill stroke markers" d=" M 94 70.1884444444444 L 94 52.405925925925914" stroke-linejoin="bevel" stroke-miterlimit="10" stroke-width="3"/>
            <path fill="none" stroke="#2ba02b" paint-order="fill stroke markers" d=" M 148.54545454545462 99.33925925925922 L 148.54545454545462 66.02962962962962" stroke-linejoin="bevel" stroke-miterlimit="10" stroke-width="3"/>
            <path fill="none" stroke="#2ba02b" paint-order="fill stroke markers" d=" M 203.09090909090912 128.2945185185185 L 203.09090909090912 54.296296296296276" stroke-linejoin="bevel" stroke-miterlimit="10" stroke-width="3"/>
            <path fill="none" stroke="#2ba02b" paint-order="fill stroke markers" d=" M 257.6363636363637 184.73185185185181 L 257.6363636363637 76.01599999999996" stroke-linejoin="bevel" stroke-miterlimit="10" stroke-width="3"/>
            <path fill="none" stroke="#2ba02b" paint-order="fill stroke markers" d=" M 312.1818181818182 231.0882962962963 L 312.1818181818182 89.3659259259259" stroke-linejoin="bevel" stroke-miterlimit="10" stroke-width="3"/>
          </g>
        </g>
        <g clip-path="url(#id1:pCXfoSRSafac)">
          <g>
            <g>
              <path fill="none" stroke="none"/>
              <path fill="none" stroke="#1f77b3" paint-order="fill stroke markers" d=" M 88.54545454545462 76.41851851851851 L 143.09090909090912 114.60667581161405 L 197.63636363636363 134.5977011494253 L 252.18181818181824 138.68754538852576 L 306.72727272727275 215.23536439665472" stroke-linejoin="bevel" stroke-miterlimit="10" stroke-width="5"/>
            </g>
          </g>
        </g>
        <g clip-path="url(#id1:zrnGeRCDCMoQ)">
          <g>
            <g>
              <path fill="none" stroke="none"/>
              <path fill="none" stroke="#ff7e0e" paint-order="fill stroke markers" d=" M 143.09090909090912 92.38306878306872 L 197.63636363636363 114.79901234567902 L 252.18181818181824 124.77777777777776 L 306.72727272727275 192.29876543209875" stroke-linejoin="bevel" stroke-miterlimit="10" stroke-width="5"/>
            </g>
          </g>
        </g>
        <g clip-path="url(#id1:aoloxqbgNrpp)">
          <g>
            <g>
              <path fill="none" stroke="none"/>
              <path fill="none" stroke="#2ba02b" paint-order="fill stroke markers" d=" M 88.54545454545462 60.39111111111109 L 143.09090909090912 82.90607407407404 L 197.63636363636363 101.5947293447293 L 252.18181818181824 112.10202655485676 L 306.72727272727275 148.4549382716049" stroke-linejoin="bevel" stroke-miterlimit="10" stroke-width="5"/>
            </g>
          </g>
        </g>
        <g clip-path="url(#id1:VdJzkwuTiioH)">
          <g>
            <g/>
            <g>
              <path fill="#ffffff" stroke="#e5e5e5" paint-order="fill stroke markers" d=" M 44 162 L 132.453125 162 L 132.453125 248 L 44 248 L 44 162 Z" fill-opacity="0.95" stroke-linejoin="bevel" stroke-miterlimit="10" stroke-opacity="0.5"/>
              <text fill="#444444" stroke="none" font-family="helvetica" font-size="13pt" font-style="normal" font-weight="normal" text-decoration="normal" x="79" y="182" text-anchor="start" dominant-baseline="central">Basin</text>
              <g>
                <path fill="none" stroke="#1f77b3" paint-order="fill stroke markers" d=" M 54 182 L 74 182" stroke-linejoin="bevel" stroke-miterlimit="10" stroke-width="5"/>
              </g>
              <text fill="#444444" stroke="none" font-family="helvetica" font-size="13pt" font-style="normal" font-weight="normal" text-decoration="normal" x="79" y="205" text-anchor="start" dominant-baseline="central">Shelf</text>
              <g>
                <path fill="none" stroke="#ff7e0e" paint-order="fill stroke markers" d=" M 54 205 L 74 205" stroke-linejoin="bevel" stroke-miterlimit="10" stroke-width="5"/>
              </g>
              <text fill="#444444" stroke="none" font-family="helvetica" font-size="13pt" font-style="normal" font-weight="normal" text-decoration="normal" x="79" y="228" text-anchor="start" dominant-baseline="central">Slope</text>
              <g>
                <path fill="none" stroke="#2ba02b" paint-order="fill stroke markers" d=" M 54 228 L 74 228" stroke-linejoin="bevel" stroke-miterlimit="10" stroke-width="5"/>
              </g>
            </g>
          </g>
        </g>
        <g>
          <g fill="#444444">
            <path fill="" stroke="none" d=""/>
            <g transform="translate(34,33)">
              <path fill="none" stroke="none"/>
              <text fill="" stroke="none" font-family="helvetica" font-size="15pt" font-style="normal" font-weight="bold" text-decoration="normal" x="0" y="0" text-anchor="start" dominant-baseline="text-after-edge">B</text>
            </g>
          </g>
        </g>
        <g>
          <g fill="black">
            <path fill="none" stroke="black" paint-order="fill stroke markers" d=" M 34 258 L 334 258" stroke-linejoin="bevel" stroke-miterlimit="10" stroke-width="2"/>
            <path fill="none" stroke="black" paint-order="fill stroke markers" d=" M 61 266 L 61 258" stroke-linejoin="bevel" stroke-miterlimit="10" stroke-width="2"/>
            <path fill="none" stroke="black" paint-order="fill stroke markers" d=" M 170 266 L 170 258" stroke-linejoin="bevel" stroke-miterlimit="10" stroke-width="2"/>
            <path fill="" stroke="black" paint-order="fill stroke markers" d=" M 279 266 L 279 258" stroke-linejoin="bevel" stroke-miterlimit="10" stroke-width="2"/>
            <g transform="translate(61,271) rotate(0,0,0)">
              <text fill="" stroke="none" font-family="helvetica" font-size="13pt" font-style="normal" font-weight="normal" text-decoration="normal" x="0" y="0" text-anchor="middle" dominant-baseline="hanging">10&#8315;&#8310;</text>
              <g transform="rotate(0,0,0) translate(-61,-271) translate(170,271) rotate(0,0,0)">
                <text fill="" stroke="none" font-family="helvetica" font-size="13pt" font-style="normal" font-weight="normal" text-decoration="normal" x="0" y="0" text-anchor="middle" dominant-baseline="hanging">10&#8315;&#8309;</text>
                <g transform="rotate(0,0,0) translate(-170,-271) translate(279,271) rotate(0,0,0)">
                  <text fill="" stroke="none" font-family="helvetica" font-size="13pt" font-style="normal" font-weight="normal" text-decoration="normal" x="0" y="0" text-anchor="middle" dominant-baseline="hanging">10&#8315;&#8308;</text>
                  <g transform="rotate(0,0,0) translate(-279,-271) translate(184,303) rotate(0,0,0)">
                    <text fill="" stroke="none" font-family="helvetica" font-size="15pt" font-style="normal" font-weight="normal" text-decoration="normal" x="0" y="0" text-anchor="middle" dominant-baseline="hanging">Brunt-V&#228;is&#228;l&#228; frequency (s&#8315;&#178;)</text>
                    <g transform="rotate(0,0,0) translate(-184,-303)"/>
                  </g>
                </g>
              </g>
            </g>
          </g>
        </g>
        <g>
          <g fill="#444444">
            <path fill="none" stroke="black" paint-order="fill stroke markers" d=" M 34 258 L 34 38" stroke-linejoin="bevel" stroke-miterlimit="10" stroke-width="2"/>
            <path fill="none" stroke="black" paint-order="fill stroke markers" d=" M 26 250 L 34 250" stroke-linejoin="bevel" stroke-miterlimit="10" stroke-width="2"/>
            <path fill="none" stroke="black" paint-order="fill stroke markers" d=" M 26 217 L 34 217" stroke-linejoin="bevel" stroke-miterlimit="10" stroke-width="2"/>
            <path fill="none" stroke="black" paint-order="fill stroke markers" d=" M 26 185 L 34 185" stroke-linejoin="bevel" stroke-miterlimit="10" stroke-width="2"/>
            <path fill="none" stroke="black" paint-order="fill stroke markers" d=" M 26 152 L 34 152" stroke-linejoin="bevel" stroke-miterlimit="10" stroke-width="2"/>
            <path fill="none" stroke="black" paint-order="fill stroke markers" d=" M 26 119 L 34 119" stroke-linejoin="bevel" stroke-miterlimit="10" stroke-width="2"/>
            <path fill="none" stroke="black" paint-order="fill stroke markers" d=" M 26 87 L 34 87" stroke-linejoin="bevel" stroke-miterlimit="10" stroke-width="2"/>
            <path fill="none" stroke="black" paint-order="fill stroke markers" d=" M 26 54 L 34 54" stroke-linejoin="bevel" stroke-miterlimit="10" stroke-width="2"/>
            <path fill="none" stroke="black" paint-order="fill stroke markers" d=" M 34 256 L 34 256" stroke-linejoin="bevel" stroke-miterlimit="10"/>
            <path fill="none" stroke="black" paint-order="fill stroke markers" d=" M 34 250 L 34 250" stroke-linejoin="bevel" stroke-miterlimit="10"/>
            <path fill="none" stroke="black" paint-order="fill stroke markers" d=" M 34 243 L 34 243" stroke-linejoin="bevel" stroke-miterlimit="10"/>
            <path fill="none" stroke="black" paint-order="fill stroke markers" d=" M 34 237 L 34 237" stroke-linejoin="bevel" stroke-miterlimit="10"/>
            <path fill="none" stroke="black" paint-order="fill stroke markers" d=" M 34 230 L 34 230" stroke-linejoin="bevel" stroke-miterlimit="10"/>
            <path fill="none" stroke="black" paint-order="fill stroke markers" d=" M 34 224 L 34 224" stroke-linejoin="bevel" stroke-miterlimit="10"/>
            <path fill="none" stroke="black" paint-order="fill stroke markers" d=" M 34 217 L 34 217" stroke-linejoin="bevel" stroke-miterlimit="10"/>
            <path fill="none" stroke="black" paint-order="fill stroke markers" d=" M 34 211 L 34 211" stroke-linejoin="bevel" stroke-miterlimit="10"/>
            <path fill="none" stroke="black" paint-order="fill stroke markers" d=" M 34 204 L 34 204" stroke-linejoin="bevel" stroke-miterlimit="10"/>
            <path fill="none" stroke="black" paint-order="fill stroke markers" d=" M 34 198 L 34 198" stroke-linejoin="bevel" stroke-miterlimit="10"/>
            <path fill="none" stroke="black" paint-order="fill stroke markers" d=" M 34 191 L 34 191" stroke-linejoin="bevel" stroke-miterlimit="10"/>
            <path fill="none" stroke="black" paint-order="fill stroke markers" d=" M 34 185 L 34 185" stroke-linejoin="bevel" stroke-miterlimit="10"/>
            <path fill="none" stroke="black" paint-order="fill stroke markers" d=" M 34 178 L 34 178" stroke-linejoin="bevel" stroke-miterlimit="10"/>
            <path fill="none" stroke="black" paint-order="fill stroke markers" d=" M 34 172 L 34 172" stroke-linejoin="bevel" stroke-miterlimit="10"/>
            <path fill="none" stroke="black" paint-order="fill stroke markers" d=" M 34 165 L 34 165" stroke-linejoin="bevel" stroke-miterlimit="10"/>
            <path fill="none" stroke="black" paint-order="fill stroke markers" d=" M 34 159 L 34 159" stroke-linejoin="bevel" stroke-miterlimit="10"/>
            <path fill="none" stroke="black" paint-order="fill stroke markers" d=" M 34 152 L 34 152" stroke-linejoin="bevel" stroke-miterlimit="10"/>
            <path fill="none" stroke="black" paint-order="fill stroke markers" d=" M 34 146 L 34 146" stroke-linejoin="bevel" stroke-miterlimit="10"/>
            <path fill="none" stroke="black" paint-order="fill stroke markers" d=" M 34 139 L 34 139" stroke-linejoin="bevel" stroke-miterlimit="10"/>
            <path fill="none" stroke="black" paint-order="fill stroke markers" d=" M 34 133 L 34 133" stroke-linejoin="bevel" stroke-miterlimit="10"/>
            <path fill="none" stroke="black" paint-order="fill stroke markers" d=" M 34 126 L 34 126" stroke-linejoin="bevel" stroke-miterlimit="10"/>
            <path fill="none" stroke="black" paint-order="fill stroke markers" d=" M 34 119 L 34 119" stroke-linejoin="bevel" stroke-miterlimit="10"/>
            <path fill="none" stroke="black" paint-order="fill stroke markers" d=" M 34 113 L 34 113" stroke-linejoin="bevel" stroke-miterlimit="10"/>
            <path fill="none" stroke="black" paint-order="fill stroke markers" d=" M 34 106 L 34 106" stroke-linejoin="bevel" stroke-miterlimit="10"/>
            <path fill="none" stroke="black" paint-order="fill stroke markers" d=" M 34 100 L 34 100" stroke-linejoin="bevel" stroke-miterlimit="10"/>
            <path fill="none" stroke="black" paint-order="fill stroke markers" d=" M 34 93 L 34 93" stroke-linejoin="bevel" stroke-miterlimit="10"/>
            <path fill="none" stroke="black" paint-order="fill stroke markers" d=" M 34 87 L 34 87" stroke-linejoin="bevel" stroke-miterlimit="10"/>
            <path fill="none" stroke="black" paint-order="fill stroke markers" d=" M 34 80 L 34 80" stroke-linejoin="bevel" stroke-miterlimit="10"/>
            <path fill="none" stroke="black" paint-order="fill stroke markers" d=" M 34 74 L 34 74" stroke-linejoin="bevel" stroke-miterlimit="10"/>
            <path fill="none" stroke="black" paint-order="fill stroke markers" d=" M 34 67 L 34 67" stroke-linejoin="bevel" stroke-miterlimit="10"/>
            <path fill="none" stroke="black" paint-order="fill stroke markers" d=" M 34 61 L 34 61" stroke-linejoin="bevel" stroke-miterlimit="10"/>
            <path fill="none" stroke="black" paint-order="fill stroke markers" d=" M 34 54 L 34 54" stroke-linejoin="bevel" stroke-miterlimit="10"/>
            <path fill="none" stroke="black" paint-order="fill stroke markers" d=" M 34 48 L 34 48" stroke-linejoin="bevel" stroke-miterlimit="10"/>
            <path fill="" stroke="black" paint-order="fill stroke markers" d=" M 34 41 L 34 41" stroke-linejoin="bevel" stroke-miterlimit="10"/>
            <g transform="translate(21,250) rotate(0,0,0)">
              <text fill="" stroke="none" font-family="helvetica" font-size="13pt" font-style="normal" font-weight="normal" text-decoration="normal" x="0" y="0" text-anchor="end" dominant-baseline="central">0</text>
              <g transform="rotate(0,0,0) translate(-21,-250) translate(21,217) rotate(0,0,0)">
                <text fill="" stroke="none" font-family="helvetica" font-size="13pt" font-style="normal" font-weight="normal" text-decoration="normal" x="0" y="0" text-anchor="end" dominant-baseline="central">2</text>
                <g transform="rotate(0,0,0) translate(-21,-217) translate(21,185) rotate(0,0,0)">
                  <text fill="" stroke="none" font-family="helvetica" font-size="13pt" font-style="normal" font-weight="normal" text-decoration="normal" x="0" y="0" text-anchor="end" dominant-baseline="central">4</text>
                  <g transform="rotate(0,0,0) translate(-21,-185) translate(21,152) rotate(0,0,0)">
                    <text fill="" stroke="none" font-family="helvetica" font-size="13pt" font-style="normal" font-weight="normal" text-decoration="normal" x="0" y="0" text-anchor="end" dominant-baseline="central">6</text>
                    <g transform="rotate(0,0,0) translate(-21,-152) translate(21,119) rotate(0,0,0)">
                      <text fill="" stroke="none" font-family="helvetica" font-size="13pt" font-style="normal" font-weight="normal" text-decoration="normal" x="0" y="0" text-anchor="end" dominant-baseline="central">8</text>
                      <g transform="rotate(0,0,0) translate(-21,-119) translate(21,87) rotate(0,0,0)">
                        <text fill="" stroke="none" font-family="helvetica" font-size="13pt" font-style="normal" font-weight="normal" text-decoration="normal" x="0" y="0" text-anchor="end" dominant-baseline="central">10</text>
                        <g transform="rotate(0,0,0) translate(-21,-87) translate(21,54) rotate(0,0,0)">
                          <text fill="" stroke="none" font-family="helvetica" font-size="13pt" font-style="normal" font-weight="normal" text-decoration="normal" x="0" y="0" text-anchor="end" dominant-baseline="central">12</text>
                          <g transform="rotate(0,0,0) translate(-21,-54)"/>
                        </g>
                      </g>
                    </g>
                  </g>
                </g>
              </g>
            </g>
          </g>
        </g>
        <g clip-path="url(#id1:dzmxIUwExENw)">
          <g/>
        </g>
      </g>
    </g>
  </g>
</svg>
