<svg version="1.1" xmlns="http://www.w3.org/2000/svg" xmlns:xlink="http://www.w3.org/1999/xlink" width="800" height="400" style="width: 800px; height: 400px;"><defs><clipPath id="NSSUATWldnPa"><path fill="none" stroke="none" d=" M 88 10 L 790 10 L 790 247 L 88 247 L 88 10 Z"/></clipPath><clipPath id="MafzLNBrwWSB"><path fill="none" stroke="none" d=" M 88 10 L 790 10 L 790 247 L 88 247 L 88 10 Z"/></clipPath><clipPath id="GIZQdaIOKGZZ"><path fill="none" stroke="none" d=" M 88 10 L 790 10 L 790 247 L 88 247 L 88 10 Z"/></clipPath><clipPath id="ZeRGogPwORzP"><path fill="none" stroke="none" d=" M 88 10 L 790 10 L 790 247 L 88 247 L 88 10 Z"/></clipPath></defs><g><g transform="scale(1,1) translate(0.5,0.5)"><rect fill="#FFFFFF" stroke="none" x="0" y="0" width="800" height="400"/><rect fill="#ffffff" stroke="none" x="0" y="0" width="800" height="400"/><rect fill="#FFFFFF" stroke="none" x="88" y="10" width="702" height="237"/><rect fill="#ffffff" stroke="none" x="88" y="10" width="702" height="237"/><g clip-path="url(#NSSUATWldnPa)"><g><g/></g></g><g clip-path="url(#MafzLNBrwWSB)"><g><g/></g></g><g clip-path="url(#GIZQdaIOKGZZ)"><g><g><path fill="none" stroke="none"/><path fill="#AA5F77" stroke="none" paint-order="stroke fill markers" d=" M 92.33333333333334 70.79453521111637 L 127 70.79453521111637 L 127 247 L 92.33333333333334 247 L 92.33333333333334 70.79453521111637 Z"/><path fill="none" stroke="black" paint-order="fill stroke markers" d=" M 92.33333333333334 70.79453521111637 L 127 70.79453521111637 L 127 247 L 92.33333333333334 247 L 92.33333333333334 70.79453521111637 Z" stroke-linejoin="bevel" stroke-miterlimit="10" stroke-width="3"/><path fill="#AA5F77" stroke="none" paint-order="stroke fill markers" d=" M 283 57.56273931490904 L 317.66666666666674 57.56273931490904 L 317.66666666666674 247 L 283 247 L 283 57.56273931490904 Z"/><path fill="none" stroke="black" paint-order="fill stroke markers" d=" M 283 57.56273931490904 L 317.66666666666674 57.56273931490904 L 317.66666666666674 247 L 283 247 L 283 57.56273931490904 Z" stroke-linejoin="bevel" stroke-miterlimit="10" stroke-width="3"/><path fill="#AA5F77" stroke="none" paint-order="stroke fill markers" d=" M 473.6666666666667 161.74468156223764 L 508.3333333333334 161.74468156223764 L 508.3333333333334 247 L 473.6666666666667 247 L 473.6666666666667 161.74468156223764 Z"/><path fill="none" stroke="black" paint-order="fill stroke markers" d=" M 473.6666666666667 161.74468156223764 L 508.3333333333334 161.74468156223764 L 508.3333333333334 247 L 473.6666666666667 247 L 473.6666666666667 161.74468156223764 Z" stroke-linejoin="bevel" stroke-miterlimit="10" stroke-width="3"/><path fill="#AA5F77" stroke="none" paint-order="stroke fill markers" d=" M 664.3333333333334 239.34410897236356 L 699.0000000000001 239.34410897236356 L 699.0000000000001 247 L 664.3333333333334 247 L 664.3333333333334 239.34410897236356 Z"/><path fill="none" stroke="black" paint-order="fill stroke markers" d=" M 664.3333333333334 239.34410897236356 L 699.0000000000001 239.34410897236356 L 699.0000000000001 247 L 664.3333333333334 247 L 664.3333333333334 239.34410897236356 Z" stroke-linejoin="bevel" stroke-miterlimit="10" stroke-width="3"/><path fill="#2DA3A2" stroke="none" paint-order="stroke fill markers" d=" M 179 136.12381557403916 L 213.66666666666669 136.12381557403916 L 213.66666666666669 247 L 179 247 L 179 136.12381557403916 Z"/><path fill="none" stroke="black" paint-order="fill stroke markers" d=" M 179 136.12381557403916 L 213.66666666666669 136.12381557403916 L 213.66666666666669 247 L 179 247 L 179 136.12381557403916 Z" stroke-linejoin="bevel" stroke-miterlimit="10" stroke-width="3"/><path fill="#2DA3A2" stroke="none" paint-order="stroke fill markers" d=" M 369.66666666666674 54.527523682437476 L 404.33333333333337 54.527523682437476 L 404.33333333333337 247 L 369.66666666666674 247 L 369.66666666666674 54.527523682437476 Z"/><path fill="none" stroke="black" paint-order="fill stroke markers" d=" M 369.66666666666674 54.527523682437476 L 404.33333333333337 54.527523682437476 L 404.33333333333337 247 L 369.66666666666674 247 L 369.66666666666674 54.527523682437476 Z" stroke-linejoin="bevel" stroke-miterlimit="10" stroke-width="3"/><path fill="#2DA3A2" stroke="none" paint-order="stroke fill markers" d=" M 560.3333333333335 169.47805143929477 L 595 169.47805143929477 L 595 247 L 560.3333333333335 247 L 560.3333333333335 169.47805143929477 Z"/><path fill="none" stroke="black" paint-order="fill stroke markers" d=" M 560.3333333333335 169.47805143929477 L 595 169.47805143929477 L 595 247 L 560.3333333333335 247 L 560.3333333333335 169.47805143929477 Z" stroke-linejoin="bevel" stroke-miterlimit="10" stroke-width="3"/><path fill="#2DA3A2" stroke="none" paint-order="stroke fill markers" d=" M 751 226.11723994895794 L 785.6666666666667 226.11723994895794 L 785.6666666666667 247 L 751 247 L 751 226.11723994895794 Z"/><path fill="none" stroke="black" paint-order="fill stroke markers" d=" M 751 226.11723994895794 L 785.6666666666667 226.11723994895794 L 785.6666666666667 247 L 751 247 L 751 226.11723994895794 Z" stroke-linejoin="bevel" stroke-miterlimit="10" stroke-width="3"/><path fill="#D6AE4A" stroke="none" paint-order="stroke fill markers" d=" M 135.66666666666669 80.20166930543289 L 170.33333333333331 80.20166930543289 L 170.33333333333331 247 L 135.66666666666669 247 L 135.66666666666669 80.20166930543289 Z"/><path fill="none" stroke="black" paint-order="fill stroke markers" d=" M 135.66666666666669 80.20166930543289 L 170.33333333333331 80.20166930543289 L 170.33333333333331 247 L 135.66666666666669 247 L 135.66666666666669 80.20166930543289 Z" stroke-linejoin="bevel" stroke-miterlimit="10" stroke-width="3"/><path fill="#D6AE4A" stroke="none" paint-order="stroke fill markers" d=" M 326.33333333333337 67.69103242990818 L 361 67.69103242990818 L 361 247 L 326.33333333333337 247 L 326.33333333333337 67.69103242990818 Z"/><path fill="none" stroke="black" paint-order="fill stroke markers" d=" M 326.33333333333337 67.69103242990818 L 361 67.69103242990818 L 361 247 L 326.33333333333337 247 L 326.33333333333337 67.69103242990818 Z" stroke-linejoin="bevel" stroke-miterlimit="10" stroke-width="3"/><path fill="#D6AE4A" stroke="none" paint-order="stroke fill markers" d=" M 517 119.2948210181603 L 551.6666666666667 119.2948210181603 L 551.6666666666667 247 L 517 247 L 517 119.2948210181603 Z"/><path fill="none" stroke="black" paint-order="fill stroke markers" d=" M 517 119.2948210181603 L 551.6666666666667 119.2948210181603 L 551.6666666666667 247 L 517 247 L 517 119.2948210181603 Z" stroke-linejoin="bevel" stroke-miterlimit="10" stroke-width="3"/><path fill="#D6AE4A" stroke="none" paint-order="stroke fill markers" d=" M 707.6666666666667 228.3315091133772 L 742.3333333333335 228.3315091133772 L 742.3333333333335 247 L 707.6666666666667 247 L 707.6666666666667 228.3315091133772 Z"/><path fill="none" stroke="black" paint-order="fill stroke markers" d=" M 707.6666666666667 228.3315091133772 L 742.3333333333335 228.3315091133772 L 742.3333333333335 247 L 707.6666666666667 247 L 707.6666666666667 228.3315091133772 Z" stroke-linejoin="bevel" stroke-miterlimit="10" stroke-width="3"/></g></g></g><g/><g><g fill="grey"><path fill="none" stroke="black" paint-order="fill stroke markers" d=" M 88 247 L 790 247" stroke-linejoin="bevel" stroke-miterlimit="10" stroke-width="2"/><path fill="none" stroke="black" paint-order="fill stroke markers" d=" M 110 255 L 110 247" stroke-linejoin="bevel" stroke-miterlimit="10" stroke-width="2"/><path fill="none" stroke="black" paint-order="fill stroke markers" d=" M 153 255 L 153 247" stroke-linejoin="bevel" stroke-miterlimit="10" stroke-width="2"/><path fill="none" stroke="black" paint-order="fill stroke markers" d=" M 196 255 L 196 247" stroke-linejoin="bevel" stroke-miterlimit="10" stroke-width="2"/><path fill="none" stroke="black" paint-order="fill stroke markers" d=" M 300 255 L 300 247" stroke-linejoin="bevel" stroke-miterlimit="10" stroke-width="2"/><path fill="none" stroke="black" paint-order="fill stroke markers" d=" M 344 255 L 344 247" stroke-linejoin="bevel" stroke-miterlimit="10" stroke-width="2"/><path fill="none" stroke="black" paint-order="fill stroke markers" d=" M 387 255 L 387 247" stroke-linejoin="bevel" stroke-miterlimit="10" stroke-width="2"/><path fill="none" stroke="black" paint-order="fill stroke markers" d=" M 491 255 L 491 247" stroke-linejoin="bevel" stroke-miterlimit="10" stroke-width="2"/><path fill="none" stroke="black" paint-order="fill stroke markers" d=" M 534 255 L 534 247" stroke-linejoin="bevel" stroke-miterlimit="10" stroke-width="2"/><path fill="none" stroke="black" paint-order="fill stroke markers" d=" M 578 255 L 578 247" stroke-linejoin="bevel" stroke-miterlimit="10" stroke-width="2"/><path fill="none" stroke="black" paint-order="fill stroke markers" d=" M 682 255 L 682 247" stroke-linejoin="bevel" stroke-miterlimit="10" stroke-width="2"/><path fill="none" stroke="black" paint-order="fill stroke markers" d=" M 725 255 L 725 247" stroke-linejoin="bevel" stroke-miterlimit="10" stroke-width="2"/><path fill="" stroke="black" paint-order="fill stroke markers" d=" M 768 255 L 768 247" stroke-linejoin="bevel" stroke-miterlimit="10" stroke-width="2"/><g transform="translate(110,260) rotate(-45,0,0)"><text fill="" stroke="none" font-family="helvetica" font-size="14pt" font-style="normal" font-weight="normal" text-decoration="normal" x="0" y="0" text-anchor="end" dominant-baseline="central">NO₃ flux</text><g transform="rotate(45,0,0) translate(-110,-260) translate(153,260) rotate(-45,0,0)"><text fill="" stroke="none" font-family="helvetica" font-size="14pt" font-style="normal" font-weight="normal" text-decoration="normal" x="0" y="0" text-anchor="end" dominant-baseline="central">New production</text><g transform="rotate(45,0,0) translate(-153,-260) translate(196,260) rotate(-45,0,0)"><text fill="" stroke="none" font-family="helvetica" font-size="14pt" font-style="normal" font-weight="normal" text-decoration="normal" x="0" y="0" text-anchor="end" dominant-baseline="central">Vertical export</text><g transform="rotate(45,0,0) translate(-196,-260) translate(300,260) rotate(-45,0,0)"><text fill="" stroke="none" font-family="helvetica" font-size="14pt" font-style="normal" font-weight="normal" text-decoration="normal" x="0" y="0" text-anchor="end" dominant-baseline="central">NO₃ flux</text><g transform="rotate(45,0,0) translate(-300,-260) translate(344,260) rotate(-45,0,0)"><text fill="" stroke="none" font-family="helvetica" font-size="14pt" font-style="normal" font-weight="normal" text-decoration="normal" x="0" y="0" text-anchor="end" dominant-baseline="central">New production</text><g transform="rotate(45,0,0) translate(-344,-260) translate(387,260) rotate(-45,0,0)"><text fill="" stroke="none" font-family="helvetica" font-size="14pt" font-style="normal" font-weight="normal" text-decoration="normal" x="0" y="0" text-anchor="end" dominant-baseline="central">Vertical export</text><g transform="rotate(45,0,0) translate(-387,-260) translate(491,260) rotate(-45,0,0)"><text fill="" stroke="none" font-family="helvetica" font-size="14pt" font-style="normal" font-weight="normal" text-decoration="normal" x="0" y="0" text-anchor="end" dominant-baseline="central">NO₃ flux</text><g transform="rotate(45,0,0) translate(-491,-260) translate(534,260) rotate(-45,0,0)"><text fill="" stroke="none" font-family="helvetica" font-size="14pt" font-style="normal" font-weight="normal" text-decoration="normal" x="0" y="0" text-anchor="end" dominant-baseline="central">New production</text><g transform="rotate(45,0,0) translate(-534,-260) translate(578,260) rotate(-45,0,0)"><text fill="" stroke="none" font-family="helvetica" font-size="14pt" font-style="normal" font-weight="normal" text-decoration="normal" x="0" y="0" text-anchor="end" dominant-baseline="central">Vertical export</text><g transform="rotate(45,0,0) translate(-578,-260) translate(682,260) rotate(-45,0,0)"><text fill="" stroke="none" font-family="helvetica" font-size="14pt" font-style="normal" font-weight="normal" text-decoration="normal" x="0" y="0" text-anchor="end" dominant-baseline="central">NO₃ flux</text><g transform="rotate(45,0,0) translate(-682,-260) translate(725,260) rotate(-45,0,0)"><text fill="" stroke="none" font-family="helvetica" font-size="14pt" font-style="normal" font-weight="normal" text-decoration="normal" x="0" y="0" text-anchor="end" dominant-baseline="central">New production</text><g transform="rotate(45,0,0) translate(-725,-260) translate(768,260) rotate(-45,0,0)"><text fill="" stroke="none" font-family="helvetica" font-size="14pt" font-style="normal" font-weight="normal" text-decoration="normal" x="0" y="0" text-anchor="end" dominant-baseline="central">Vertical export</text><g transform="rotate(45,0,0) translate(-768,-260) translate(153,376) rotate(0,0,0)"><text fill="" stroke="none" font-family="helvetica" font-size="14pt" font-style="normal" font-weight="bold" text-decoration="normal" x="0" y="0" text-anchor="middle" dominant-baseline="hanging">Baffin Bay</text><g transform="rotate(0,0,0) translate(-153,-376) translate(344,376) rotate(0,0,0)"><text fill="" stroke="none" font-family="helvetica" font-size="14pt" font-style="normal" font-weight="bold" text-decoration="normal" x="0" y="0" text-anchor="middle" dominant-baseline="hanging">Barents Sea</text><g transform="rotate(0,0,0) translate(-344,-376) translate(534,376) rotate(0,0,0)"><text fill="" stroke="none" font-family="helvetica" font-size="14pt" font-style="normal" font-weight="bold" text-decoration="normal" x="0" y="0" text-anchor="middle" dominant-baseline="hanging">Beaufort Sea</text><g transform="rotate(0,0,0) translate(-534,-376) translate(725,376) rotate(0,0,0)"><text fill="" stroke="none" font-family="helvetica" font-size="14pt" font-style="normal" font-weight="bold" text-decoration="normal" x="0" y="0" text-anchor="middle" dominant-baseline="hanging">Central basin</text><g transform="rotate(0,0,0) translate(-725,-376)"/></g></g></g></g></g></g></g></g></g></g></g></g></g></g></g></g></g></g><g><g fill="black"><path fill="none" stroke="black" paint-order="fill stroke markers" d=" M 88 247 L 88 10" stroke-linejoin="bevel" stroke-miterlimit="10" stroke-width="2"/><path fill="none" stroke="black" paint-order="fill stroke markers" d=" M 80 247 L 88 247" stroke-linejoin="bevel" stroke-miterlimit="10" stroke-width="2"/><path fill="none" stroke="black" paint-order="fill stroke markers" d=" M 80 168 L 88 168" stroke-linejoin="bevel" stroke-miterlimit="10" stroke-width="2"/><path fill="none" stroke="black" paint-order="fill stroke markers" d=" M 80 89 L 88 89" stroke-linejoin="bevel" stroke-miterlimit="10" stroke-width="2"/><path fill="" stroke="black" paint-order="fill stroke markers" d=" M 80 10 L 88 10" stroke-linejoin="bevel" stroke-miterlimit="10" stroke-width="2"/><g transform="translate(75,247) rotate(0,0,0)"><text fill="" stroke="none" font-family="helvetica" font-size="14pt" font-style="normal" font-weight="normal" text-decoration="normal" x="0" y="0" text-anchor="end" dominant-baseline="central">0.01</text><g transform="rotate(0,0,0) translate(-75,-247) translate(75,168) rotate(0,0,0)"><text fill="" stroke="none" font-family="helvetica" font-size="14pt" font-style="normal" font-weight="normal" text-decoration="normal" x="0" y="0" text-anchor="end" dominant-baseline="central">0.1</text><g transform="rotate(0,0,0) translate(-75,-168) translate(75,89) rotate(0,0,0)"><text fill="" stroke="none" font-family="helvetica" font-size="14pt" font-style="normal" font-weight="normal" text-decoration="normal" x="0" y="0" text-anchor="end" dominant-baseline="central">1</text><g transform="rotate(0,0,0) translate(-75,-89) translate(75,10) rotate(0,0,0)"><text fill="" stroke="none" font-family="helvetica" font-size="14pt" font-style="normal" font-weight="normal" text-decoration="normal" x="0" y="0" text-anchor="end" dominant-baseline="central">10</text><g transform="rotate(0,0,0) translate(-75,-10) translate(22,129) rotate(-90,0,0)"><text fill="" stroke="none" font-family="helvetica" font-size="14pt" font-style="normal" font-weight="normal" text-decoration="normal" x="0" y="0" text-anchor="middle" dominant-baseline="alphabetic">N flux (mmol N m⁻² d⁻¹)</text><g transform="rotate(90,0,0) translate(-22,-129)"/></g></g></g></g></g></g></g><g clip-path="url(#ZeRGogPwORzP)"><g/></g></g></g></svg>